ISO-10303-21;
HEADER;
/* Generated by software containing ST-Developer
 * from STEP Tools, Inc. (www.steptools.com) 
 */

FILE_DESCRIPTION(
/* description */ ('FreeCAD Model'),
/* implementation_level */ '2;1');

FILE_NAME(
/* name */ 'cornix-tb_slide_switch_v3.step',
/* time_stamp */ '2026-01-15T23:49:59+09:00',
/* author */ (''),
/* organization */ (''),
/* preprocessor_version */ 'ST-DEVELOPER v20.1',
/* originating_system */ 'Autodesk Translation Framework v14.21.0.0',
/* authorisation */ '');

FILE_SCHEMA (('AUTOMOTIVE_DESIGN { 1 0 10303 214 3 1 1 }'));
ENDSEC;

DATA;
#10=MECHANICAL_DESIGN_GEOMETRIC_PRESENTATION_REPRESENTATION('',(#13),#551);
#11=SHAPE_REPRESENTATION_RELATIONSHIP('SRR','None',#557,#12);
#12=ADVANCED_BREP_SHAPE_REPRESENTATION('',(#14),#550);
#13=STYLED_ITEM('',(#566),#14);
#14=MANIFOLD_SOLID_BREP('\X2\30B930E930A430C930B930A430C330C1\X0\',#331);
#15=FACE_BOUND('',#135,.T.);
#16=PLANE('',#345);
#17=PLANE('',#348);
#18=PLANE('',#349);
#19=PLANE('',#352);
#20=PLANE('',#353);
#21=PLANE('',#354);
#22=PLANE('',#355);
#23=PLANE('',#356);
#24=PLANE('',#357);
#25=PLANE('',#358);
#26=PLANE('',#359);
#27=PLANE('',#360);
#28=PLANE('',#361);
#29=LINE('',#470,#63);
#30=LINE('',#471,#64);
#31=LINE('',#479,#65);
#32=LINE('',#480,#66);
#33=LINE('',#483,#67);
#34=LINE('',#485,#68);
#35=LINE('',#487,#69);
#36=LINE('',#489,#70);
#37=LINE('',#491,#71);
#38=LINE('',#493,#72);
#39=LINE('',#494,#73);
#40=LINE('',#497,#74);
#41=LINE('',#502,#75);
#42=LINE('',#504,#76);
#43=LINE('',#506,#77);
#44=LINE('',#508,#78);
#45=LINE('',#510,#79);
#46=LINE('',#511,#80);
#47=LINE('',#517,#81);
#48=LINE('',#519,#82);
#49=LINE('',#521,#83);
#50=LINE('',#522,#84);
#51=LINE('',#524,#85);
#52=LINE('',#526,#86);
#53=LINE('',#528,#87);
#54=LINE('',#530,#88);
#55=LINE('',#534,#89);
#56=LINE('',#536,#90);
#57=LINE('',#538,#91);
#58=LINE('',#539,#92);
#59=LINE('',#541,#93);
#60=LINE('',#542,#94);
#61=LINE('',#544,#95);
#62=LINE('',#546,#96);
#63=VECTOR('',#378,10.);
#64=VECTOR('',#379,10.);
#65=VECTOR('',#390,10.);
#66=VECTOR('',#391,10.);
#67=VECTOR('',#394,10.);
#68=VECTOR('',#395,10.);
#69=VECTOR('',#396,10.);
#70=VECTOR('',#397,10.);
#71=VECTOR('',#398,10.);
#72=VECTOR('',#399,10.);
#73=VECTOR('',#400,10.);
#74=VECTOR('',#403,10.);
#75=VECTOR('',#410,10.);
#76=VECTOR('',#411,10.);
#77=VECTOR('',#412,10.);
#78=VECTOR('',#413,10.);
#79=VECTOR('',#414,10.);
#80=VECTOR('',#415,10.);
#81=VECTOR('',#422,10.);
#82=VECTOR('',#423,10.);
#83=VECTOR('',#424,10.);
#84=VECTOR('',#425,10.);
#85=VECTOR('',#428,10.);
#86=VECTOR('',#431,10.);
#87=VECTOR('',#434,10.);
#88=VECTOR('',#437,10.);
#89=VECTOR('',#440,10.);
#90=VECTOR('',#441,10.);
#91=VECTOR('',#442,10.);
#92=VECTOR('',#443,10.);
#93=VECTOR('',#446,10.);
#94=VECTOR('',#447,10.);
#95=VECTOR('',#450,10.);
#96=VECTOR('',#453,10.);
#97=CYLINDRICAL_SURFACE('',#338,0.5);
#98=CYLINDRICAL_SURFACE('',#344,0.5);
#99=CYLINDRICAL_SURFACE('',#346,1.4);
#100=CYLINDRICAL_SURFACE('',#350,1.4);
#101=FACE_OUTER_BOUND('',#120,.T.);
#102=FACE_OUTER_BOUND('',#121,.T.);
#103=FACE_OUTER_BOUND('',#122,.T.);
#104=FACE_OUTER_BOUND('',#123,.T.);
#105=FACE_OUTER_BOUND('',#124,.T.);
#106=FACE_OUTER_BOUND('',#125,.T.);
#107=FACE_OUTER_BOUND('',#126,.T.);
#108=FACE_OUTER_BOUND('',#127,.T.);
#109=FACE_OUTER_BOUND('',#128,.T.);
#110=FACE_OUTER_BOUND('',#129,.T.);
#111=FACE_OUTER_BOUND('',#130,.T.);
#112=FACE_OUTER_BOUND('',#131,.T.);
#113=FACE_OUTER_BOUND('',#132,.T.);
#114=FACE_OUTER_BOUND('',#133,.T.);
#115=FACE_OUTER_BOUND('',#134,.T.);
#116=FACE_OUTER_BOUND('',#136,.T.);
#117=FACE_OUTER_BOUND('',#137,.T.);
#118=FACE_OUTER_BOUND('',#138,.T.);
#119=FACE_OUTER_BOUND('',#139,.T.);
#120=EDGE_LOOP('',(#222,#223,#224,#225));
#121=EDGE_LOOP('',(#226,#227,#228,#229));
#122=EDGE_LOOP('',(#230,#231,#232,#233));
#123=EDGE_LOOP('',(#234,#235,#236,#237));
#124=EDGE_LOOP('',(#238,#239,#240,#241,#242,#243,#244,#245));
#125=EDGE_LOOP('',(#246,#247,#248,#249));
#126=EDGE_LOOP('',(#250,#251,#252,#253));
#127=EDGE_LOOP('',(#254,#255,#256,#257,#258,#259,#260,#261));
#128=EDGE_LOOP('',(#262,#263,#264,#265));
#129=EDGE_LOOP('',(#266,#267,#268,#269));
#130=EDGE_LOOP('',(#270,#271,#272,#273));
#131=EDGE_LOOP('',(#274,#275,#276,#277));
#132=EDGE_LOOP('',(#278,#279,#280,#281));
#133=EDGE_LOOP('',(#282,#283,#284,#285));
#134=EDGE_LOOP('',(#286,#287,#288,#289));
#135=EDGE_LOOP('',(#290,#291,#292,#293));
#136=EDGE_LOOP('',(#294,#295,#296,#297));
#137=EDGE_LOOP('',(#298,#299,#300,#301));
#138=EDGE_LOOP('',(#302,#303,#304,#305));
#139=EDGE_LOOP('',(#306,#307,#308,#309));
#140=CIRCLE('',#334,0.5);
#141=CIRCLE('',#335,0.9);
#142=CIRCLE('',#336,0.500000000000007);
#143=CIRCLE('',#337,1.4);
#144=CIRCLE('',#339,0.500000000000007);
#145=CIRCLE('',#341,0.500000000000007);
#146=CIRCLE('',#342,1.4);
#147=CIRCLE('',#343,0.9);
#148=CIRCLE('',#347,1.4);
#149=CIRCLE('',#351,1.4);
#150=VERTEX_POINT('',#458);
#151=VERTEX_POINT('',#459);
#152=VERTEX_POINT('',#461);
#153=VERTEX_POINT('',#463);
#154=VERTEX_POINT('',#467);
#155=VERTEX_POINT('',#468);
#156=VERTEX_POINT('',#473);
#157=VERTEX_POINT('',#474);
#158=VERTEX_POINT('',#482);
#159=VERTEX_POINT('',#484);
#160=VERTEX_POINT('',#486);
#161=VERTEX_POINT('',#488);
#162=VERTEX_POINT('',#490);
#163=VERTEX_POINT('',#492);
#164=VERTEX_POINT('',#496);
#165=VERTEX_POINT('',#501);
#166=VERTEX_POINT('',#503);
#167=VERTEX_POINT('',#505);
#168=VERTEX_POINT('',#507);
#169=VERTEX_POINT('',#509);
#170=VERTEX_POINT('',#515);
#171=VERTEX_POINT('',#516);
#172=VERTEX_POINT('',#518);
#173=VERTEX_POINT('',#520);
#174=VERTEX_POINT('',#532);
#175=VERTEX_POINT('',#533);
#176=VERTEX_POINT('',#535);
#177=VERTEX_POINT('',#537);
#178=EDGE_CURVE('',#150,#151,#140,.T.);
#179=EDGE_CURVE('',#151,#152,#141,.T.);
#180=EDGE_CURVE('',#152,#153,#142,.T.);
#181=EDGE_CURVE('',#153,#150,#143,.T.);
#182=EDGE_CURVE('',#154,#155,#144,.T.);
#183=EDGE_CURVE('',#155,#153,#29,.T.);
#184=EDGE_CURVE('',#152,#154,#30,.T.);
#185=EDGE_CURVE('',#156,#157,#145,.T.);
#186=EDGE_CURVE('',#157,#155,#146,.T.);
#187=EDGE_CURVE('',#154,#156,#147,.T.);
#188=EDGE_CURVE('',#150,#157,#31,.T.);
#189=EDGE_CURVE('',#156,#151,#32,.T.);
#190=EDGE_CURVE('',#158,#150,#33,.T.);
#191=EDGE_CURVE('',#159,#158,#34,.T.);
#192=EDGE_CURVE('',#160,#159,#35,.T.);
#193=EDGE_CURVE('',#160,#161,#36,.T.);
#194=EDGE_CURVE('',#161,#162,#37,.T.);
#195=EDGE_CURVE('',#163,#162,#38,.T.);
#196=EDGE_CURVE('',#157,#163,#39,.T.);
#197=EDGE_CURVE('',#153,#164,#40,.T.);
#198=EDGE_CURVE('',#164,#158,#148,.T.);
#199=EDGE_CURVE('',#165,#155,#41,.T.);
#200=EDGE_CURVE('',#166,#165,#42,.T.);
#201=EDGE_CURVE('',#167,#166,#43,.T.);
#202=EDGE_CURVE('',#167,#168,#44,.T.);
#203=EDGE_CURVE('',#168,#169,#45,.T.);
#204=EDGE_CURVE('',#164,#169,#46,.T.);
#205=EDGE_CURVE('',#163,#165,#149,.T.);
#206=EDGE_CURVE('',#170,#171,#47,.T.);
#207=EDGE_CURVE('',#172,#170,#48,.T.);
#208=EDGE_CURVE('',#173,#172,#49,.T.);
#209=EDGE_CURVE('',#171,#173,#50,.T.);
#210=EDGE_CURVE('',#169,#159,#51,.T.);
#211=EDGE_CURVE('',#162,#166,#52,.T.);
#212=EDGE_CURVE('',#160,#168,#53,.T.);
#213=EDGE_CURVE('',#161,#167,#54,.T.);
#214=EDGE_CURVE('',#174,#175,#55,.T.);
#215=EDGE_CURVE('',#175,#176,#56,.T.);
#216=EDGE_CURVE('',#176,#177,#57,.T.);
#217=EDGE_CURVE('',#177,#174,#58,.T.);
#218=EDGE_CURVE('',#173,#177,#59,.T.);
#219=EDGE_CURVE('',#172,#174,#60,.T.);
#220=EDGE_CURVE('',#175,#170,#61,.T.);
#221=EDGE_CURVE('',#176,#171,#62,.T.);
#222=ORIENTED_EDGE('',*,*,#178,.T.);
#223=ORIENTED_EDGE('',*,*,#179,.T.);
#224=ORIENTED_EDGE('',*,*,#180,.T.);
#225=ORIENTED_EDGE('',*,*,#181,.T.);
#226=ORIENTED_EDGE('',*,*,#182,.T.);
#227=ORIENTED_EDGE('',*,*,#183,.T.);
#228=ORIENTED_EDGE('',*,*,#180,.F.);
#229=ORIENTED_EDGE('',*,*,#184,.T.);
#230=ORIENTED_EDGE('',*,*,#185,.T.);
#231=ORIENTED_EDGE('',*,*,#186,.T.);
#232=ORIENTED_EDGE('',*,*,#182,.F.);
#233=ORIENTED_EDGE('',*,*,#187,.T.);
#234=ORIENTED_EDGE('',*,*,#178,.F.);
#235=ORIENTED_EDGE('',*,*,#188,.T.);
#236=ORIENTED_EDGE('',*,*,#185,.F.);
#237=ORIENTED_EDGE('',*,*,#189,.T.);
#238=ORIENTED_EDGE('',*,*,#188,.F.);
#239=ORIENTED_EDGE('',*,*,#190,.F.);
#240=ORIENTED_EDGE('',*,*,#191,.F.);
#241=ORIENTED_EDGE('',*,*,#192,.F.);
#242=ORIENTED_EDGE('',*,*,#193,.T.);
#243=ORIENTED_EDGE('',*,*,#194,.T.);
#244=ORIENTED_EDGE('',*,*,#195,.F.);
#245=ORIENTED_EDGE('',*,*,#196,.F.);
#246=ORIENTED_EDGE('',*,*,#181,.F.);
#247=ORIENTED_EDGE('',*,*,#197,.T.);
#248=ORIENTED_EDGE('',*,*,#198,.T.);
#249=ORIENTED_EDGE('',*,*,#190,.T.);
#250=ORIENTED_EDGE('',*,*,#179,.F.);
#251=ORIENTED_EDGE('',*,*,#189,.F.);
#252=ORIENTED_EDGE('',*,*,#187,.F.);
#253=ORIENTED_EDGE('',*,*,#184,.F.);
#254=ORIENTED_EDGE('',*,*,#183,.F.);
#255=ORIENTED_EDGE('',*,*,#199,.F.);
#256=ORIENTED_EDGE('',*,*,#200,.F.);
#257=ORIENTED_EDGE('',*,*,#201,.F.);
#258=ORIENTED_EDGE('',*,*,#202,.T.);
#259=ORIENTED_EDGE('',*,*,#203,.T.);
#260=ORIENTED_EDGE('',*,*,#204,.F.);
#261=ORIENTED_EDGE('',*,*,#197,.F.);
#262=ORIENTED_EDGE('',*,*,#186,.F.);
#263=ORIENTED_EDGE('',*,*,#196,.T.);
#264=ORIENTED_EDGE('',*,*,#205,.T.);
#265=ORIENTED_EDGE('',*,*,#199,.T.);
#266=ORIENTED_EDGE('',*,*,#206,.F.);
#267=ORIENTED_EDGE('',*,*,#207,.F.);
#268=ORIENTED_EDGE('',*,*,#208,.F.);
#269=ORIENTED_EDGE('',*,*,#209,.F.);
#270=ORIENTED_EDGE('',*,*,#198,.F.);
#271=ORIENTED_EDGE('',*,*,#204,.T.);
#272=ORIENTED_EDGE('',*,*,#210,.T.);
#273=ORIENTED_EDGE('',*,*,#191,.T.);
#274=ORIENTED_EDGE('',*,*,#205,.F.);
#275=ORIENTED_EDGE('',*,*,#195,.T.);
#276=ORIENTED_EDGE('',*,*,#211,.T.);
#277=ORIENTED_EDGE('',*,*,#200,.T.);
#278=ORIENTED_EDGE('',*,*,#212,.F.);
#279=ORIENTED_EDGE('',*,*,#192,.T.);
#280=ORIENTED_EDGE('',*,*,#210,.F.);
#281=ORIENTED_EDGE('',*,*,#203,.F.);
#282=ORIENTED_EDGE('',*,*,#213,.T.);
#283=ORIENTED_EDGE('',*,*,#201,.T.);
#284=ORIENTED_EDGE('',*,*,#211,.F.);
#285=ORIENTED_EDGE('',*,*,#194,.F.);
#286=ORIENTED_EDGE('',*,*,#202,.F.);
#287=ORIENTED_EDGE('',*,*,#213,.F.);
#288=ORIENTED_EDGE('',*,*,#193,.F.);
#289=ORIENTED_EDGE('',*,*,#212,.T.);
#290=ORIENTED_EDGE('',*,*,#214,.T.);
#291=ORIENTED_EDGE('',*,*,#215,.T.);
#292=ORIENTED_EDGE('',*,*,#216,.T.);
#293=ORIENTED_EDGE('',*,*,#217,.T.);
#294=ORIENTED_EDGE('',*,*,#218,.F.);
#295=ORIENTED_EDGE('',*,*,#208,.T.);
#296=ORIENTED_EDGE('',*,*,#219,.T.);
#297=ORIENTED_EDGE('',*,*,#217,.F.);
#298=ORIENTED_EDGE('',*,*,#219,.F.);
#299=ORIENTED_EDGE('',*,*,#207,.T.);
#300=ORIENTED_EDGE('',*,*,#220,.F.);
#301=ORIENTED_EDGE('',*,*,#214,.F.);
#302=ORIENTED_EDGE('',*,*,#220,.T.);
#303=ORIENTED_EDGE('',*,*,#206,.T.);
#304=ORIENTED_EDGE('',*,*,#221,.F.);
#305=ORIENTED_EDGE('',*,*,#215,.F.);
#306=ORIENTED_EDGE('',*,*,#221,.T.);
#307=ORIENTED_EDGE('',*,*,#209,.T.);
#308=ORIENTED_EDGE('',*,*,#218,.T.);
#309=ORIENTED_EDGE('',*,*,#216,.F.);
#310=TOROIDAL_SURFACE('',#333,0.9,0.5);
#311=TOROIDAL_SURFACE('',#340,0.9,0.5);
#312=ADVANCED_FACE('',(#101),#310,.T.);
#313=ADVANCED_FACE('',(#102),#97,.T.);
#314=ADVANCED_FACE('',(#103),#311,.T.);
#315=ADVANCED_FACE('',(#104),#98,.T.);
#316=ADVANCED_FACE('',(#105),#16,.T.);
#317=ADVANCED_FACE('',(#106),#99,.T.);
#318=ADVANCED_FACE('',(#107),#17,.T.);
#319=ADVANCED_FACE('',(#108),#18,.T.);
#320=ADVANCED_FACE('',(#109),#100,.T.);
#321=ADVANCED_FACE('',(#110),#19,.F.);
#322=ADVANCED_FACE('',(#111),#20,.T.);
#323=ADVANCED_FACE('',(#112),#21,.T.);
#324=ADVANCED_FACE('',(#113),#22,.T.);
#325=ADVANCED_FACE('',(#114),#23,.T.);
#326=ADVANCED_FACE('',(#115,#15),#24,.T.);
#327=ADVANCED_FACE('',(#116),#25,.T.);
#328=ADVANCED_FACE('',(#117),#26,.T.);
#329=ADVANCED_FACE('',(#118),#27,.T.);
#330=ADVANCED_FACE('',(#119),#28,.T.);
#331=CLOSED_SHELL('',(#312,#313,#314,#315,#316,#317,#318,#319,#320,#321,
#322,#323,#324,#325,#326,#327,#328,#329,#330));
#332=AXIS2_PLACEMENT_3D('',#456,#362,#363);
#333=AXIS2_PLACEMENT_3D('',#457,#364,#365);
#334=AXIS2_PLACEMENT_3D('',#460,#366,#367);
#335=AXIS2_PLACEMENT_3D('',#462,#368,#369);
#336=AXIS2_PLACEMENT_3D('',#464,#370,#371);
#337=AXIS2_PLACEMENT_3D('',#465,#372,#373);
#338=AXIS2_PLACEMENT_3D('',#466,#374,#375);
#339=AXIS2_PLACEMENT_3D('',#469,#376,#377);
#340=AXIS2_PLACEMENT_3D('',#472,#380,#381);
#341=AXIS2_PLACEMENT_3D('',#475,#382,#383);
#342=AXIS2_PLACEMENT_3D('',#476,#384,#385);
#343=AXIS2_PLACEMENT_3D('',#477,#386,#387);
#344=AXIS2_PLACEMENT_3D('',#478,#388,#389);
#345=AXIS2_PLACEMENT_3D('',#481,#392,#393);
#346=AXIS2_PLACEMENT_3D('',#495,#401,#402);
#347=AXIS2_PLACEMENT_3D('',#498,#404,#405);
#348=AXIS2_PLACEMENT_3D('',#499,#406,#407);
#349=AXIS2_PLACEMENT_3D('',#500,#408,#409);
#350=AXIS2_PLACEMENT_3D('',#512,#416,#417);
#351=AXIS2_PLACEMENT_3D('',#513,#418,#419);
#352=AXIS2_PLACEMENT_3D('',#514,#420,#421);
#353=AXIS2_PLACEMENT_3D('',#523,#426,#427);
#354=AXIS2_PLACEMENT_3D('',#525,#429,#430);
#355=AXIS2_PLACEMENT_3D('',#527,#432,#433);
#356=AXIS2_PLACEMENT_3D('',#529,#435,#436);
#357=AXIS2_PLACEMENT_3D('',#531,#438,#439);
#358=AXIS2_PLACEMENT_3D('',#540,#444,#445);
#359=AXIS2_PLACEMENT_3D('',#543,#448,#449);
#360=AXIS2_PLACEMENT_3D('',#545,#451,#452);
#361=AXIS2_PLACEMENT_3D('',#547,#454,#455);
#362=DIRECTION('axis',(0.,0.,1.));
#363=DIRECTION('refdir',(1.,0.,0.));
#364=DIRECTION('center_axis',(1.,0.,0.));
#365=DIRECTION('ref_axis',(0.,0.,-1.));
#366=DIRECTION('center_axis',(0.,1.,0.));
#367=DIRECTION('ref_axis',(0.,0.,-1.));
#368=DIRECTION('center_axis',(1.,0.,0.));
#369=DIRECTION('ref_axis',(0.,1.,-1.98254111540206E-16));
#370=DIRECTION('center_axis',(0.,1.,0.));
#371=DIRECTION('ref_axis',(-1.,0.,0.));
#372=DIRECTION('center_axis',(-1.,0.,0.));
#373=DIRECTION('ref_axis',(0.,1.,-1.98254111540206E-16));
#374=DIRECTION('center_axis',(0.,-1.,-8.41078048958456E-17));
#375=DIRECTION('ref_axis',(-0.707106781186553,0.,0.707106781186542));
#376=DIRECTION('center_axis',(0.,1.,0.));
#377=DIRECTION('ref_axis',(-1.,0.,0.));
#378=DIRECTION('',(0.,1.,8.41078048958456E-17));
#379=DIRECTION('',(0.,-1.,-8.41078048958456E-17));
#380=DIRECTION('center_axis',(1.,0.,0.));
#381=DIRECTION('ref_axis',(0.,0.,-1.));
#382=DIRECTION('center_axis',(0.,-1.,0.));
#383=DIRECTION('ref_axis',(-1.,0.,0.));
#384=DIRECTION('center_axis',(-1.,0.,0.));
#385=DIRECTION('ref_axis',(0.,-1.,9.91270557701029E-17));
#386=DIRECTION('center_axis',(1.,0.,0.));
#387=DIRECTION('ref_axis',(0.,-1.,9.91270557701029E-17));
#388=DIRECTION('center_axis',(0.,1.,0.));
#389=DIRECTION('ref_axis',(-0.707106781186553,0.,-0.707106781186543));
#390=DIRECTION('',(0.,-1.,0.));
#391=DIRECTION('',(0.,1.,0.));
#392=DIRECTION('center_axis',(0.,0.,-1.));
#393=DIRECTION('ref_axis',(0.,1.,0.));
#394=DIRECTION('',(-1.,0.,0.));
#395=DIRECTION('',(0.,-1.,0.));
#396=DIRECTION('',(-1.,0.,0.));
#397=DIRECTION('',(0.,-1.,0.));
#398=DIRECTION('',(-1.,0.,0.));
#399=DIRECTION('',(0.,-1.,0.));
#400=DIRECTION('',(1.,0.,0.));
#401=DIRECTION('center_axis',(-1.,0.,0.));
#402=DIRECTION('ref_axis',(0.,0.707106781186549,-0.707106781186546));
#403=DIRECTION('',(1.,0.,0.));
#404=DIRECTION('center_axis',(-1.,0.,0.));
#405=DIRECTION('ref_axis',(0.,0.707106781186549,-0.707106781186546));
#406=DIRECTION('center_axis',(-1.,0.,0.));
#407=DIRECTION('ref_axis',(0.,0.,1.));
#408=DIRECTION('center_axis',(0.,-8.41078048958456E-17,1.));
#409=DIRECTION('ref_axis',(0.,-1.,-8.41078048958456E-17));
#410=DIRECTION('',(-1.,0.,0.));
#411=DIRECTION('',(0.,1.,0.));
#412=DIRECTION('',(-1.,0.,0.));
#413=DIRECTION('',(0.,1.,8.41078048958456E-17));
#414=DIRECTION('',(-1.,0.,0.));
#415=DIRECTION('',(0.,1.,0.));
#416=DIRECTION('center_axis',(-1.,0.,0.));
#417=DIRECTION('ref_axis',(0.,-0.707106781186549,-0.707106781186546));
#418=DIRECTION('center_axis',(-1.,0.,0.));
#419=DIRECTION('ref_axis',(0.,-0.707106781186549,-0.707106781186546));
#420=DIRECTION('center_axis',(-1.,0.,0.));
#421=DIRECTION('ref_axis',(0.,0.,1.));
#422=DIRECTION('',(0.,0.,-1.));
#423=DIRECTION('',(0.,1.,0.));
#424=DIRECTION('',(0.,0.,1.));
#425=DIRECTION('',(0.,-1.,0.));
#426=DIRECTION('center_axis',(-1.,0.,0.));
#427=DIRECTION('ref_axis',(0.,0.,1.));
#428=DIRECTION('',(0.,0.,-1.));
#429=DIRECTION('center_axis',(-1.,0.,0.));
#430=DIRECTION('ref_axis',(0.,0.,1.));
#431=DIRECTION('',(0.,0.,1.));
#432=DIRECTION('center_axis',(0.,1.,0.));
#433=DIRECTION('ref_axis',(0.,0.,-1.));
#434=DIRECTION('',(0.,0.,1.));
#435=DIRECTION('center_axis',(0.,-1.,0.));
#436=DIRECTION('ref_axis',(0.,0.,1.));
#437=DIRECTION('',(0.,0.,1.));
#438=DIRECTION('center_axis',(1.,0.,0.));
#439=DIRECTION('ref_axis',(0.,1.,0.));
#440=DIRECTION('',(0.,1.,0.));
#441=DIRECTION('',(0.,0.,-1.));
#442=DIRECTION('',(0.,-1.,0.));
#443=DIRECTION('',(0.,0.,1.));
#444=DIRECTION('center_axis',(0.,1.,0.));
#445=DIRECTION('ref_axis',(0.,0.,1.));
#446=DIRECTION('',(1.,0.,0.));
#447=DIRECTION('',(1.,0.,0.));
#448=DIRECTION('center_axis',(0.,0.,-1.));
#449=DIRECTION('ref_axis',(-1.,0.,0.));
#450=DIRECTION('',(-1.,0.,0.));
#451=DIRECTION('center_axis',(0.,-1.,0.));
#452=DIRECTION('ref_axis',(0.,0.,-1.));
#453=DIRECTION('',(-1.,0.,0.));
#454=DIRECTION('center_axis',(0.,0.,1.));
#455=DIRECTION('ref_axis',(1.,0.,0.));
#456=CARTESIAN_POINT('',(0.,0.,0.));
#457=CARTESIAN_POINT('Origin',(87.8261637705198,-91.17,0.8));
#458=CARTESIAN_POINT('',(87.8261637705198,-91.17,-0.6));
#459=CARTESIAN_POINT('',(87.3261637705198,-91.17,-0.1));
#460=CARTESIAN_POINT('Origin',(87.8261637705198,-91.17,-0.1));
#461=CARTESIAN_POINT('',(87.3261637705198,-91.17,1.7));
#462=CARTESIAN_POINT('Origin',(87.3261637705198,-91.17,0.8));
#463=CARTESIAN_POINT('',(87.8261637705198,-91.17,2.2));
#464=CARTESIAN_POINT('Origin',(87.8261637705198,-91.17,1.7));
#465=CARTESIAN_POINT('Origin',(87.8261637705198,-91.17,0.8));
#466=CARTESIAN_POINT('Origin',(87.8261637705198,-90.595,1.7));
#467=CARTESIAN_POINT('',(87.3261637705198,-91.67,1.7));
#468=CARTESIAN_POINT('',(87.8261637705198,-91.67,2.2));
#469=CARTESIAN_POINT('Origin',(87.8261637705198,-91.67,1.7));
#470=CARTESIAN_POINT('',(87.8261637705198,-90.595,2.2));
#471=CARTESIAN_POINT('',(87.3261637705198,-90.595,1.7));
#472=CARTESIAN_POINT('Origin',(87.8261637705198,-91.67,0.8));
#473=CARTESIAN_POINT('',(87.3261637705198,-91.67,-0.1));
#474=CARTESIAN_POINT('',(87.8261637705198,-91.67,-0.6));
#475=CARTESIAN_POINT('Origin',(87.8261637705198,-91.67,-0.1));
#476=CARTESIAN_POINT('Origin',(87.8261637705198,-91.67,0.8));
#477=CARTESIAN_POINT('Origin',(87.3261637705198,-91.67,0.8));
#478=CARTESIAN_POINT('Origin',(87.8261637705198,-92.245,-0.1));
#479=CARTESIAN_POINT('',(87.8261637705198,-92.245,-0.6));
#480=CARTESIAN_POINT('',(87.3261637705198,-92.245,-0.1));
#481=CARTESIAN_POINT('Origin',(88.8261637705198,-93.07,-0.6));
#482=CARTESIAN_POINT('',(89.7999937223787,-91.17,-0.6));
#483=CARTESIAN_POINT('',(88.8261637705198,-91.17,-0.6));
#484=CARTESIAN_POINT('',(89.7999937223787,-87.77,-0.6));
#485=CARTESIAN_POINT('',(89.7999937223787,-93.07,-0.6));
#486=CARTESIAN_POINT('',(90.7999937223787,-87.77,-0.6));
#487=CARTESIAN_POINT('',(90.7999937223787,-87.77,-0.6));
#488=CARTESIAN_POINT('',(90.7999937223787,-95.07,-0.6));
#489=CARTESIAN_POINT('',(90.7999937223788,-92.245,-0.6));
#490=CARTESIAN_POINT('',(89.7999937223787,-95.07,-0.6));
#491=CARTESIAN_POINT('',(90.7999937223787,-95.07,-0.6));
#492=CARTESIAN_POINT('',(89.7999937223787,-91.67,-0.6));
#493=CARTESIAN_POINT('',(89.7999937223787,-93.07,-0.6));
#494=CARTESIAN_POINT('',(88.8261637705198,-91.67,-0.6));
#495=CARTESIAN_POINT('Origin',(88.8261637705198,-91.17,0.8));
#496=CARTESIAN_POINT('',(89.7999937223787,-91.17,2.2));
#497=CARTESIAN_POINT('',(88.8261637705198,-91.17,2.2));
#498=CARTESIAN_POINT('Origin',(89.7999937223787,-91.17,0.8));
#499=CARTESIAN_POINT('Origin',(87.3261637705198,-91.42,0.8));
#500=CARTESIAN_POINT('Origin',(88.8261637705198,-89.77,2.2));
#501=CARTESIAN_POINT('',(89.7999937223787,-91.67,2.2));
#502=CARTESIAN_POINT('',(88.8261637705198,-91.67,2.2));
#503=CARTESIAN_POINT('',(89.7999937223787,-95.07,2.2));
#504=CARTESIAN_POINT('',(89.7999937223787,-89.77,2.2));
#505=CARTESIAN_POINT('',(90.7999937223787,-95.07,2.2));
#506=CARTESIAN_POINT('',(90.7999937223787,-95.07,2.2));
#507=CARTESIAN_POINT('',(90.7999937223787,-87.77,2.2));
#508=CARTESIAN_POINT('',(90.7999937223788,-90.595,2.2));
#509=CARTESIAN_POINT('',(89.7999937223787,-87.77,2.2));
#510=CARTESIAN_POINT('',(90.7999937223787,-87.77,2.2));
#511=CARTESIAN_POINT('',(89.7999937223787,-89.77,2.2));
#512=CARTESIAN_POINT('Origin',(88.8261637705198,-91.67,0.8));
#513=CARTESIAN_POINT('Origin',(89.7999937223787,-91.67,0.8));
#514=CARTESIAN_POINT('Origin',(89.7759937223787,-91.42,0.8));
#515=CARTESIAN_POINT('',(89.7759937223787,-90.72,1.25));
#516=CARTESIAN_POINT('',(89.7759937223787,-90.72,0.35));
#517=CARTESIAN_POINT('',(89.7759937223787,-90.72,0.35));
#518=CARTESIAN_POINT('',(89.7759937223787,-92.12,1.25));
#519=CARTESIAN_POINT('',(89.7759937223787,-90.72,1.25));
#520=CARTESIAN_POINT('',(89.7759937223787,-92.12,0.35));
#521=CARTESIAN_POINT('',(89.7759937223787,-92.12,1.25));
#522=CARTESIAN_POINT('',(89.7759937223787,-92.12,0.35));
#523=CARTESIAN_POINT('Origin',(89.7999937223787,-91.42,0.8));
#524=CARTESIAN_POINT('',(89.7999937223787,-87.77,-0.6));
#525=CARTESIAN_POINT('Origin',(89.7999937223787,-91.42,0.8));
#526=CARTESIAN_POINT('',(89.7999937223787,-95.07,-0.6));
#527=CARTESIAN_POINT('Origin',(90.7999937223787,-87.77,2.2));
#528=CARTESIAN_POINT('',(90.7999937223787,-87.77,-0.6));
#529=CARTESIAN_POINT('Origin',(90.7999937223787,-95.07,-0.6));
#530=CARTESIAN_POINT('',(90.7999937223787,-95.07,-0.6));
#531=CARTESIAN_POINT('Origin',(90.7999937223787,-91.42,0.8));
#532=CARTESIAN_POINT('',(90.7999937223787,-92.12,1.25));
#533=CARTESIAN_POINT('',(90.7999937223787,-90.72,1.25));
#534=CARTESIAN_POINT('',(90.7999937223787,-91.77,1.25));
#535=CARTESIAN_POINT('',(90.7999937223787,-90.72,0.35));
#536=CARTESIAN_POINT('',(90.7999937223787,-90.72,1.025));
#537=CARTESIAN_POINT('',(90.7999937223787,-92.12,0.35));
#538=CARTESIAN_POINT('',(90.7999937223787,-91.07,0.35));
#539=CARTESIAN_POINT('',(90.7999937223787,-92.12,0.575));
#540=CARTESIAN_POINT('Origin',(88.8261637705198,-92.12,0.3));
#541=CARTESIAN_POINT('',(88.8261637705198,-92.12,0.35));
#542=CARTESIAN_POINT('',(88.8261637705198,-92.12,1.25));
#543=CARTESIAN_POINT('Origin',(88.8261637705198,-92.17,1.25));
#544=CARTESIAN_POINT('',(88.8261637705198,-90.72,1.25));
#545=CARTESIAN_POINT('Origin',(88.8261637705198,-90.72,1.3));
#546=CARTESIAN_POINT('',(88.8261637705198,-90.72,0.35));
#547=CARTESIAN_POINT('Origin',(88.8261637705198,-90.67,0.35));
#548=UNCERTAINTY_MEASURE_WITH_UNIT(LENGTH_MEASURE(0.01),#552,
'DISTANCE_ACCURACY_VALUE',
'Maximum model space distance between geometric entities at asserted c
onnectivities');
#549=UNCERTAINTY_MEASURE_WITH_UNIT(LENGTH_MEASURE(0.01),#552,
'DISTANCE_ACCURACY_VALUE',
'Maximum model space distance between geometric entities at asserted c
onnectivities');
#550=(
GEOMETRIC_REPRESENTATION_CONTEXT(3)
GLOBAL_UNCERTAINTY_ASSIGNED_CONTEXT((#548))
GLOBAL_UNIT_ASSIGNED_CONTEXT((#552,#553,#554))
REPRESENTATION_CONTEXT('','3D')
);
#551=(
GEOMETRIC_REPRESENTATION_CONTEXT(3)
GLOBAL_UNCERTAINTY_ASSIGNED_CONTEXT((#549))
GLOBAL_UNIT_ASSIGNED_CONTEXT((#552,#553,#554))
REPRESENTATION_CONTEXT('','3D')
);
#552=(
LENGTH_UNIT()
NAMED_UNIT(*)
SI_UNIT(.MILLI.,.METRE.)
);
#553=(
NAMED_UNIT(*)
PLANE_ANGLE_UNIT()
SI_UNIT($,.RADIAN.)
);
#554=(
NAMED_UNIT(*)
SI_UNIT($,.STERADIAN.)
SOLID_ANGLE_UNIT()
);
#555=SHAPE_DEFINITION_REPRESENTATION(#556,#557);
#556=PRODUCT_DEFINITION_SHAPE('',$,#559);
#557=SHAPE_REPRESENTATION('',(#332),#550);
#558=PRODUCT_DEFINITION_CONTEXT('part definition',#563,'design');
#559=PRODUCT_DEFINITION('cornix-tb','cornix-tb',#560,#558);
#560=PRODUCT_DEFINITION_FORMATION('',$,#565);
#561=PRODUCT_RELATED_PRODUCT_CATEGORY('cornix-tb','cornix-tb',(#565));
#562=APPLICATION_PROTOCOL_DEFINITION('international standard',
'automotive_design',2009,#563);
#563=APPLICATION_CONTEXT(
'Core Data for Automotive Mechanical Design Process');
#564=PRODUCT_CONTEXT('part definition',#563,'mechanical');
#565=PRODUCT('cornix-tb','cornix-tb','FreeCAD Model',(#564));
#566=PRESENTATION_STYLE_ASSIGNMENT((#567));
#567=SURFACE_STYLE_USAGE(.BOTH.,#568);
#568=SURFACE_SIDE_STYLE('',(#569));
#569=SURFACE_STYLE_FILL_AREA(#570);
#570=FILL_AREA_STYLE('\X2\92FC\X0\ - \X2\30B530C630F3\X0\',(#571));
#571=FILL_AREA_STYLE_COLOUR('\X2\92FC\X0\ - \X2\30B530C630F3\X0\',#572);
#572=COLOUR_RGB('\X2\92FC\X0\ - \X2\30B530C630F3\X0\',0.627450980392157,
0.627450980392157,0.627450980392157);
ENDSEC;
END-ISO-10303-21;
