ISO-10303-21;
HEADER;
/* Generated by software containing ST-Developer
 * from STEP Tools, Inc. (www.steptools.com) 
 */

FILE_DESCRIPTION(
/* description */ ('FreeCAD Model'),
/* implementation_level */ '2;1');

FILE_NAME(
/* name */ 'cornix-tb_reset_switch_v3.step',
/* time_stamp */ '2026-01-15T23:51:45+09:00',
/* author */ (''),
/* organization */ (''),
/* preprocessor_version */ 'ST-DEVELOPER v20.1',
/* originating_system */ 'Autodesk Translation Framework v14.21.0.0',
/* authorisation */ '');

FILE_SCHEMA (('AUTOMOTIVE_DESIGN { 1 0 10303 214 3 1 1 }'));
ENDSEC;

DATA;
#10=MECHANICAL_DESIGN_GEOMETRIC_PRESENTATION_REPRESENTATION('',(#13),#316);
#11=SHAPE_REPRESENTATION_RELATIONSHIP('SRR','None',#322,#12);
#12=ADVANCED_BREP_SHAPE_REPRESENTATION('',(#14),#315);
#13=STYLED_ITEM('',(#331),#14);
#14=MANIFOLD_SOLID_BREP('\X2\30EA30BB30C330C830B930A430C330C1\X0\',#187);
#15=PLANE('',#198);
#16=PLANE('',#199);
#17=PLANE('',#200);
#18=PLANE('',#201);
#19=PLANE('',#202);
#20=PLANE('',#203);
#21=PLANE('',#204);
#22=PLANE('',#205);
#23=PLANE('',#206);
#24=LINE('',#272,#41);
#25=LINE('',#282,#42);
#26=LINE('',#283,#43);
#27=LINE('',#286,#44);
#28=LINE('',#287,#45);
#29=LINE('',#290,#46);
#30=LINE('',#291,#47);
#31=LINE('',#294,#48);
#32=LINE('',#295,#49);
#33=LINE('',#298,#50);
#34=LINE('',#300,#51);
#35=LINE('',#301,#52);
#36=LINE('',#304,#53);
#37=LINE('',#305,#54);
#38=LINE('',#308,#55);
#39=LINE('',#309,#56);
#40=LINE('',#311,#57);
#41=VECTOR('',#219,1.05);
#42=VECTOR('',#230,10.);
#43=VECTOR('',#231,10.);
#44=VECTOR('',#234,10.);
#45=VECTOR('',#235,10.);
#46=VECTOR('',#238,10.);
#47=VECTOR('',#239,10.);
#48=VECTOR('',#242,10.);
#49=VECTOR('',#243,10.);
#50=VECTOR('',#246,10.);
#51=VECTOR('',#247,10.);
#52=VECTOR('',#248,10.);
#53=VECTOR('',#251,10.);
#54=VECTOR('',#252,10.);
#55=VECTOR('',#255,10.);
#56=VECTOR('',#256,10.);
#57=VECTOR('',#259,10.);
#58=CYLINDRICAL_SURFACE('',#193,1.05);
#59=FACE_OUTER_BOUND('',#70,.T.);
#60=FACE_OUTER_BOUND('',#71,.T.);
#61=FACE_OUTER_BOUND('',#72,.T.);
#62=FACE_OUTER_BOUND('',#73,.T.);
#63=FACE_OUTER_BOUND('',#74,.T.);
#64=FACE_OUTER_BOUND('',#75,.T.);
#65=FACE_OUTER_BOUND('',#76,.T.);
#66=FACE_OUTER_BOUND('',#77,.T.);
#67=FACE_OUTER_BOUND('',#78,.T.);
#68=FACE_OUTER_BOUND('',#79,.T.);
#69=FACE_OUTER_BOUND('',#80,.T.);
#70=EDGE_LOOP('',(#127,#128,#129,#130));
#71=EDGE_LOOP('',(#131,#132,#133,#134,#135,#136,#137,#138));
#72=EDGE_LOOP('',(#139,#140,#141));
#73=EDGE_LOOP('',(#142,#143,#144));
#74=EDGE_LOOP('',(#145,#146,#147));
#75=EDGE_LOOP('',(#148,#149,#150));
#76=EDGE_LOOP('',(#151,#152,#153,#154,#155));
#77=EDGE_LOOP('',(#156,#157,#158,#159,#160));
#78=EDGE_LOOP('',(#161,#162,#163,#164,#165));
#79=EDGE_LOOP('',(#166,#167,#168,#169,#170));
#80=EDGE_LOOP('',(#171,#172,#173,#174));
#81=CIRCLE('',#190,1.05);
#82=CIRCLE('',#191,1.05);
#83=CIRCLE('',#192,1.05);
#84=CIRCLE('',#194,1.05);
#85=CIRCLE('',#195,1.05);
#86=CIRCLE('',#196,1.05);
#87=CIRCLE('',#197,1.05);
#88=VERTEX_POINT('',#264);
#89=VERTEX_POINT('',#265);
#90=VERTEX_POINT('',#267);
#91=VERTEX_POINT('',#271);
#92=VERTEX_POINT('',#273);
#93=VERTEX_POINT('',#275);
#94=VERTEX_POINT('',#277);
#95=VERTEX_POINT('',#281);
#96=VERTEX_POINT('',#285);
#97=VERTEX_POINT('',#289);
#98=VERTEX_POINT('',#293);
#99=VERTEX_POINT('',#297);
#100=VERTEX_POINT('',#299);
#101=VERTEX_POINT('',#303);
#102=VERTEX_POINT('',#307);
#103=EDGE_CURVE('',#88,#89,#81,.T.);
#104=EDGE_CURVE('',#90,#89,#82,.T.);
#105=EDGE_CURVE('',#89,#88,#83,.T.);
#106=EDGE_CURVE('',#88,#91,#24,.T.);
#107=EDGE_CURVE('',#91,#92,#84,.T.);
#108=EDGE_CURVE('',#92,#93,#85,.T.);
#109=EDGE_CURVE('',#93,#94,#86,.T.);
#110=EDGE_CURVE('',#94,#91,#87,.T.);
#111=EDGE_CURVE('',#91,#95,#25,.T.);
#112=EDGE_CURVE('',#95,#92,#26,.T.);
#113=EDGE_CURVE('',#94,#96,#27,.T.);
#114=EDGE_CURVE('',#96,#91,#28,.T.);
#115=EDGE_CURVE('',#93,#97,#29,.T.);
#116=EDGE_CURVE('',#97,#94,#30,.T.);
#117=EDGE_CURVE('',#92,#98,#31,.T.);
#118=EDGE_CURVE('',#98,#93,#32,.T.);
#119=EDGE_CURVE('',#99,#97,#33,.T.);
#120=EDGE_CURVE('',#99,#100,#34,.T.);
#121=EDGE_CURVE('',#100,#96,#35,.T.);
#122=EDGE_CURVE('',#101,#98,#36,.T.);
#123=EDGE_CURVE('',#101,#99,#37,.T.);
#124=EDGE_CURVE('',#100,#102,#38,.T.);
#125=EDGE_CURVE('',#102,#95,#39,.T.);
#126=EDGE_CURVE('',#102,#101,#40,.T.);
#127=ORIENTED_EDGE('',*,*,#103,.T.);
#128=ORIENTED_EDGE('',*,*,#104,.F.);
#129=ORIENTED_EDGE('',*,*,#104,.T.);
#130=ORIENTED_EDGE('',*,*,#105,.T.);
#131=ORIENTED_EDGE('',*,*,#103,.F.);
#132=ORIENTED_EDGE('',*,*,#106,.T.);
#133=ORIENTED_EDGE('',*,*,#107,.T.);
#134=ORIENTED_EDGE('',*,*,#108,.T.);
#135=ORIENTED_EDGE('',*,*,#109,.T.);
#136=ORIENTED_EDGE('',*,*,#110,.T.);
#137=ORIENTED_EDGE('',*,*,#106,.F.);
#138=ORIENTED_EDGE('',*,*,#105,.F.);
#139=ORIENTED_EDGE('',*,*,#107,.F.);
#140=ORIENTED_EDGE('',*,*,#111,.T.);
#141=ORIENTED_EDGE('',*,*,#112,.T.);
#142=ORIENTED_EDGE('',*,*,#110,.F.);
#143=ORIENTED_EDGE('',*,*,#113,.T.);
#144=ORIENTED_EDGE('',*,*,#114,.T.);
#145=ORIENTED_EDGE('',*,*,#109,.F.);
#146=ORIENTED_EDGE('',*,*,#115,.T.);
#147=ORIENTED_EDGE('',*,*,#116,.T.);
#148=ORIENTED_EDGE('',*,*,#108,.F.);
#149=ORIENTED_EDGE('',*,*,#117,.T.);
#150=ORIENTED_EDGE('',*,*,#118,.T.);
#151=ORIENTED_EDGE('',*,*,#119,.F.);
#152=ORIENTED_EDGE('',*,*,#120,.T.);
#153=ORIENTED_EDGE('',*,*,#121,.T.);
#154=ORIENTED_EDGE('',*,*,#113,.F.);
#155=ORIENTED_EDGE('',*,*,#116,.F.);
#156=ORIENTED_EDGE('',*,*,#119,.T.);
#157=ORIENTED_EDGE('',*,*,#115,.F.);
#158=ORIENTED_EDGE('',*,*,#118,.F.);
#159=ORIENTED_EDGE('',*,*,#122,.F.);
#160=ORIENTED_EDGE('',*,*,#123,.T.);
#161=ORIENTED_EDGE('',*,*,#121,.F.);
#162=ORIENTED_EDGE('',*,*,#124,.T.);
#163=ORIENTED_EDGE('',*,*,#125,.T.);
#164=ORIENTED_EDGE('',*,*,#111,.F.);
#165=ORIENTED_EDGE('',*,*,#114,.F.);
#166=ORIENTED_EDGE('',*,*,#125,.F.);
#167=ORIENTED_EDGE('',*,*,#126,.T.);
#168=ORIENTED_EDGE('',*,*,#122,.T.);
#169=ORIENTED_EDGE('',*,*,#117,.F.);
#170=ORIENTED_EDGE('',*,*,#112,.F.);
#171=ORIENTED_EDGE('',*,*,#126,.F.);
#172=ORIENTED_EDGE('',*,*,#124,.F.);
#173=ORIENTED_EDGE('',*,*,#120,.F.);
#174=ORIENTED_EDGE('',*,*,#123,.F.);
#175=SPHERICAL_SURFACE('',#189,1.05);
#176=ADVANCED_FACE('',(#59),#175,.T.);
#177=ADVANCED_FACE('',(#60),#58,.T.);
#178=ADVANCED_FACE('',(#61),#15,.T.);
#179=ADVANCED_FACE('',(#62),#16,.T.);
#180=ADVANCED_FACE('',(#63),#17,.T.);
#181=ADVANCED_FACE('',(#64),#18,.T.);
#182=ADVANCED_FACE('',(#65),#19,.T.);
#183=ADVANCED_FACE('',(#66),#20,.T.);
#184=ADVANCED_FACE('',(#67),#21,.T.);
#185=ADVANCED_FACE('',(#68),#22,.T.);
#186=ADVANCED_FACE('',(#69),#23,.T.);
#187=CLOSED_SHELL('',(#176,#177,#178,#179,#180,#181,#182,#183,#184,#185,
#186));
#188=AXIS2_PLACEMENT_3D('',#262,#207,#208);
#189=AXIS2_PLACEMENT_3D('',#263,#209,#210);
#190=AXIS2_PLACEMENT_3D('',#266,#211,#212);
#191=AXIS2_PLACEMENT_3D('',#268,#213,#214);
#192=AXIS2_PLACEMENT_3D('',#269,#215,#216);
#193=AXIS2_PLACEMENT_3D('',#270,#217,#218);
#194=AXIS2_PLACEMENT_3D('',#274,#220,#221);
#195=AXIS2_PLACEMENT_3D('',#276,#222,#223);
#196=AXIS2_PLACEMENT_3D('',#278,#224,#225);
#197=AXIS2_PLACEMENT_3D('',#279,#226,#227);
#198=AXIS2_PLACEMENT_3D('',#280,#228,#229);
#199=AXIS2_PLACEMENT_3D('',#284,#232,#233);
#200=AXIS2_PLACEMENT_3D('',#288,#236,#237);
#201=AXIS2_PLACEMENT_3D('',#292,#240,#241);
#202=AXIS2_PLACEMENT_3D('',#296,#244,#245);
#203=AXIS2_PLACEMENT_3D('',#302,#249,#250);
#204=AXIS2_PLACEMENT_3D('',#306,#253,#254);
#205=AXIS2_PLACEMENT_3D('',#310,#257,#258);
#206=AXIS2_PLACEMENT_3D('',#312,#260,#261);
#207=DIRECTION('axis',(0.,0.,1.));
#208=DIRECTION('refdir',(1.,0.,0.));
#209=DIRECTION('center_axis',(0.,0.,1.));
#210=DIRECTION('ref_axis',(1.,0.,0.));
#211=DIRECTION('center_axis',(0.,0.,1.));
#212=DIRECTION('ref_axis',(-1.,0.,0.));
#213=DIRECTION('center_axis',(0.,-1.,0.));
#214=DIRECTION('ref_axis',(-1.,0.,0.));
#215=DIRECTION('center_axis',(0.,0.,1.));
#216=DIRECTION('ref_axis',(-1.,0.,0.));
#217=DIRECTION('center_axis',(0.,0.,-1.));
#218=DIRECTION('ref_axis',(-1.,0.,0.));
#219=DIRECTION('',(0.,0.,-1.));
#220=DIRECTION('center_axis',(0.,0.,1.));
#221=DIRECTION('ref_axis',(-1.,0.,0.));
#222=DIRECTION('center_axis',(0.,0.,1.));
#223=DIRECTION('ref_axis',(-1.,0.,0.));
#224=DIRECTION('center_axis',(0.,0.,1.));
#225=DIRECTION('ref_axis',(-1.,0.,0.));
#226=DIRECTION('center_axis',(0.,0.,1.));
#227=DIRECTION('ref_axis',(-1.,0.,0.));
#228=DIRECTION('center_axis',(0.,0.,1.));
#229=DIRECTION('ref_axis',(1.,0.,0.));
#230=DIRECTION('',(0.,1.,0.));
#231=DIRECTION('',(-1.,0.,0.));
#232=DIRECTION('center_axis',(0.,0.,1.));
#233=DIRECTION('ref_axis',(1.,0.,0.));
#234=DIRECTION('',(1.,0.,0.));
#235=DIRECTION('',(0.,1.,0.));
#236=DIRECTION('center_axis',(0.,0.,1.));
#237=DIRECTION('ref_axis',(1.,0.,0.));
#238=DIRECTION('',(0.,-1.,0.));
#239=DIRECTION('',(1.,0.,0.));
#240=DIRECTION('center_axis',(0.,0.,1.));
#241=DIRECTION('ref_axis',(1.,0.,0.));
#242=DIRECTION('',(-1.,0.,0.));
#243=DIRECTION('',(0.,-1.,0.));
#244=DIRECTION('center_axis',(0.,-1.,0.));
#245=DIRECTION('ref_axis',(0.,0.,-1.));
#246=DIRECTION('',(0.,0.,1.));
#247=DIRECTION('',(1.,0.,0.));
#248=DIRECTION('',(0.,0.,1.));
#249=DIRECTION('center_axis',(-1.,0.,0.));
#250=DIRECTION('ref_axis',(0.,-1.,0.));
#251=DIRECTION('',(0.,0.,1.));
#252=DIRECTION('',(0.,-1.,0.));
#253=DIRECTION('center_axis',(1.,0.,0.));
#254=DIRECTION('ref_axis',(0.,1.,0.));
#255=DIRECTION('',(0.,1.,0.));
#256=DIRECTION('',(0.,0.,1.));
#257=DIRECTION('center_axis',(0.,1.,0.));
#258=DIRECTION('ref_axis',(0.,0.,1.));
#259=DIRECTION('',(-1.,0.,0.));
#260=DIRECTION('center_axis',(0.,0.,-1.));
#261=DIRECTION('ref_axis',(-1.,0.,0.));
#262=CARTESIAN_POINT('',(0.,0.,0.));
#263=CARTESIAN_POINT('Origin',(95.1107749184251,-67.513556221251,6.742));
#264=CARTESIAN_POINT('',(96.1607749184251,-67.513556221251,6.742));
#265=CARTESIAN_POINT('',(94.0607749184251,-67.513556221251,6.742));
#266=CARTESIAN_POINT('Origin',(95.1107749184251,-67.513556221251,6.742));
#267=CARTESIAN_POINT('',(95.1107749184251,-67.513556221251,7.79200000000001));
#268=CARTESIAN_POINT('Origin',(95.1107749184251,-67.513556221251,6.742));
#269=CARTESIAN_POINT('Origin',(95.1107749184251,-67.513556221251,6.742));
#270=CARTESIAN_POINT('Origin',(95.1107749184251,-67.513556221251,7.792));
#271=CARTESIAN_POINT('',(96.1607749184251,-67.513556221251,4.192));
#272=CARTESIAN_POINT('',(96.1607749184251,-67.513556221251,7.792));
#273=CARTESIAN_POINT('',(95.1107749184251,-66.463556221251,4.192));
#274=CARTESIAN_POINT('Origin',(95.1107749184251,-67.513556221251,4.192));
#275=CARTESIAN_POINT('',(94.0607749184251,-67.513556221251,4.192));
#276=CARTESIAN_POINT('Origin',(95.1107749184251,-67.513556221251,4.192));
#277=CARTESIAN_POINT('',(95.1107749184251,-68.563556221251,4.192));
#278=CARTESIAN_POINT('Origin',(95.1107749184251,-67.513556221251,4.192));
#279=CARTESIAN_POINT('Origin',(95.1107749184251,-67.513556221251,4.192));
#280=CARTESIAN_POINT('Origin',(95.1107749184251,-68.463556221251,4.192));
#281=CARTESIAN_POINT('',(96.1607749184251,-66.463556221251,4.192));
#282=CARTESIAN_POINT('',(96.1607749184251,-68.563556221251,4.192));
#283=CARTESIAN_POINT('',(96.1607749184251,-66.463556221251,4.192));
#284=CARTESIAN_POINT('Origin',(95.1107749184251,-68.463556221251,4.192));
#285=CARTESIAN_POINT('',(96.1607749184251,-68.563556221251,4.192));
#286=CARTESIAN_POINT('',(94.0607749184251,-68.563556221251,4.192));
#287=CARTESIAN_POINT('',(96.1607749184251,-68.563556221251,4.192));
#288=CARTESIAN_POINT('Origin',(95.1107749184251,-68.463556221251,4.192));
#289=CARTESIAN_POINT('',(94.0607749184251,-68.563556221251,4.192));
#290=CARTESIAN_POINT('',(94.0607749184251,-66.463556221251,4.192));
#291=CARTESIAN_POINT('',(94.0607749184251,-68.563556221251,4.192));
#292=CARTESIAN_POINT('Origin',(95.1107749184251,-68.463556221251,4.192));
#293=CARTESIAN_POINT('',(94.0607749184251,-66.463556221251,4.192));
#294=CARTESIAN_POINT('',(96.1607749184251,-66.463556221251,4.192));
#295=CARTESIAN_POINT('',(94.0607749184251,-66.463556221251,4.192));
#296=CARTESIAN_POINT('Origin',(94.4107749184251,-68.563556221251,4.792));
#297=CARTESIAN_POINT('',(94.0607749184251,-68.563556221251,2.192));
#298=CARTESIAN_POINT('',(94.0607749184251,-68.563556221251,2.192));
#299=CARTESIAN_POINT('',(96.1607749184251,-68.563556221251,2.192));
#300=CARTESIAN_POINT('',(94.0607749184251,-68.563556221251,2.192));
#301=CARTESIAN_POINT('',(96.1607749184251,-68.563556221251,2.192));
#302=CARTESIAN_POINT('Origin',(94.0607749184251,-66.463556221251,2.192));
#303=CARTESIAN_POINT('',(94.0607749184251,-66.463556221251,2.192));
#304=CARTESIAN_POINT('',(94.0607749184251,-66.463556221251,2.192));
#305=CARTESIAN_POINT('',(94.0607749184251,-66.463556221251,2.192));
#306=CARTESIAN_POINT('Origin',(96.1607749184251,-68.563556221251,2.192));
#307=CARTESIAN_POINT('',(96.1607749184251,-66.463556221251,2.192));
#308=CARTESIAN_POINT('',(96.1607749184251,-68.563556221251,2.192));
#309=CARTESIAN_POINT('',(96.1607749184251,-66.463556221251,6.792));
#310=CARTESIAN_POINT('Origin',(95.8107749184251,-66.463556221251,4.792));
#311=CARTESIAN_POINT('',(96.1607749184251,-66.463556221251,2.192));
#312=CARTESIAN_POINT('Origin',(95.1107749184251,-68.463556221251,2.192));
#313=UNCERTAINTY_MEASURE_WITH_UNIT(LENGTH_MEASURE(0.01),#317,
'DISTANCE_ACCURACY_VALUE',
'Maximum model space distance between geometric entities at asserted c
onnectivities');
#314=UNCERTAINTY_MEASURE_WITH_UNIT(LENGTH_MEASURE(0.01),#317,
'DISTANCE_ACCURACY_VALUE',
'Maximum model space distance between geometric entities at asserted c
onnectivities');
#315=(
GEOMETRIC_REPRESENTATION_CONTEXT(3)
GLOBAL_UNCERTAINTY_ASSIGNED_CONTEXT((#313))
GLOBAL_UNIT_ASSIGNED_CONTEXT((#317,#318,#319))
REPRESENTATION_CONTEXT('','3D')
);
#316=(
GEOMETRIC_REPRESENTATION_CONTEXT(3)
GLOBAL_UNCERTAINTY_ASSIGNED_CONTEXT((#314))
GLOBAL_UNIT_ASSIGNED_CONTEXT((#317,#318,#319))
REPRESENTATION_CONTEXT('','3D')
);
#317=(
LENGTH_UNIT()
NAMED_UNIT(*)
SI_UNIT(.MILLI.,.METRE.)
);
#318=(
NAMED_UNIT(*)
PLANE_ANGLE_UNIT()
SI_UNIT($,.RADIAN.)
);
#319=(
NAMED_UNIT(*)
SI_UNIT($,.STERADIAN.)
SOLID_ANGLE_UNIT()
);
#320=SHAPE_DEFINITION_REPRESENTATION(#321,#322);
#321=PRODUCT_DEFINITION_SHAPE('',$,#324);
#322=SHAPE_REPRESENTATION('',(#188),#315);
#323=PRODUCT_DEFINITION_CONTEXT('part definition',#328,'design');
#324=PRODUCT_DEFINITION('cornix-tb','cornix-tb',#325,#323);
#325=PRODUCT_DEFINITION_FORMATION('',$,#330);
#326=PRODUCT_RELATED_PRODUCT_CATEGORY('cornix-tb','cornix-tb',(#330));
#327=APPLICATION_PROTOCOL_DEFINITION('international standard',
'automotive_design',2009,#328);
#328=APPLICATION_CONTEXT(
'Core Data for Automotive Mechanical Design Process');
#329=PRODUCT_CONTEXT('part definition',#328,'mechanical');
#330=PRODUCT('cornix-tb','cornix-tb','FreeCAD Model',(#329));
#331=PRESENTATION_STYLE_ASSIGNMENT((#332));
#332=SURFACE_STYLE_USAGE(.BOTH.,#333);
#333=SURFACE_SIDE_STYLE('',(#334));
#334=SURFACE_STYLE_FILL_AREA(#335);
#335=FILL_AREA_STYLE('\X2\92FC\X0\ - \X2\30B530C630F3\X0\',(#336));
#336=FILL_AREA_STYLE_COLOUR('\X2\92FC\X0\ - \X2\30B530C630F3\X0\',#337);
#337=COLOUR_RGB('\X2\92FC\X0\ - \X2\30B530C630F3\X0\',0.627450980392157,
0.627450980392157,0.627450980392157);
ENDSEC;
END-ISO-10303-21;
