ISO-10303-21;
HEADER;
/* Generated by software containing ST-Developer
 * from STEP Tools, Inc. (www.steptools.com) 
 */

FILE_DESCRIPTION(
/* description */ ('FreeCAD Model'),
/* implementation_level */ '2;1');

FILE_NAME(
/* name */ 'cornix-tb_switch_pack.step',
/* time_stamp */ '2025-12-15T11:12:18+09:00',
/* author */ (''),
/* organization */ (''),
/* preprocessor_version */ 'ST-DEVELOPER v20.1',
/* originating_system */ 'Autodesk Translation Framework v14.21.0.0',
/* authorisation */ '');

FILE_SCHEMA (('AUTOMOTIVE_DESIGN { 1 0 10303 214 3 1 1 }'));
ENDSEC;

DATA;
#10=MECHANICAL_DESIGN_GEOMETRIC_PRESENTATION_REPRESENTATION('',(#13),#1244);
#11=SHAPE_REPRESENTATION_RELATIONSHIP('SRR','None',#1250,#12);
#12=ADVANCED_BREP_SHAPE_REPRESENTATION('',(#14),#1243);
#13=STYLED_ITEM('',(#1259),#14);
#14=MANIFOLD_SOLID_BREP('\X2\30B930A430C330C130BB30C330C8\X0\',#759);
#15=SPHERICAL_SURFACE('',#802,1.05);
#16=FACE_BOUND('',#106,.T.);
#17=FACE_BOUND('',#107,.T.);
#18=FACE_BOUND('',#125,.T.);
#19=CYLINDRICAL_SURFACE('',#772,0.5);
#20=CYLINDRICAL_SURFACE('',#778,0.5);
#21=CYLINDRICAL_SURFACE('',#780,1.4);
#22=CYLINDRICAL_SURFACE('',#784,1.4);
#23=CYLINDRICAL_SURFACE('',#806,1.05);
#24=CIRCLE('',#768,0.5);
#25=CIRCLE('',#769,0.9);
#26=CIRCLE('',#770,0.500000000000007);
#27=CIRCLE('',#771,1.4);
#28=CIRCLE('',#773,0.500000000000007);
#29=CIRCLE('',#775,0.500000000000007);
#30=CIRCLE('',#776,1.4);
#31=CIRCLE('',#777,0.9);
#32=CIRCLE('',#781,1.4);
#33=CIRCLE('',#785,1.4);
#34=CIRCLE('',#803,1.05);
#35=CIRCLE('',#804,1.05);
#36=CIRCLE('',#805,1.05);
#37=CIRCLE('',#807,1.05);
#38=CIRCLE('',#808,1.05);
#39=CIRCLE('',#809,1.05);
#40=CIRCLE('',#810,1.05);
#41=TOROIDAL_SURFACE('',#767,0.9,0.5);
#42=TOROIDAL_SURFACE('',#774,0.9,0.5);
#43=FACE_OUTER_BOUND('',#85,.T.);
#44=FACE_OUTER_BOUND('',#86,.T.);
#45=FACE_OUTER_BOUND('',#87,.T.);
#46=FACE_OUTER_BOUND('',#88,.T.);
#47=FACE_OUTER_BOUND('',#89,.T.);
#48=FACE_OUTER_BOUND('',#90,.T.);
#49=FACE_OUTER_BOUND('',#91,.T.);
#50=FACE_OUTER_BOUND('',#92,.T.);
#51=FACE_OUTER_BOUND('',#93,.T.);
#52=FACE_OUTER_BOUND('',#94,.T.);
#53=FACE_OUTER_BOUND('',#95,.T.);
#54=FACE_OUTER_BOUND('',#96,.T.);
#55=FACE_OUTER_BOUND('',#97,.T.);
#56=FACE_OUTER_BOUND('',#98,.T.);
#57=FACE_OUTER_BOUND('',#99,.T.);
#58=FACE_OUTER_BOUND('',#100,.T.);
#59=FACE_OUTER_BOUND('',#101,.T.);
#60=FACE_OUTER_BOUND('',#102,.T.);
#61=FACE_OUTER_BOUND('',#103,.T.);
#62=FACE_OUTER_BOUND('',#104,.T.);
#63=FACE_OUTER_BOUND('',#105,.T.);
#64=FACE_OUTER_BOUND('',#108,.T.);
#65=FACE_OUTER_BOUND('',#109,.T.);
#66=FACE_OUTER_BOUND('',#110,.T.);
#67=FACE_OUTER_BOUND('',#111,.T.);
#68=FACE_OUTER_BOUND('',#112,.T.);
#69=FACE_OUTER_BOUND('',#113,.T.);
#70=FACE_OUTER_BOUND('',#114,.T.);
#71=FACE_OUTER_BOUND('',#115,.T.);
#72=FACE_OUTER_BOUND('',#116,.T.);
#73=FACE_OUTER_BOUND('',#117,.T.);
#74=FACE_OUTER_BOUND('',#118,.T.);
#75=FACE_OUTER_BOUND('',#119,.T.);
#76=FACE_OUTER_BOUND('',#120,.T.);
#77=FACE_OUTER_BOUND('',#121,.T.);
#78=FACE_OUTER_BOUND('',#122,.T.);
#79=FACE_OUTER_BOUND('',#123,.T.);
#80=FACE_OUTER_BOUND('',#124,.T.);
#81=FACE_OUTER_BOUND('',#126,.T.);
#82=FACE_OUTER_BOUND('',#127,.T.);
#83=FACE_OUTER_BOUND('',#128,.T.);
#84=FACE_OUTER_BOUND('',#129,.T.);
#85=EDGE_LOOP('',(#475,#476,#477,#478));
#86=EDGE_LOOP('',(#479,#480,#481,#482));
#87=EDGE_LOOP('',(#483,#484,#485,#486,#487,#488,#489,#490));
#88=EDGE_LOOP('',(#491,#492,#493,#494));
#89=EDGE_LOOP('',(#495,#496,#497,#498,#499,#500,#501,#502));
#90=EDGE_LOOP('',(#503,#504,#505,#506));
#91=EDGE_LOOP('',(#507,#508,#509,#510));
#92=EDGE_LOOP('',(#511,#512,#513,#514));
#93=EDGE_LOOP('',(#515,#516,#517,#518));
#94=EDGE_LOOP('',(#519,#520,#521,#522));
#95=EDGE_LOOP('',(#523,#524,#525,#526,#527,#528,#529,#530));
#96=EDGE_LOOP('',(#531,#532,#533,#534));
#97=EDGE_LOOP('',(#535,#536,#537,#538));
#98=EDGE_LOOP('',(#539,#540,#541,#542,#543,#544,#545,#546));
#99=EDGE_LOOP('',(#547,#548,#549,#550));
#100=EDGE_LOOP('',(#551,#552,#553,#554));
#101=EDGE_LOOP('',(#555,#556,#557,#558));
#102=EDGE_LOOP('',(#559,#560,#561,#562));
#103=EDGE_LOOP('',(#563,#564,#565,#566));
#104=EDGE_LOOP('',(#567,#568,#569,#570));
#105=EDGE_LOOP('',(#571,#572,#573,#574));
#106=EDGE_LOOP('',(#575,#576,#577,#578));
#107=EDGE_LOOP('',(#579,#580,#581,#582));
#108=EDGE_LOOP('',(#583,#584,#585,#586));
#109=EDGE_LOOP('',(#587,#588,#589,#590));
#110=EDGE_LOOP('',(#591,#592,#593,#594));
#111=EDGE_LOOP('',(#595,#596,#597,#598));
#112=EDGE_LOOP('',(#599,#600,#601,#602,#603,#604,#605,#606));
#113=EDGE_LOOP('',(#607,#608,#609,#610));
#114=EDGE_LOOP('',(#611,#612,#613,#614));
#115=EDGE_LOOP('',(#615,#616,#617,#618));
#116=EDGE_LOOP('',(#619,#620,#621,#622,#623,#624,#625,#626));
#117=EDGE_LOOP('',(#627,#628,#629,#630));
#118=EDGE_LOOP('',(#631,#632,#633,#634));
#119=EDGE_LOOP('',(#635,#636,#637,#638,#639,#640,#641,#642));
#120=EDGE_LOOP('',(#643,#644,#645));
#121=EDGE_LOOP('',(#646,#647,#648));
#122=EDGE_LOOP('',(#649,#650,#651));
#123=EDGE_LOOP('',(#652,#653,#654));
#124=EDGE_LOOP('',(#655,#656,#657,#658,#659));
#125=EDGE_LOOP('',(#660,#661,#662,#663));
#126=EDGE_LOOP('',(#664,#665,#666,#667,#668));
#127=EDGE_LOOP('',(#669,#670,#671,#672,#673));
#128=EDGE_LOOP('',(#674,#675,#676,#677,#678));
#129=EDGE_LOOP('',(#679,#680,#681,#682));
#130=LINE('',#1031,#217);
#131=LINE('',#1033,#218);
#132=LINE('',#1035,#219);
#133=LINE('',#1036,#220);
#134=LINE('',#1040,#221);
#135=LINE('',#1042,#222);
#136=LINE('',#1044,#223);
#137=LINE('',#1045,#224);
#138=LINE('',#1048,#225);
#139=LINE('',#1050,#226);
#140=LINE('',#1052,#227);
#141=LINE('',#1053,#228);
#142=LINE('',#1055,#229);
#143=LINE('',#1056,#230);
#144=LINE('',#1059,#231);
#145=LINE('',#1060,#232);
#146=LINE('',#1063,#233);
#147=LINE('',#1064,#234);
#148=LINE('',#1066,#235);
#149=LINE('',#1068,#236);
#150=LINE('',#1069,#237);
#151=LINE('',#1071,#238);
#152=LINE('',#1085,#239);
#153=LINE('',#1086,#240);
#154=LINE('',#1094,#241);
#155=LINE('',#1095,#242);
#156=LINE('',#1098,#243);
#157=LINE('',#1100,#244);
#158=LINE('',#1102,#245);
#159=LINE('',#1104,#246);
#160=LINE('',#1106,#247);
#161=LINE('',#1108,#248);
#162=LINE('',#1109,#249);
#163=LINE('',#1112,#250);
#164=LINE('',#1117,#251);
#165=LINE('',#1119,#252);
#166=LINE('',#1121,#253);
#167=LINE('',#1123,#254);
#168=LINE('',#1125,#255);
#169=LINE('',#1126,#256);
#170=LINE('',#1132,#257);
#171=LINE('',#1134,#258);
#172=LINE('',#1136,#259);
#173=LINE('',#1137,#260);
#174=LINE('',#1139,#261);
#175=LINE('',#1141,#262);
#176=LINE('',#1143,#263);
#177=LINE('',#1145,#264);
#178=LINE('',#1149,#265);
#179=LINE('',#1151,#266);
#180=LINE('',#1153,#267);
#181=LINE('',#1154,#268);
#182=LINE('',#1156,#269);
#183=LINE('',#1157,#270);
#184=LINE('',#1159,#271);
#185=LINE('',#1161,#272);
#186=LINE('',#1165,#273);
#187=LINE('',#1167,#274);
#188=LINE('',#1169,#275);
#189=LINE('',#1171,#276);
#190=LINE('',#1172,#277);
#191=LINE('',#1175,#278);
#192=LINE('',#1176,#279);
#193=LINE('',#1179,#280);
#194=LINE('',#1180,#281);
#195=LINE('',#1183,#282);
#196=LINE('',#1184,#283);
#197=LINE('',#1187,#284);
#198=LINE('',#1188,#285);
#199=LINE('',#1190,#286);
#200=LINE('',#1200,#287);
#201=LINE('',#1210,#288);
#202=LINE('',#1211,#289);
#203=LINE('',#1214,#290);
#204=LINE('',#1215,#291);
#205=LINE('',#1218,#292);
#206=LINE('',#1219,#293);
#207=LINE('',#1222,#294);
#208=LINE('',#1223,#295);
#209=LINE('',#1226,#296);
#210=LINE('',#1228,#297);
#211=LINE('',#1229,#298);
#212=LINE('',#1232,#299);
#213=LINE('',#1233,#300);
#214=LINE('',#1236,#301);
#215=LINE('',#1237,#302);
#216=LINE('',#1239,#303);
#217=VECTOR('',#824,10.);
#218=VECTOR('',#825,10.);
#219=VECTOR('',#826,10.);
#220=VECTOR('',#827,10.);
#221=VECTOR('',#830,10.);
#222=VECTOR('',#831,10.);
#223=VECTOR('',#832,10.);
#224=VECTOR('',#833,10.);
#225=VECTOR('',#836,10.);
#226=VECTOR('',#837,10.);
#227=VECTOR('',#838,10.);
#228=VECTOR('',#839,10.);
#229=VECTOR('',#840,10.);
#230=VECTOR('',#841,10.);
#231=VECTOR('',#844,10.);
#232=VECTOR('',#845,10.);
#233=VECTOR('',#848,10.);
#234=VECTOR('',#849,10.);
#235=VECTOR('',#850,10.);
#236=VECTOR('',#851,10.);
#237=VECTOR('',#852,10.);
#238=VECTOR('',#855,10.);
#239=VECTOR('',#870,10.);
#240=VECTOR('',#871,10.);
#241=VECTOR('',#882,10.);
#242=VECTOR('',#883,10.);
#243=VECTOR('',#886,10.);
#244=VECTOR('',#887,10.);
#245=VECTOR('',#888,10.);
#246=VECTOR('',#889,10.);
#247=VECTOR('',#890,10.);
#248=VECTOR('',#891,10.);
#249=VECTOR('',#892,10.);
#250=VECTOR('',#895,10.);
#251=VECTOR('',#902,10.);
#252=VECTOR('',#903,10.);
#253=VECTOR('',#904,10.);
#254=VECTOR('',#905,10.);
#255=VECTOR('',#906,10.);
#256=VECTOR('',#907,10.);
#257=VECTOR('',#914,10.);
#258=VECTOR('',#915,10.);
#259=VECTOR('',#916,10.);
#260=VECTOR('',#917,10.);
#261=VECTOR('',#920,10.);
#262=VECTOR('',#923,10.);
#263=VECTOR('',#926,10.);
#264=VECTOR('',#929,10.);
#265=VECTOR('',#932,10.);
#266=VECTOR('',#933,10.);
#267=VECTOR('',#934,10.);
#268=VECTOR('',#935,10.);
#269=VECTOR('',#938,10.);
#270=VECTOR('',#939,10.);
#271=VECTOR('',#942,10.);
#272=VECTOR('',#945,10.);
#273=VECTOR('',#950,10.);
#274=VECTOR('',#951,10.);
#275=VECTOR('',#952,10.);
#276=VECTOR('',#953,10.);
#277=VECTOR('',#954,10.);
#278=VECTOR('',#957,10.);
#279=VECTOR('',#958,10.);
#280=VECTOR('',#961,10.);
#281=VECTOR('',#962,10.);
#282=VECTOR('',#965,10.);
#283=VECTOR('',#966,10.);
#284=VECTOR('',#969,10.);
#285=VECTOR('',#970,10.);
#286=VECTOR('',#973,10.);
#287=VECTOR('',#984,1.05);
#288=VECTOR('',#995,10.);
#289=VECTOR('',#996,10.);
#290=VECTOR('',#999,10.);
#291=VECTOR('',#1000,10.);
#292=VECTOR('',#1003,10.);
#293=VECTOR('',#1004,10.);
#294=VECTOR('',#1007,10.);
#295=VECTOR('',#1008,10.);
#296=VECTOR('',#1011,10.);
#297=VECTOR('',#1012,10.);
#298=VECTOR('',#1013,10.);
#299=VECTOR('',#1016,10.);
#300=VECTOR('',#1017,10.);
#301=VECTOR('',#1020,10.);
#302=VECTOR('',#1021,10.);
#303=VECTOR('',#1024,10.);
#304=VERTEX_POINT('',#1029);
#305=VERTEX_POINT('',#1030);
#306=VERTEX_POINT('',#1032);
#307=VERTEX_POINT('',#1034);
#308=VERTEX_POINT('',#1038);
#309=VERTEX_POINT('',#1039);
#310=VERTEX_POINT('',#1041);
#311=VERTEX_POINT('',#1043);
#312=VERTEX_POINT('',#1047);
#313=VERTEX_POINT('',#1049);
#314=VERTEX_POINT('',#1051);
#315=VERTEX_POINT('',#1054);
#316=VERTEX_POINT('',#1058);
#317=VERTEX_POINT('',#1062);
#318=VERTEX_POINT('',#1065);
#319=VERTEX_POINT('',#1067);
#320=VERTEX_POINT('',#1073);
#321=VERTEX_POINT('',#1074);
#322=VERTEX_POINT('',#1076);
#323=VERTEX_POINT('',#1078);
#324=VERTEX_POINT('',#1082);
#325=VERTEX_POINT('',#1083);
#326=VERTEX_POINT('',#1088);
#327=VERTEX_POINT('',#1089);
#328=VERTEX_POINT('',#1097);
#329=VERTEX_POINT('',#1099);
#330=VERTEX_POINT('',#1101);
#331=VERTEX_POINT('',#1103);
#332=VERTEX_POINT('',#1105);
#333=VERTEX_POINT('',#1107);
#334=VERTEX_POINT('',#1111);
#335=VERTEX_POINT('',#1116);
#336=VERTEX_POINT('',#1118);
#337=VERTEX_POINT('',#1120);
#338=VERTEX_POINT('',#1122);
#339=VERTEX_POINT('',#1124);
#340=VERTEX_POINT('',#1130);
#341=VERTEX_POINT('',#1131);
#342=VERTEX_POINT('',#1133);
#343=VERTEX_POINT('',#1135);
#344=VERTEX_POINT('',#1147);
#345=VERTEX_POINT('',#1148);
#346=VERTEX_POINT('',#1150);
#347=VERTEX_POINT('',#1152);
#348=VERTEX_POINT('',#1164);
#349=VERTEX_POINT('',#1166);
#350=VERTEX_POINT('',#1168);
#351=VERTEX_POINT('',#1170);
#352=VERTEX_POINT('',#1174);
#353=VERTEX_POINT('',#1178);
#354=VERTEX_POINT('',#1182);
#355=VERTEX_POINT('',#1186);
#356=VERTEX_POINT('',#1192);
#357=VERTEX_POINT('',#1193);
#358=VERTEX_POINT('',#1195);
#359=VERTEX_POINT('',#1199);
#360=VERTEX_POINT('',#1201);
#361=VERTEX_POINT('',#1203);
#362=VERTEX_POINT('',#1205);
#363=VERTEX_POINT('',#1209);
#364=VERTEX_POINT('',#1213);
#365=VERTEX_POINT('',#1217);
#366=VERTEX_POINT('',#1221);
#367=VERTEX_POINT('',#1225);
#368=VERTEX_POINT('',#1227);
#369=VERTEX_POINT('',#1231);
#370=VERTEX_POINT('',#1235);
#371=EDGE_CURVE('',#304,#305,#130,.T.);
#372=EDGE_CURVE('',#305,#306,#131,.T.);
#373=EDGE_CURVE('',#307,#306,#132,.T.);
#374=EDGE_CURVE('',#304,#307,#133,.T.);
#375=EDGE_CURVE('',#308,#309,#134,.T.);
#376=EDGE_CURVE('',#309,#310,#135,.T.);
#377=EDGE_CURVE('',#310,#311,#136,.T.);
#378=EDGE_CURVE('',#311,#308,#137,.T.);
#379=EDGE_CURVE('',#311,#312,#138,.T.);
#380=EDGE_CURVE('',#313,#312,#139,.T.);
#381=EDGE_CURVE('',#314,#313,#140,.T.);
#382=EDGE_CURVE('',#314,#304,#141,.T.);
#383=EDGE_CURVE('',#315,#307,#142,.T.);
#384=EDGE_CURVE('',#308,#315,#143,.T.);
#385=EDGE_CURVE('',#316,#312,#144,.T.);
#386=EDGE_CURVE('',#310,#316,#145,.T.);
#387=EDGE_CURVE('',#309,#317,#146,.T.);
#388=EDGE_CURVE('',#306,#317,#147,.T.);
#389=EDGE_CURVE('',#318,#305,#148,.T.);
#390=EDGE_CURVE('',#319,#318,#149,.T.);
#391=EDGE_CURVE('',#319,#316,#150,.T.);
#392=EDGE_CURVE('',#317,#315,#151,.T.);
#393=EDGE_CURVE('',#320,#321,#24,.T.);
#394=EDGE_CURVE('',#321,#322,#25,.T.);
#395=EDGE_CURVE('',#322,#323,#26,.T.);
#396=EDGE_CURVE('',#323,#320,#27,.T.);
#397=EDGE_CURVE('',#324,#325,#28,.T.);
#398=EDGE_CURVE('',#325,#323,#152,.T.);
#399=EDGE_CURVE('',#322,#324,#153,.T.);
#400=EDGE_CURVE('',#326,#327,#29,.T.);
#401=EDGE_CURVE('',#327,#325,#30,.T.);
#402=EDGE_CURVE('',#324,#326,#31,.T.);
#403=EDGE_CURVE('',#320,#327,#154,.T.);
#404=EDGE_CURVE('',#326,#321,#155,.T.);
#405=EDGE_CURVE('',#328,#320,#156,.T.);
#406=EDGE_CURVE('',#329,#328,#157,.T.);
#407=EDGE_CURVE('',#330,#329,#158,.T.);
#408=EDGE_CURVE('',#330,#331,#159,.T.);
#409=EDGE_CURVE('',#331,#332,#160,.T.);
#410=EDGE_CURVE('',#333,#332,#161,.T.);
#411=EDGE_CURVE('',#327,#333,#162,.T.);
#412=EDGE_CURVE('',#323,#334,#163,.T.);
#413=EDGE_CURVE('',#334,#328,#32,.T.);
#414=EDGE_CURVE('',#335,#325,#164,.T.);
#415=EDGE_CURVE('',#336,#335,#165,.T.);
#416=EDGE_CURVE('',#337,#336,#166,.T.);
#417=EDGE_CURVE('',#337,#338,#167,.T.);
#418=EDGE_CURVE('',#338,#339,#168,.T.);
#419=EDGE_CURVE('',#334,#339,#169,.T.);
#420=EDGE_CURVE('',#333,#335,#33,.T.);
#421=EDGE_CURVE('',#340,#341,#170,.T.);
#422=EDGE_CURVE('',#342,#340,#171,.T.);
#423=EDGE_CURVE('',#343,#342,#172,.T.);
#424=EDGE_CURVE('',#341,#343,#173,.T.);
#425=EDGE_CURVE('',#339,#329,#174,.T.);
#426=EDGE_CURVE('',#332,#336,#175,.T.);
#427=EDGE_CURVE('',#330,#338,#176,.T.);
#428=EDGE_CURVE('',#331,#337,#177,.T.);
#429=EDGE_CURVE('',#344,#345,#178,.T.);
#430=EDGE_CURVE('',#345,#346,#179,.T.);
#431=EDGE_CURVE('',#346,#347,#180,.T.);
#432=EDGE_CURVE('',#347,#344,#181,.T.);
#433=EDGE_CURVE('',#343,#347,#182,.T.);
#434=EDGE_CURVE('',#342,#344,#183,.T.);
#435=EDGE_CURVE('',#345,#340,#184,.T.);
#436=EDGE_CURVE('',#346,#341,#185,.T.);
#437=EDGE_CURVE('',#348,#314,#186,.T.);
#438=EDGE_CURVE('',#349,#348,#187,.T.);
#439=EDGE_CURVE('',#349,#350,#188,.T.);
#440=EDGE_CURVE('',#351,#350,#189,.T.);
#441=EDGE_CURVE('',#318,#351,#190,.T.);
#442=EDGE_CURVE('',#352,#313,#191,.T.);
#443=EDGE_CURVE('',#348,#352,#192,.T.);
#444=EDGE_CURVE('',#352,#353,#193,.T.);
#445=EDGE_CURVE('',#353,#349,#194,.T.);
#446=EDGE_CURVE('',#353,#354,#195,.T.);
#447=EDGE_CURVE('',#350,#354,#196,.T.);
#448=EDGE_CURVE('',#319,#355,#197,.T.);
#449=EDGE_CURVE('',#354,#355,#198,.T.);
#450=EDGE_CURVE('',#355,#351,#199,.T.);
#451=EDGE_CURVE('',#356,#357,#34,.T.);
#452=EDGE_CURVE('',#358,#357,#35,.T.);
#453=EDGE_CURVE('',#357,#356,#36,.T.);
#454=EDGE_CURVE('',#356,#359,#200,.T.);
#455=EDGE_CURVE('',#359,#360,#37,.T.);
#456=EDGE_CURVE('',#360,#361,#38,.T.);
#457=EDGE_CURVE('',#361,#362,#39,.T.);
#458=EDGE_CURVE('',#362,#359,#40,.T.);
#459=EDGE_CURVE('',#359,#363,#201,.T.);
#460=EDGE_CURVE('',#363,#360,#202,.T.);
#461=EDGE_CURVE('',#362,#364,#203,.T.);
#462=EDGE_CURVE('',#364,#359,#204,.T.);
#463=EDGE_CURVE('',#361,#365,#205,.T.);
#464=EDGE_CURVE('',#365,#362,#206,.T.);
#465=EDGE_CURVE('',#360,#366,#207,.T.);
#466=EDGE_CURVE('',#366,#361,#208,.T.);
#467=EDGE_CURVE('',#367,#365,#209,.T.);
#468=EDGE_CURVE('',#367,#368,#210,.T.);
#469=EDGE_CURVE('',#368,#364,#211,.T.);
#470=EDGE_CURVE('',#369,#366,#212,.T.);
#471=EDGE_CURVE('',#369,#367,#213,.T.);
#472=EDGE_CURVE('',#368,#370,#214,.T.);
#473=EDGE_CURVE('',#370,#363,#215,.T.);
#474=EDGE_CURVE('',#370,#369,#216,.T.);
#475=ORIENTED_EDGE('',*,*,#371,.T.);
#476=ORIENTED_EDGE('',*,*,#372,.T.);
#477=ORIENTED_EDGE('',*,*,#373,.F.);
#478=ORIENTED_EDGE('',*,*,#374,.F.);
#479=ORIENTED_EDGE('',*,*,#375,.T.);
#480=ORIENTED_EDGE('',*,*,#376,.T.);
#481=ORIENTED_EDGE('',*,*,#377,.T.);
#482=ORIENTED_EDGE('',*,*,#378,.T.);
#483=ORIENTED_EDGE('',*,*,#379,.T.);
#484=ORIENTED_EDGE('',*,*,#380,.F.);
#485=ORIENTED_EDGE('',*,*,#381,.F.);
#486=ORIENTED_EDGE('',*,*,#382,.T.);
#487=ORIENTED_EDGE('',*,*,#374,.T.);
#488=ORIENTED_EDGE('',*,*,#383,.F.);
#489=ORIENTED_EDGE('',*,*,#384,.F.);
#490=ORIENTED_EDGE('',*,*,#378,.F.);
#491=ORIENTED_EDGE('',*,*,#385,.T.);
#492=ORIENTED_EDGE('',*,*,#379,.F.);
#493=ORIENTED_EDGE('',*,*,#377,.F.);
#494=ORIENTED_EDGE('',*,*,#386,.T.);
#495=ORIENTED_EDGE('',*,*,#387,.T.);
#496=ORIENTED_EDGE('',*,*,#388,.F.);
#497=ORIENTED_EDGE('',*,*,#372,.F.);
#498=ORIENTED_EDGE('',*,*,#389,.F.);
#499=ORIENTED_EDGE('',*,*,#390,.F.);
#500=ORIENTED_EDGE('',*,*,#391,.T.);
#501=ORIENTED_EDGE('',*,*,#386,.F.);
#502=ORIENTED_EDGE('',*,*,#376,.F.);
#503=ORIENTED_EDGE('',*,*,#384,.T.);
#504=ORIENTED_EDGE('',*,*,#392,.F.);
#505=ORIENTED_EDGE('',*,*,#387,.F.);
#506=ORIENTED_EDGE('',*,*,#375,.F.);
#507=ORIENTED_EDGE('',*,*,#393,.T.);
#508=ORIENTED_EDGE('',*,*,#394,.T.);
#509=ORIENTED_EDGE('',*,*,#395,.T.);
#510=ORIENTED_EDGE('',*,*,#396,.T.);
#511=ORIENTED_EDGE('',*,*,#397,.T.);
#512=ORIENTED_EDGE('',*,*,#398,.T.);
#513=ORIENTED_EDGE('',*,*,#395,.F.);
#514=ORIENTED_EDGE('',*,*,#399,.T.);
#515=ORIENTED_EDGE('',*,*,#400,.T.);
#516=ORIENTED_EDGE('',*,*,#401,.T.);
#517=ORIENTED_EDGE('',*,*,#397,.F.);
#518=ORIENTED_EDGE('',*,*,#402,.T.);
#519=ORIENTED_EDGE('',*,*,#393,.F.);
#520=ORIENTED_EDGE('',*,*,#403,.T.);
#521=ORIENTED_EDGE('',*,*,#400,.F.);
#522=ORIENTED_EDGE('',*,*,#404,.T.);
#523=ORIENTED_EDGE('',*,*,#403,.F.);
#524=ORIENTED_EDGE('',*,*,#405,.F.);
#525=ORIENTED_EDGE('',*,*,#406,.F.);
#526=ORIENTED_EDGE('',*,*,#407,.F.);
#527=ORIENTED_EDGE('',*,*,#408,.T.);
#528=ORIENTED_EDGE('',*,*,#409,.T.);
#529=ORIENTED_EDGE('',*,*,#410,.F.);
#530=ORIENTED_EDGE('',*,*,#411,.F.);
#531=ORIENTED_EDGE('',*,*,#396,.F.);
#532=ORIENTED_EDGE('',*,*,#412,.T.);
#533=ORIENTED_EDGE('',*,*,#413,.T.);
#534=ORIENTED_EDGE('',*,*,#405,.T.);
#535=ORIENTED_EDGE('',*,*,#394,.F.);
#536=ORIENTED_EDGE('',*,*,#404,.F.);
#537=ORIENTED_EDGE('',*,*,#402,.F.);
#538=ORIENTED_EDGE('',*,*,#399,.F.);
#539=ORIENTED_EDGE('',*,*,#398,.F.);
#540=ORIENTED_EDGE('',*,*,#414,.F.);
#541=ORIENTED_EDGE('',*,*,#415,.F.);
#542=ORIENTED_EDGE('',*,*,#416,.F.);
#543=ORIENTED_EDGE('',*,*,#417,.T.);
#544=ORIENTED_EDGE('',*,*,#418,.T.);
#545=ORIENTED_EDGE('',*,*,#419,.F.);
#546=ORIENTED_EDGE('',*,*,#412,.F.);
#547=ORIENTED_EDGE('',*,*,#401,.F.);
#548=ORIENTED_EDGE('',*,*,#411,.T.);
#549=ORIENTED_EDGE('',*,*,#420,.T.);
#550=ORIENTED_EDGE('',*,*,#414,.T.);
#551=ORIENTED_EDGE('',*,*,#421,.F.);
#552=ORIENTED_EDGE('',*,*,#422,.F.);
#553=ORIENTED_EDGE('',*,*,#423,.F.);
#554=ORIENTED_EDGE('',*,*,#424,.F.);
#555=ORIENTED_EDGE('',*,*,#413,.F.);
#556=ORIENTED_EDGE('',*,*,#419,.T.);
#557=ORIENTED_EDGE('',*,*,#425,.T.);
#558=ORIENTED_EDGE('',*,*,#406,.T.);
#559=ORIENTED_EDGE('',*,*,#420,.F.);
#560=ORIENTED_EDGE('',*,*,#410,.T.);
#561=ORIENTED_EDGE('',*,*,#426,.T.);
#562=ORIENTED_EDGE('',*,*,#415,.T.);
#563=ORIENTED_EDGE('',*,*,#427,.F.);
#564=ORIENTED_EDGE('',*,*,#407,.T.);
#565=ORIENTED_EDGE('',*,*,#425,.F.);
#566=ORIENTED_EDGE('',*,*,#418,.F.);
#567=ORIENTED_EDGE('',*,*,#428,.T.);
#568=ORIENTED_EDGE('',*,*,#416,.T.);
#569=ORIENTED_EDGE('',*,*,#426,.F.);
#570=ORIENTED_EDGE('',*,*,#409,.F.);
#571=ORIENTED_EDGE('',*,*,#417,.F.);
#572=ORIENTED_EDGE('',*,*,#428,.F.);
#573=ORIENTED_EDGE('',*,*,#408,.F.);
#574=ORIENTED_EDGE('',*,*,#427,.T.);
#575=ORIENTED_EDGE('',*,*,#383,.T.);
#576=ORIENTED_EDGE('',*,*,#373,.T.);
#577=ORIENTED_EDGE('',*,*,#388,.T.);
#578=ORIENTED_EDGE('',*,*,#392,.T.);
#579=ORIENTED_EDGE('',*,*,#429,.T.);
#580=ORIENTED_EDGE('',*,*,#430,.T.);
#581=ORIENTED_EDGE('',*,*,#431,.T.);
#582=ORIENTED_EDGE('',*,*,#432,.T.);
#583=ORIENTED_EDGE('',*,*,#433,.F.);
#584=ORIENTED_EDGE('',*,*,#423,.T.);
#585=ORIENTED_EDGE('',*,*,#434,.T.);
#586=ORIENTED_EDGE('',*,*,#432,.F.);
#587=ORIENTED_EDGE('',*,*,#434,.F.);
#588=ORIENTED_EDGE('',*,*,#422,.T.);
#589=ORIENTED_EDGE('',*,*,#435,.F.);
#590=ORIENTED_EDGE('',*,*,#429,.F.);
#591=ORIENTED_EDGE('',*,*,#435,.T.);
#592=ORIENTED_EDGE('',*,*,#421,.T.);
#593=ORIENTED_EDGE('',*,*,#436,.F.);
#594=ORIENTED_EDGE('',*,*,#430,.F.);
#595=ORIENTED_EDGE('',*,*,#436,.T.);
#596=ORIENTED_EDGE('',*,*,#424,.T.);
#597=ORIENTED_EDGE('',*,*,#433,.T.);
#598=ORIENTED_EDGE('',*,*,#431,.F.);
#599=ORIENTED_EDGE('',*,*,#437,.F.);
#600=ORIENTED_EDGE('',*,*,#438,.F.);
#601=ORIENTED_EDGE('',*,*,#439,.T.);
#602=ORIENTED_EDGE('',*,*,#440,.F.);
#603=ORIENTED_EDGE('',*,*,#441,.F.);
#604=ORIENTED_EDGE('',*,*,#389,.T.);
#605=ORIENTED_EDGE('',*,*,#371,.F.);
#606=ORIENTED_EDGE('',*,*,#382,.F.);
#607=ORIENTED_EDGE('',*,*,#381,.T.);
#608=ORIENTED_EDGE('',*,*,#442,.F.);
#609=ORIENTED_EDGE('',*,*,#443,.F.);
#610=ORIENTED_EDGE('',*,*,#437,.T.);
#611=ORIENTED_EDGE('',*,*,#443,.T.);
#612=ORIENTED_EDGE('',*,*,#444,.T.);
#613=ORIENTED_EDGE('',*,*,#445,.T.);
#614=ORIENTED_EDGE('',*,*,#438,.T.);
#615=ORIENTED_EDGE('',*,*,#446,.T.);
#616=ORIENTED_EDGE('',*,*,#447,.F.);
#617=ORIENTED_EDGE('',*,*,#439,.F.);
#618=ORIENTED_EDGE('',*,*,#445,.F.);
#619=ORIENTED_EDGE('',*,*,#448,.T.);
#620=ORIENTED_EDGE('',*,*,#449,.F.);
#621=ORIENTED_EDGE('',*,*,#446,.F.);
#622=ORIENTED_EDGE('',*,*,#444,.F.);
#623=ORIENTED_EDGE('',*,*,#442,.T.);
#624=ORIENTED_EDGE('',*,*,#380,.T.);
#625=ORIENTED_EDGE('',*,*,#385,.F.);
#626=ORIENTED_EDGE('',*,*,#391,.F.);
#627=ORIENTED_EDGE('',*,*,#390,.T.);
#628=ORIENTED_EDGE('',*,*,#441,.T.);
#629=ORIENTED_EDGE('',*,*,#450,.F.);
#630=ORIENTED_EDGE('',*,*,#448,.F.);
#631=ORIENTED_EDGE('',*,*,#451,.T.);
#632=ORIENTED_EDGE('',*,*,#452,.F.);
#633=ORIENTED_EDGE('',*,*,#452,.T.);
#634=ORIENTED_EDGE('',*,*,#453,.T.);
#635=ORIENTED_EDGE('',*,*,#451,.F.);
#636=ORIENTED_EDGE('',*,*,#454,.T.);
#637=ORIENTED_EDGE('',*,*,#455,.T.);
#638=ORIENTED_EDGE('',*,*,#456,.T.);
#639=ORIENTED_EDGE('',*,*,#457,.T.);
#640=ORIENTED_EDGE('',*,*,#458,.T.);
#641=ORIENTED_EDGE('',*,*,#454,.F.);
#642=ORIENTED_EDGE('',*,*,#453,.F.);
#643=ORIENTED_EDGE('',*,*,#455,.F.);
#644=ORIENTED_EDGE('',*,*,#459,.T.);
#645=ORIENTED_EDGE('',*,*,#460,.T.);
#646=ORIENTED_EDGE('',*,*,#458,.F.);
#647=ORIENTED_EDGE('',*,*,#461,.T.);
#648=ORIENTED_EDGE('',*,*,#462,.T.);
#649=ORIENTED_EDGE('',*,*,#457,.F.);
#650=ORIENTED_EDGE('',*,*,#463,.T.);
#651=ORIENTED_EDGE('',*,*,#464,.T.);
#652=ORIENTED_EDGE('',*,*,#456,.F.);
#653=ORIENTED_EDGE('',*,*,#465,.T.);
#654=ORIENTED_EDGE('',*,*,#466,.T.);
#655=ORIENTED_EDGE('',*,*,#467,.F.);
#656=ORIENTED_EDGE('',*,*,#468,.T.);
#657=ORIENTED_EDGE('',*,*,#469,.T.);
#658=ORIENTED_EDGE('',*,*,#461,.F.);
#659=ORIENTED_EDGE('',*,*,#464,.F.);
#660=ORIENTED_EDGE('',*,*,#440,.T.);
#661=ORIENTED_EDGE('',*,*,#447,.T.);
#662=ORIENTED_EDGE('',*,*,#449,.T.);
#663=ORIENTED_EDGE('',*,*,#450,.T.);
#664=ORIENTED_EDGE('',*,*,#467,.T.);
#665=ORIENTED_EDGE('',*,*,#463,.F.);
#666=ORIENTED_EDGE('',*,*,#466,.F.);
#667=ORIENTED_EDGE('',*,*,#470,.F.);
#668=ORIENTED_EDGE('',*,*,#471,.T.);
#669=ORIENTED_EDGE('',*,*,#469,.F.);
#670=ORIENTED_EDGE('',*,*,#472,.T.);
#671=ORIENTED_EDGE('',*,*,#473,.T.);
#672=ORIENTED_EDGE('',*,*,#459,.F.);
#673=ORIENTED_EDGE('',*,*,#462,.F.);
#674=ORIENTED_EDGE('',*,*,#473,.F.);
#675=ORIENTED_EDGE('',*,*,#474,.T.);
#676=ORIENTED_EDGE('',*,*,#470,.T.);
#677=ORIENTED_EDGE('',*,*,#465,.F.);
#678=ORIENTED_EDGE('',*,*,#460,.F.);
#679=ORIENTED_EDGE('',*,*,#474,.F.);
#680=ORIENTED_EDGE('',*,*,#472,.F.);
#681=ORIENTED_EDGE('',*,*,#468,.F.);
#682=ORIENTED_EDGE('',*,*,#471,.F.);
#683=PLANE('',#761);
#684=PLANE('',#762);
#685=PLANE('',#763);
#686=PLANE('',#764);
#687=PLANE('',#765);
#688=PLANE('',#766);
#689=PLANE('',#779);
#690=PLANE('',#782);
#691=PLANE('',#783);
#692=PLANE('',#786);
#693=PLANE('',#787);
#694=PLANE('',#788);
#695=PLANE('',#789);
#696=PLANE('',#790);
#697=PLANE('',#791);
#698=PLANE('',#792);
#699=PLANE('',#793);
#700=PLANE('',#794);
#701=PLANE('',#795);
#702=PLANE('',#796);
#703=PLANE('',#797);
#704=PLANE('',#798);
#705=PLANE('',#799);
#706=PLANE('',#800);
#707=PLANE('',#801);
#708=PLANE('',#811);
#709=PLANE('',#812);
#710=PLANE('',#813);
#711=PLANE('',#814);
#712=PLANE('',#815);
#713=PLANE('',#816);
#714=PLANE('',#817);
#715=PLANE('',#818);
#716=PLANE('',#819);
#717=ADVANCED_FACE('',(#43),#683,.F.);
#718=ADVANCED_FACE('',(#44),#684,.T.);
#719=ADVANCED_FACE('',(#45),#685,.F.);
#720=ADVANCED_FACE('',(#46),#686,.F.);
#721=ADVANCED_FACE('',(#47),#687,.F.);
#722=ADVANCED_FACE('',(#48),#688,.F.);
#723=ADVANCED_FACE('',(#49),#41,.T.);
#724=ADVANCED_FACE('',(#50),#19,.T.);
#725=ADVANCED_FACE('',(#51),#42,.T.);
#726=ADVANCED_FACE('',(#52),#20,.T.);
#727=ADVANCED_FACE('',(#53),#689,.T.);
#728=ADVANCED_FACE('',(#54),#21,.T.);
#729=ADVANCED_FACE('',(#55),#690,.T.);
#730=ADVANCED_FACE('',(#56),#691,.T.);
#731=ADVANCED_FACE('',(#57),#22,.T.);
#732=ADVANCED_FACE('',(#58),#692,.F.);
#733=ADVANCED_FACE('',(#59),#693,.T.);
#734=ADVANCED_FACE('',(#60),#694,.T.);
#735=ADVANCED_FACE('',(#61),#695,.T.);
#736=ADVANCED_FACE('',(#62),#696,.T.);
#737=ADVANCED_FACE('',(#63,#16,#17),#697,.T.);
#738=ADVANCED_FACE('',(#64),#698,.T.);
#739=ADVANCED_FACE('',(#65),#699,.T.);
#740=ADVANCED_FACE('',(#66),#700,.T.);
#741=ADVANCED_FACE('',(#67),#701,.T.);
#742=ADVANCED_FACE('',(#68),#702,.F.);
#743=ADVANCED_FACE('',(#69),#703,.F.);
#744=ADVANCED_FACE('',(#70),#704,.T.);
#745=ADVANCED_FACE('',(#71),#705,.F.);
#746=ADVANCED_FACE('',(#72),#706,.F.);
#747=ADVANCED_FACE('',(#73),#707,.F.);
#748=ADVANCED_FACE('',(#74),#15,.T.);
#749=ADVANCED_FACE('',(#75),#23,.T.);
#750=ADVANCED_FACE('',(#76),#708,.T.);
#751=ADVANCED_FACE('',(#77),#709,.T.);
#752=ADVANCED_FACE('',(#78),#710,.T.);
#753=ADVANCED_FACE('',(#79),#711,.T.);
#754=ADVANCED_FACE('',(#80,#18),#712,.T.);
#755=ADVANCED_FACE('',(#81),#713,.T.);
#756=ADVANCED_FACE('',(#82),#714,.T.);
#757=ADVANCED_FACE('',(#83),#715,.T.);
#758=ADVANCED_FACE('',(#84),#716,.T.);
#759=CLOSED_SHELL('',(#717,#718,#719,#720,#721,#722,#723,#724,#725,#726,
#727,#728,#729,#730,#731,#732,#733,#734,#735,#736,#737,#738,#739,#740,#741,
#742,#743,#744,#745,#746,#747,#748,#749,#750,#751,#752,#753,#754,#755,#756,
#757,#758));
#760=AXIS2_PLACEMENT_3D('',#1027,#820,#821);
#761=AXIS2_PLACEMENT_3D('',#1028,#822,#823);
#762=AXIS2_PLACEMENT_3D('',#1037,#828,#829);
#763=AXIS2_PLACEMENT_3D('',#1046,#834,#835);
#764=AXIS2_PLACEMENT_3D('',#1057,#842,#843);
#765=AXIS2_PLACEMENT_3D('',#1061,#846,#847);
#766=AXIS2_PLACEMENT_3D('',#1070,#853,#854);
#767=AXIS2_PLACEMENT_3D('',#1072,#856,#857);
#768=AXIS2_PLACEMENT_3D('',#1075,#858,#859);
#769=AXIS2_PLACEMENT_3D('',#1077,#860,#861);
#770=AXIS2_PLACEMENT_3D('',#1079,#862,#863);
#771=AXIS2_PLACEMENT_3D('',#1080,#864,#865);
#772=AXIS2_PLACEMENT_3D('',#1081,#866,#867);
#773=AXIS2_PLACEMENT_3D('',#1084,#868,#869);
#774=AXIS2_PLACEMENT_3D('',#1087,#872,#873);
#775=AXIS2_PLACEMENT_3D('',#1090,#874,#875);
#776=AXIS2_PLACEMENT_3D('',#1091,#876,#877);
#777=AXIS2_PLACEMENT_3D('',#1092,#878,#879);
#778=AXIS2_PLACEMENT_3D('',#1093,#880,#881);
#779=AXIS2_PLACEMENT_3D('',#1096,#884,#885);
#780=AXIS2_PLACEMENT_3D('',#1110,#893,#894);
#781=AXIS2_PLACEMENT_3D('',#1113,#896,#897);
#782=AXIS2_PLACEMENT_3D('',#1114,#898,#899);
#783=AXIS2_PLACEMENT_3D('',#1115,#900,#901);
#784=AXIS2_PLACEMENT_3D('',#1127,#908,#909);
#785=AXIS2_PLACEMENT_3D('',#1128,#910,#911);
#786=AXIS2_PLACEMENT_3D('',#1129,#912,#913);
#787=AXIS2_PLACEMENT_3D('',#1138,#918,#919);
#788=AXIS2_PLACEMENT_3D('',#1140,#921,#922);
#789=AXIS2_PLACEMENT_3D('',#1142,#924,#925);
#790=AXIS2_PLACEMENT_3D('',#1144,#927,#928);
#791=AXIS2_PLACEMENT_3D('',#1146,#930,#931);
#792=AXIS2_PLACEMENT_3D('',#1155,#936,#937);
#793=AXIS2_PLACEMENT_3D('',#1158,#940,#941);
#794=AXIS2_PLACEMENT_3D('',#1160,#943,#944);
#795=AXIS2_PLACEMENT_3D('',#1162,#946,#947);
#796=AXIS2_PLACEMENT_3D('',#1163,#948,#949);
#797=AXIS2_PLACEMENT_3D('',#1173,#955,#956);
#798=AXIS2_PLACEMENT_3D('',#1177,#959,#960);
#799=AXIS2_PLACEMENT_3D('',#1181,#963,#964);
#800=AXIS2_PLACEMENT_3D('',#1185,#967,#968);
#801=AXIS2_PLACEMENT_3D('',#1189,#971,#972);
#802=AXIS2_PLACEMENT_3D('',#1191,#974,#975);
#803=AXIS2_PLACEMENT_3D('',#1194,#976,#977);
#804=AXIS2_PLACEMENT_3D('',#1196,#978,#979);
#805=AXIS2_PLACEMENT_3D('',#1197,#980,#981);
#806=AXIS2_PLACEMENT_3D('',#1198,#982,#983);
#807=AXIS2_PLACEMENT_3D('',#1202,#985,#986);
#808=AXIS2_PLACEMENT_3D('',#1204,#987,#988);
#809=AXIS2_PLACEMENT_3D('',#1206,#989,#990);
#810=AXIS2_PLACEMENT_3D('',#1207,#991,#992);
#811=AXIS2_PLACEMENT_3D('',#1208,#993,#994);
#812=AXIS2_PLACEMENT_3D('',#1212,#997,#998);
#813=AXIS2_PLACEMENT_3D('',#1216,#1001,#1002);
#814=AXIS2_PLACEMENT_3D('',#1220,#1005,#1006);
#815=AXIS2_PLACEMENT_3D('',#1224,#1009,#1010);
#816=AXIS2_PLACEMENT_3D('',#1230,#1014,#1015);
#817=AXIS2_PLACEMENT_3D('',#1234,#1018,#1019);
#818=AXIS2_PLACEMENT_3D('',#1238,#1022,#1023);
#819=AXIS2_PLACEMENT_3D('',#1240,#1025,#1026);
#820=DIRECTION('axis',(0.,0.,1.));
#821=DIRECTION('refdir',(1.,0.,0.));
#822=DIRECTION('center_axis',(0.,0.,-1.));
#823=DIRECTION('ref_axis',(-1.,0.,0.));
#824=DIRECTION('',(0.,1.,0.));
#825=DIRECTION('',(-1.,0.,0.));
#826=DIRECTION('',(0.,1.,0.));
#827=DIRECTION('',(-1.,0.,0.));
#828=DIRECTION('center_axis',(1.,0.,0.));
#829=DIRECTION('ref_axis',(0.,0.,-1.));
#830=DIRECTION('',(0.,1.,0.));
#831=DIRECTION('',(0.,0.,1.));
#832=DIRECTION('',(0.,-1.,0.));
#833=DIRECTION('',(0.,0.,-1.));
#834=DIRECTION('center_axis',(0.,1.,0.));
#835=DIRECTION('ref_axis',(1.,0.,0.));
#836=DIRECTION('',(-1.,0.,0.));
#837=DIRECTION('',(0.,0.,-1.));
#838=DIRECTION('',(1.,0.,0.));
#839=DIRECTION('',(0.,0.,-1.));
#840=DIRECTION('',(0.,0.,1.));
#841=DIRECTION('',(-1.,0.,0.));
#842=DIRECTION('center_axis',(0.,0.,-1.));
#843=DIRECTION('ref_axis',(-1.,0.,0.));
#844=DIRECTION('',(0.,-1.,0.));
#845=DIRECTION('',(-1.,0.,0.));
#846=DIRECTION('center_axis',(0.,-1.,0.));
#847=DIRECTION('ref_axis',(-1.,0.,0.));
#848=DIRECTION('',(-1.,0.,0.));
#849=DIRECTION('',(0.,0.,-1.));
#850=DIRECTION('',(0.,0.,-1.));
#851=DIRECTION('',(-1.,0.,0.));
#852=DIRECTION('',(0.,0.,-1.));
#853=DIRECTION('center_axis',(0.,0.,1.));
#854=DIRECTION('ref_axis',(1.,0.,0.));
#855=DIRECTION('',(0.,-1.,0.));
#856=DIRECTION('center_axis',(1.,0.,0.));
#857=DIRECTION('ref_axis',(0.,0.,-1.));
#858=DIRECTION('center_axis',(0.,1.,0.));
#859=DIRECTION('ref_axis',(0.,0.,-1.));
#860=DIRECTION('center_axis',(1.,0.,0.));
#861=DIRECTION('ref_axis',(0.,1.,-1.98254111540206E-16));
#862=DIRECTION('center_axis',(0.,1.,0.));
#863=DIRECTION('ref_axis',(-1.,0.,0.));
#864=DIRECTION('center_axis',(-1.,0.,0.));
#865=DIRECTION('ref_axis',(0.,1.,-1.98254111540206E-16));
#866=DIRECTION('center_axis',(0.,-1.,-8.41078048958456E-17));
#867=DIRECTION('ref_axis',(-0.707106781186553,0.,0.707106781186542));
#868=DIRECTION('center_axis',(0.,1.,0.));
#869=DIRECTION('ref_axis',(-1.,0.,0.));
#870=DIRECTION('',(0.,1.,8.41078048958456E-17));
#871=DIRECTION('',(0.,-1.,-8.41078048958456E-17));
#872=DIRECTION('center_axis',(1.,0.,0.));
#873=DIRECTION('ref_axis',(0.,0.,-1.));
#874=DIRECTION('center_axis',(0.,-1.,0.));
#875=DIRECTION('ref_axis',(-1.,0.,0.));
#876=DIRECTION('center_axis',(-1.,0.,0.));
#877=DIRECTION('ref_axis',(0.,-1.,9.91270557701029E-17));
#878=DIRECTION('center_axis',(1.,0.,0.));
#879=DIRECTION('ref_axis',(0.,-1.,9.91270557701029E-17));
#880=DIRECTION('center_axis',(0.,1.,0.));
#881=DIRECTION('ref_axis',(-0.707106781186553,0.,-0.707106781186543));
#882=DIRECTION('',(0.,-1.,0.));
#883=DIRECTION('',(0.,1.,0.));
#884=DIRECTION('center_axis',(0.,0.,-1.));
#885=DIRECTION('ref_axis',(0.,1.,0.));
#886=DIRECTION('',(-1.,0.,0.));
#887=DIRECTION('',(0.,-1.,0.));
#888=DIRECTION('',(-1.,0.,0.));
#889=DIRECTION('',(0.,-1.,0.));
#890=DIRECTION('',(-1.,0.,0.));
#891=DIRECTION('',(0.,-1.,0.));
#892=DIRECTION('',(1.,0.,0.));
#893=DIRECTION('center_axis',(-1.,0.,0.));
#894=DIRECTION('ref_axis',(0.,0.707106781186549,-0.707106781186546));
#895=DIRECTION('',(1.,0.,0.));
#896=DIRECTION('center_axis',(-1.,0.,0.));
#897=DIRECTION('ref_axis',(0.,0.707106781186549,-0.707106781186546));
#898=DIRECTION('center_axis',(-1.,0.,0.));
#899=DIRECTION('ref_axis',(0.,0.,1.));
#900=DIRECTION('center_axis',(0.,-8.41078048958456E-17,1.));
#901=DIRECTION('ref_axis',(0.,-1.,-8.41078048958456E-17));
#902=DIRECTION('',(-1.,0.,0.));
#903=DIRECTION('',(0.,1.,0.));
#904=DIRECTION('',(-1.,0.,0.));
#905=DIRECTION('',(0.,1.,8.41078048958456E-17));
#906=DIRECTION('',(-1.,0.,0.));
#907=DIRECTION('',(0.,1.,0.));
#908=DIRECTION('center_axis',(-1.,0.,0.));
#909=DIRECTION('ref_axis',(0.,-0.707106781186549,-0.707106781186546));
#910=DIRECTION('center_axis',(-1.,0.,0.));
#911=DIRECTION('ref_axis',(0.,-0.707106781186549,-0.707106781186546));
#912=DIRECTION('center_axis',(-1.,0.,0.));
#913=DIRECTION('ref_axis',(0.,0.,1.));
#914=DIRECTION('',(0.,0.,-1.));
#915=DIRECTION('',(0.,1.,0.));
#916=DIRECTION('',(0.,0.,1.));
#917=DIRECTION('',(0.,-1.,0.));
#918=DIRECTION('center_axis',(-1.,0.,0.));
#919=DIRECTION('ref_axis',(0.,0.,1.));
#920=DIRECTION('',(0.,0.,-1.));
#921=DIRECTION('center_axis',(-1.,0.,0.));
#922=DIRECTION('ref_axis',(0.,0.,1.));
#923=DIRECTION('',(0.,0.,1.));
#924=DIRECTION('center_axis',(0.,1.,0.));
#925=DIRECTION('ref_axis',(0.,0.,-1.));
#926=DIRECTION('',(0.,0.,1.));
#927=DIRECTION('center_axis',(0.,-1.,0.));
#928=DIRECTION('ref_axis',(0.,0.,1.));
#929=DIRECTION('',(0.,0.,1.));
#930=DIRECTION('center_axis',(1.,0.,0.));
#931=DIRECTION('ref_axis',(0.,1.,0.));
#932=DIRECTION('',(0.,1.,0.));
#933=DIRECTION('',(0.,0.,-1.));
#934=DIRECTION('',(0.,-1.,0.));
#935=DIRECTION('',(0.,0.,1.));
#936=DIRECTION('center_axis',(0.,1.,0.));
#937=DIRECTION('ref_axis',(0.,0.,1.));
#938=DIRECTION('',(1.,0.,0.));
#939=DIRECTION('',(1.,0.,0.));
#940=DIRECTION('center_axis',(0.,0.,-1.));
#941=DIRECTION('ref_axis',(-1.,0.,0.));
#942=DIRECTION('',(-1.,0.,0.));
#943=DIRECTION('center_axis',(0.,-1.,0.));
#944=DIRECTION('ref_axis',(0.,0.,-1.));
#945=DIRECTION('',(-1.,0.,0.));
#946=DIRECTION('center_axis',(0.,0.,1.));
#947=DIRECTION('ref_axis',(1.,0.,0.));
#948=DIRECTION('center_axis',(1.,0.,0.));
#949=DIRECTION('ref_axis',(0.,-1.,0.));
#950=DIRECTION('',(0.,1.,0.));
#951=DIRECTION('',(0.,0.,-1.));
#952=DIRECTION('',(0.,1.,0.));
#953=DIRECTION('',(0.,0.,1.));
#954=DIRECTION('',(0.,1.,0.));
#955=DIRECTION('center_axis',(0.,0.,1.));
#956=DIRECTION('ref_axis',(0.,-1.,0.));
#957=DIRECTION('',(0.,1.,0.));
#958=DIRECTION('',(1.,0.,0.));
#959=DIRECTION('center_axis',(0.,-1.,0.));
#960=DIRECTION('ref_axis',(0.,0.,-1.));
#961=DIRECTION('',(0.,0.,1.));
#962=DIRECTION('',(-1.,0.,0.));
#963=DIRECTION('center_axis',(0.,0.,-1.));
#964=DIRECTION('ref_axis',(0.,1.,0.));
#965=DIRECTION('',(0.,1.,0.));
#966=DIRECTION('',(1.,0.,0.));
#967=DIRECTION('center_axis',(-1.,0.,0.));
#968=DIRECTION('ref_axis',(0.,1.,0.));
#969=DIRECTION('',(0.,1.,0.));
#970=DIRECTION('',(0.,0.,-1.));
#971=DIRECTION('center_axis',(0.,0.,1.));
#972=DIRECTION('ref_axis',(0.,-1.,0.));
#973=DIRECTION('',(-1.,0.,0.));
#974=DIRECTION('center_axis',(0.,0.,1.));
#975=DIRECTION('ref_axis',(1.,0.,0.));
#976=DIRECTION('center_axis',(0.,0.,1.));
#977=DIRECTION('ref_axis',(-1.,0.,0.));
#978=DIRECTION('center_axis',(0.,-1.,0.));
#979=DIRECTION('ref_axis',(-1.,0.,0.));
#980=DIRECTION('center_axis',(0.,0.,1.));
#981=DIRECTION('ref_axis',(-1.,0.,0.));
#982=DIRECTION('center_axis',(0.,0.,-1.));
#983=DIRECTION('ref_axis',(-1.,0.,0.));
#984=DIRECTION('',(0.,0.,-1.));
#985=DIRECTION('center_axis',(0.,0.,1.));
#986=DIRECTION('ref_axis',(-1.,0.,0.));
#987=DIRECTION('center_axis',(0.,0.,1.));
#988=DIRECTION('ref_axis',(-1.,0.,0.));
#989=DIRECTION('center_axis',(0.,0.,1.));
#990=DIRECTION('ref_axis',(-1.,0.,0.));
#991=DIRECTION('center_axis',(0.,0.,1.));
#992=DIRECTION('ref_axis',(-1.,0.,0.));
#993=DIRECTION('center_axis',(0.,0.,1.));
#994=DIRECTION('ref_axis',(1.,0.,0.));
#995=DIRECTION('',(0.,1.,0.));
#996=DIRECTION('',(-1.,0.,0.));
#997=DIRECTION('center_axis',(0.,0.,1.));
#998=DIRECTION('ref_axis',(1.,0.,0.));
#999=DIRECTION('',(1.,0.,0.));
#1000=DIRECTION('',(0.,1.,0.));
#1001=DIRECTION('center_axis',(0.,0.,1.));
#1002=DIRECTION('ref_axis',(1.,0.,0.));
#1003=DIRECTION('',(0.,-1.,0.));
#1004=DIRECTION('',(1.,0.,0.));
#1005=DIRECTION('center_axis',(0.,0.,1.));
#1006=DIRECTION('ref_axis',(1.,0.,0.));
#1007=DIRECTION('',(-1.,0.,0.));
#1008=DIRECTION('',(0.,-1.,0.));
#1009=DIRECTION('center_axis',(0.,-1.,0.));
#1010=DIRECTION('ref_axis',(0.,0.,-1.));
#1011=DIRECTION('',(0.,0.,1.));
#1012=DIRECTION('',(1.,0.,0.));
#1013=DIRECTION('',(0.,0.,1.));
#1014=DIRECTION('center_axis',(-1.,0.,0.));
#1015=DIRECTION('ref_axis',(0.,-1.,0.));
#1016=DIRECTION('',(0.,0.,1.));
#1017=DIRECTION('',(0.,-1.,0.));
#1018=DIRECTION('center_axis',(1.,0.,0.));
#1019=DIRECTION('ref_axis',(0.,1.,0.));
#1020=DIRECTION('',(0.,1.,0.));
#1021=DIRECTION('',(0.,0.,1.));
#1022=DIRECTION('center_axis',(0.,1.,0.));
#1023=DIRECTION('ref_axis',(0.,0.,1.));
#1024=DIRECTION('',(-1.,0.,0.));
#1025=DIRECTION('center_axis',(0.,0.,-1.));
#1026=DIRECTION('ref_axis',(-1.,0.,0.));
#1027=CARTESIAN_POINT('',(0.,0.,0.));
#1028=CARTESIAN_POINT('Origin',(93.4999937223787,-89.2999979816377,1.69999996200204));
#1029=CARTESIAN_POINT('',(94.3999978899956,-90.2999979816377,1.69999996200204));
#1030=CARTESIAN_POINT('',(94.3999978899956,-88.2999979816377,1.69999996200204));
#1031=CARTESIAN_POINT('',(94.3999978899956,-89.2999979816377,1.69999996200204));
#1032=CARTESIAN_POINT('',(90.7999937223787,-88.2999979816377,1.69999996200204));
#1033=CARTESIAN_POINT('',(93.4999937223787,-88.2999979816377,1.69999996200204));
#1034=CARTESIAN_POINT('',(90.7999937223787,-90.2999979816377,1.69999996200204));
#1035=CARTESIAN_POINT('',(90.7999937223787,-90.3599989908189,1.69999996200204));
#1036=CARTESIAN_POINT('',(93.4999937223787,-90.2999979816377,1.69999996200204));
#1037=CARTESIAN_POINT('Origin',(96.1999937223787,-89.2999979816377,0.749999962002039));
#1038=CARTESIAN_POINT('',(96.1999937223787,-90.2999979816377,-0.200000037997961));
#1039=CARTESIAN_POINT('',(96.1999937223787,-88.2999979816377,-0.200000037997961));
#1040=CARTESIAN_POINT('',(96.1999937223787,-89.2999979816377,-0.200000037997961));
#1041=CARTESIAN_POINT('',(96.1999937223787,-88.2999979816377,1.69999996200204));
#1042=CARTESIAN_POINT('',(96.1999937223787,-88.2999979816377,0.749999962002039));
#1043=CARTESIAN_POINT('',(96.1999937223787,-90.2999979816377,1.69999996200204));
#1044=CARTESIAN_POINT('',(96.1999937223787,-89.2999979816377,1.69999996200204));
#1045=CARTESIAN_POINT('',(96.1999937223787,-90.2999979816377,0.749999962002039));
#1046=CARTESIAN_POINT('Origin',(93.4999937223787,-90.2999979816377,0.749999962002039));
#1047=CARTESIAN_POINT('',(95.7999978899956,-90.2999979816377,1.69999996200204));
#1048=CARTESIAN_POINT('',(93.4999937223787,-90.2999979816377,1.69999996200204));
#1049=CARTESIAN_POINT('',(95.7999978899956,-90.2999979816377,2.49999991506338));
#1050=CARTESIAN_POINT('',(95.7999978899956,-90.2999979816377,2.44999996200204));
#1051=CARTESIAN_POINT('',(94.3999978899956,-90.2999979816377,2.49999991506338));
#1052=CARTESIAN_POINT('',(95.0999978899956,-90.2999979816377,2.49999991506338));
#1053=CARTESIAN_POINT('',(94.3999978899956,-90.2999979816377,2.44999996200204));
#1054=CARTESIAN_POINT('',(90.7999937223787,-90.2999979816377,-0.200000037997961));
#1055=CARTESIAN_POINT('',(90.7999937223787,-90.2999979816377,0.774999981001019));
#1056=CARTESIAN_POINT('',(93.4999937223787,-90.2999979816377,-0.200000037997961));
#1057=CARTESIAN_POINT('Origin',(93.4999937223787,-89.2999979816377,1.69999996200204));
#1058=CARTESIAN_POINT('',(95.7999978899956,-88.2999979816377,1.69999996200204));
#1059=CARTESIAN_POINT('',(95.7999978899956,-89.2999979816377,1.69999996200204));
#1060=CARTESIAN_POINT('',(93.4999937223787,-88.2999979816377,1.69999996200204));
#1061=CARTESIAN_POINT('Origin',(93.4999937223787,-88.2999979816377,0.749999962002039));
#1062=CARTESIAN_POINT('',(90.7999937223787,-88.2999979816377,-0.200000037997961));
#1063=CARTESIAN_POINT('',(93.4999937223787,-88.2999979816377,-0.200000037997961));
#1064=CARTESIAN_POINT('',(90.7999937223787,-88.2999979816377,0.774999981001019));
#1065=CARTESIAN_POINT('',(94.3999978899956,-88.2999979816377,2.49999991506338));
#1066=CARTESIAN_POINT('',(94.3999978899956,-88.2999979816377,2.44999996200204));
#1067=CARTESIAN_POINT('',(95.7999978899956,-88.2999979816377,2.49999991506338));
#1068=CARTESIAN_POINT('',(95.0999978899956,-88.2999979816377,2.49999991506338));
#1069=CARTESIAN_POINT('',(95.7999978899956,-88.2999979816377,2.44999996200204));
#1070=CARTESIAN_POINT('Origin',(93.4999937223787,-89.2999979816377,-0.200000037997961));
#1071=CARTESIAN_POINT('',(90.7999937223787,-90.3599989908189,-0.200000037997961));
#1072=CARTESIAN_POINT('Origin',(87.8261637705198,-91.17,0.8));
#1073=CARTESIAN_POINT('',(87.8261637705198,-91.17,-0.6));
#1074=CARTESIAN_POINT('',(87.3261637705198,-91.17,-0.1));
#1075=CARTESIAN_POINT('Origin',(87.8261637705198,-91.17,-0.1));
#1076=CARTESIAN_POINT('',(87.3261637705198,-91.17,1.7));
#1077=CARTESIAN_POINT('Origin',(87.3261637705198,-91.17,0.8));
#1078=CARTESIAN_POINT('',(87.8261637705198,-91.17,2.2));
#1079=CARTESIAN_POINT('Origin',(87.8261637705198,-91.17,1.7));
#1080=CARTESIAN_POINT('Origin',(87.8261637705198,-91.17,0.8));
#1081=CARTESIAN_POINT('Origin',(87.8261637705198,-90.595,1.7));
#1082=CARTESIAN_POINT('',(87.3261637705198,-91.67,1.7));
#1083=CARTESIAN_POINT('',(87.8261637705198,-91.67,2.2));
#1084=CARTESIAN_POINT('Origin',(87.8261637705198,-91.67,1.7));
#1085=CARTESIAN_POINT('',(87.8261637705198,-90.595,2.2));
#1086=CARTESIAN_POINT('',(87.3261637705198,-90.595,1.7));
#1087=CARTESIAN_POINT('Origin',(87.8261637705198,-91.67,0.8));
#1088=CARTESIAN_POINT('',(87.3261637705198,-91.67,-0.1));
#1089=CARTESIAN_POINT('',(87.8261637705198,-91.67,-0.6));
#1090=CARTESIAN_POINT('Origin',(87.8261637705198,-91.67,-0.1));
#1091=CARTESIAN_POINT('Origin',(87.8261637705198,-91.67,0.8));
#1092=CARTESIAN_POINT('Origin',(87.3261637705198,-91.67,0.8));
#1093=CARTESIAN_POINT('Origin',(87.8261637705198,-92.245,-0.1));
#1094=CARTESIAN_POINT('',(87.8261637705198,-92.245,-0.6));
#1095=CARTESIAN_POINT('',(87.3261637705198,-92.245,-0.1));
#1096=CARTESIAN_POINT('Origin',(88.8261637705198,-93.07,-0.6));
#1097=CARTESIAN_POINT('',(89.7999937223787,-91.17,-0.6));
#1098=CARTESIAN_POINT('',(88.8261637705198,-91.17,-0.6));
#1099=CARTESIAN_POINT('',(89.7999937223787,-87.77,-0.6));
#1100=CARTESIAN_POINT('',(89.7999937223787,-93.07,-0.6));
#1101=CARTESIAN_POINT('',(90.7999937223787,-87.77,-0.6));
#1102=CARTESIAN_POINT('',(90.7999937223787,-87.77,-0.6));
#1103=CARTESIAN_POINT('',(90.7999937223787,-95.07,-0.6));
#1104=CARTESIAN_POINT('',(90.7999937223788,-92.245,-0.6));
#1105=CARTESIAN_POINT('',(89.7999937223787,-95.07,-0.6));
#1106=CARTESIAN_POINT('',(90.7999937223787,-95.07,-0.6));
#1107=CARTESIAN_POINT('',(89.7999937223787,-91.67,-0.6));
#1108=CARTESIAN_POINT('',(89.7999937223787,-93.07,-0.6));
#1109=CARTESIAN_POINT('',(88.8261637705198,-91.67,-0.6));
#1110=CARTESIAN_POINT('Origin',(88.8261637705198,-91.17,0.8));
#1111=CARTESIAN_POINT('',(89.7999937223787,-91.17,2.2));
#1112=CARTESIAN_POINT('',(88.8261637705198,-91.17,2.2));
#1113=CARTESIAN_POINT('Origin',(89.7999937223787,-91.17,0.8));
#1114=CARTESIAN_POINT('Origin',(87.3261637705198,-91.42,0.8));
#1115=CARTESIAN_POINT('Origin',(88.8261637705198,-89.77,2.2));
#1116=CARTESIAN_POINT('',(89.7999937223787,-91.67,2.2));
#1117=CARTESIAN_POINT('',(88.8261637705198,-91.67,2.2));
#1118=CARTESIAN_POINT('',(89.7999937223787,-95.07,2.2));
#1119=CARTESIAN_POINT('',(89.7999937223787,-89.77,2.2));
#1120=CARTESIAN_POINT('',(90.7999937223787,-95.07,2.2));
#1121=CARTESIAN_POINT('',(90.7999937223787,-95.07,2.2));
#1122=CARTESIAN_POINT('',(90.7999937223787,-87.77,2.2));
#1123=CARTESIAN_POINT('',(90.7999937223788,-90.595,2.2));
#1124=CARTESIAN_POINT('',(89.7999937223787,-87.77,2.2));
#1125=CARTESIAN_POINT('',(90.7999937223787,-87.77,2.2));
#1126=CARTESIAN_POINT('',(89.7999937223787,-89.77,2.2));
#1127=CARTESIAN_POINT('Origin',(88.8261637705198,-91.67,0.8));
#1128=CARTESIAN_POINT('Origin',(89.7999937223787,-91.67,0.8));
#1129=CARTESIAN_POINT('Origin',(89.7759937223787,-91.42,0.8));
#1130=CARTESIAN_POINT('',(89.7759937223787,-90.72,1.25));
#1131=CARTESIAN_POINT('',(89.7759937223787,-90.72,0.35));
#1132=CARTESIAN_POINT('',(89.7759937223787,-90.72,0.35));
#1133=CARTESIAN_POINT('',(89.7759937223787,-92.12,1.25));
#1134=CARTESIAN_POINT('',(89.7759937223787,-90.72,1.25));
#1135=CARTESIAN_POINT('',(89.7759937223787,-92.12,0.35));
#1136=CARTESIAN_POINT('',(89.7759937223787,-92.12,1.25));
#1137=CARTESIAN_POINT('',(89.7759937223787,-92.12,0.35));
#1138=CARTESIAN_POINT('Origin',(89.7999937223787,-91.42,0.8));
#1139=CARTESIAN_POINT('',(89.7999937223787,-87.77,-0.6));
#1140=CARTESIAN_POINT('Origin',(89.7999937223787,-91.42,0.8));
#1141=CARTESIAN_POINT('',(89.7999937223787,-95.07,-0.6));
#1142=CARTESIAN_POINT('Origin',(90.7999937223787,-87.77,2.2));
#1143=CARTESIAN_POINT('',(90.7999937223787,-87.77,-0.6));
#1144=CARTESIAN_POINT('Origin',(90.7999937223787,-95.07,-0.6));
#1145=CARTESIAN_POINT('',(90.7999937223787,-95.07,-0.6));
#1146=CARTESIAN_POINT('Origin',(90.7999937223787,-91.42,0.8));
#1147=CARTESIAN_POINT('',(90.7999937223787,-92.12,1.25));
#1148=CARTESIAN_POINT('',(90.7999937223787,-90.72,1.25));
#1149=CARTESIAN_POINT('',(90.7999937223787,-91.77,1.25));
#1150=CARTESIAN_POINT('',(90.7999937223787,-90.72,0.35));
#1151=CARTESIAN_POINT('',(90.7999937223787,-90.72,1.025));
#1152=CARTESIAN_POINT('',(90.7999937223787,-92.12,0.35));
#1153=CARTESIAN_POINT('',(90.7999937223787,-91.07,0.35));
#1154=CARTESIAN_POINT('',(90.7999937223787,-92.12,0.575));
#1155=CARTESIAN_POINT('Origin',(88.8261637705198,-92.12,0.3));
#1156=CARTESIAN_POINT('',(88.8261637705198,-92.12,0.35));
#1157=CARTESIAN_POINT('',(88.8261637705198,-92.12,1.25));
#1158=CARTESIAN_POINT('Origin',(88.8261637705198,-92.17,1.25));
#1159=CARTESIAN_POINT('',(88.8261637705198,-90.72,1.25));
#1160=CARTESIAN_POINT('Origin',(88.8261637705198,-90.72,1.3));
#1161=CARTESIAN_POINT('',(88.8261637705198,-90.72,0.35));
#1162=CARTESIAN_POINT('Origin',(88.8261637705198,-90.67,0.35));
#1163=CARTESIAN_POINT('Origin',(94.3999978899956,-79.563556221251,3.14999991506338));
#1164=CARTESIAN_POINT('',(94.3999978899956,-90.563556221251,2.49999991506338));
#1165=CARTESIAN_POINT('',(94.3999978899956,-79.563556221251,2.49999991506338));
#1166=CARTESIAN_POINT('',(94.3999978899956,-90.563556221251,3.79999991506338));
#1167=CARTESIAN_POINT('',(94.3999978899956,-90.563556221251,3.14999991506338));
#1168=CARTESIAN_POINT('',(94.3999978899956,-68.563556221251,3.79999991506338));
#1169=CARTESIAN_POINT('',(94.3999978899956,-79.563556221251,3.79999991506338));
#1170=CARTESIAN_POINT('',(94.3999978899956,-68.563556221251,2.49999991506338));
#1171=CARTESIAN_POINT('',(94.3999978899956,-68.563556221251,3.97099995753169));
#1172=CARTESIAN_POINT('',(94.3999978899956,-79.563556221251,2.49999991506338));
#1173=CARTESIAN_POINT('Origin',(95.0999978899956,-79.563556221251,2.49999991506338));
#1174=CARTESIAN_POINT('',(95.7999978899956,-90.563556221251,2.49999991506338));
#1175=CARTESIAN_POINT('',(95.7999978899956,-79.563556221251,2.49999991506338));
#1176=CARTESIAN_POINT('',(95.0999978899956,-90.563556221251,2.49999991506338));
#1177=CARTESIAN_POINT('Origin',(95.0999978899956,-90.563556221251,3.14999991506338));
#1178=CARTESIAN_POINT('',(95.7999978899956,-90.563556221251,3.79999991506338));
#1179=CARTESIAN_POINT('',(95.7999978899956,-90.563556221251,3.14999991506338));
#1180=CARTESIAN_POINT('',(95.0999978899956,-90.563556221251,3.79999991506338));
#1181=CARTESIAN_POINT('Origin',(95.0999978899956,-79.563556221251,3.79999991506338));
#1182=CARTESIAN_POINT('',(95.7999978899956,-68.563556221251,3.79999991506338));
#1183=CARTESIAN_POINT('',(95.7999978899956,-79.563556221251,3.79999991506338));
#1184=CARTESIAN_POINT('',(94.7553864042103,-68.563556221251,3.79999991506338));
#1185=CARTESIAN_POINT('Origin',(95.7999978899956,-79.563556221251,3.14999991506338));
#1186=CARTESIAN_POINT('',(95.7999978899956,-68.563556221251,2.49999991506338));
#1187=CARTESIAN_POINT('',(95.7999978899956,-79.563556221251,2.49999991506338));
#1188=CARTESIAN_POINT('',(95.7999978899956,-68.563556221251,3.97099995753169));
#1189=CARTESIAN_POINT('Origin',(95.0999978899956,-79.563556221251,2.49999991506338));
#1190=CARTESIAN_POINT('',(94.7553864042103,-68.563556221251,2.49999991506338));
#1191=CARTESIAN_POINT('Origin',(95.1107749184251,-67.513556221251,6.742));
#1192=CARTESIAN_POINT('',(96.1607749184251,-67.513556221251,6.742));
#1193=CARTESIAN_POINT('',(94.0607749184251,-67.513556221251,6.742));
#1194=CARTESIAN_POINT('Origin',(95.1107749184251,-67.513556221251,6.742));
#1195=CARTESIAN_POINT('',(95.1107749184251,-67.513556221251,7.79200000000001));
#1196=CARTESIAN_POINT('Origin',(95.1107749184251,-67.513556221251,6.742));
#1197=CARTESIAN_POINT('Origin',(95.1107749184251,-67.513556221251,6.742));
#1198=CARTESIAN_POINT('Origin',(95.1107749184251,-67.513556221251,7.792));
#1199=CARTESIAN_POINT('',(96.1607749184251,-67.513556221251,4.192));
#1200=CARTESIAN_POINT('',(96.1607749184251,-67.513556221251,7.792));
#1201=CARTESIAN_POINT('',(95.1107749184251,-66.463556221251,4.192));
#1202=CARTESIAN_POINT('Origin',(95.1107749184251,-67.513556221251,4.192));
#1203=CARTESIAN_POINT('',(94.0607749184251,-67.513556221251,4.192));
#1204=CARTESIAN_POINT('Origin',(95.1107749184251,-67.513556221251,4.192));
#1205=CARTESIAN_POINT('',(95.1107749184251,-68.563556221251,4.192));
#1206=CARTESIAN_POINT('Origin',(95.1107749184251,-67.513556221251,4.192));
#1207=CARTESIAN_POINT('Origin',(95.1107749184251,-67.513556221251,4.192));
#1208=CARTESIAN_POINT('Origin',(95.1107749184251,-68.463556221251,4.192));
#1209=CARTESIAN_POINT('',(96.1607749184251,-66.463556221251,4.192));
#1210=CARTESIAN_POINT('',(96.1607749184251,-68.563556221251,4.192));
#1211=CARTESIAN_POINT('',(96.1607749184251,-66.463556221251,4.192));
#1212=CARTESIAN_POINT('Origin',(95.1107749184251,-68.463556221251,4.192));
#1213=CARTESIAN_POINT('',(96.1607749184251,-68.563556221251,4.192));
#1214=CARTESIAN_POINT('',(94.0607749184251,-68.563556221251,4.192));
#1215=CARTESIAN_POINT('',(96.1607749184251,-68.563556221251,4.192));
#1216=CARTESIAN_POINT('Origin',(95.1107749184251,-68.463556221251,4.192));
#1217=CARTESIAN_POINT('',(94.0607749184251,-68.563556221251,4.192));
#1218=CARTESIAN_POINT('',(94.0607749184251,-66.463556221251,4.192));
#1219=CARTESIAN_POINT('',(94.0607749184251,-68.563556221251,4.192));
#1220=CARTESIAN_POINT('Origin',(95.1107749184251,-68.463556221251,4.192));
#1221=CARTESIAN_POINT('',(94.0607749184251,-66.463556221251,4.192));
#1222=CARTESIAN_POINT('',(96.1607749184251,-66.463556221251,4.192));
#1223=CARTESIAN_POINT('',(94.0607749184251,-66.463556221251,4.192));
#1224=CARTESIAN_POINT('Origin',(94.4107749184251,-68.563556221251,4.792));
#1225=CARTESIAN_POINT('',(94.0607749184251,-68.563556221251,2.192));
#1226=CARTESIAN_POINT('',(94.0607749184251,-68.563556221251,2.192));
#1227=CARTESIAN_POINT('',(96.1607749184251,-68.563556221251,2.192));
#1228=CARTESIAN_POINT('',(94.0607749184251,-68.563556221251,2.192));
#1229=CARTESIAN_POINT('',(96.1607749184251,-68.563556221251,2.192));
#1230=CARTESIAN_POINT('Origin',(94.0607749184251,-66.463556221251,2.192));
#1231=CARTESIAN_POINT('',(94.0607749184251,-66.463556221251,2.192));
#1232=CARTESIAN_POINT('',(94.0607749184251,-66.463556221251,2.192));
#1233=CARTESIAN_POINT('',(94.0607749184251,-66.463556221251,2.192));
#1234=CARTESIAN_POINT('Origin',(96.1607749184251,-68.563556221251,2.192));
#1235=CARTESIAN_POINT('',(96.1607749184251,-66.463556221251,2.192));
#1236=CARTESIAN_POINT('',(96.1607749184251,-68.563556221251,2.192));
#1237=CARTESIAN_POINT('',(96.1607749184251,-66.463556221251,6.792));
#1238=CARTESIAN_POINT('Origin',(95.8107749184251,-66.463556221251,4.792));
#1239=CARTESIAN_POINT('',(96.1607749184251,-66.463556221251,2.192));
#1240=CARTESIAN_POINT('Origin',(95.1107749184251,-68.463556221251,2.192));
#1241=UNCERTAINTY_MEASURE_WITH_UNIT(LENGTH_MEASURE(0.01),#1245,
'DISTANCE_ACCURACY_VALUE',
'Maximum model space distance between geometric entities at asserted c
onnectivities');
#1242=UNCERTAINTY_MEASURE_WITH_UNIT(LENGTH_MEASURE(0.01),#1245,
'DISTANCE_ACCURACY_VALUE',
'Maximum model space distance between geometric entities at asserted c
onnectivities');
#1243=(
GEOMETRIC_REPRESENTATION_CONTEXT(3)
GLOBAL_UNCERTAINTY_ASSIGNED_CONTEXT((#1241))
GLOBAL_UNIT_ASSIGNED_CONTEXT((#1245,#1246,#1247))
REPRESENTATION_CONTEXT('','3D')
);
#1244=(
GEOMETRIC_REPRESENTATION_CONTEXT(3)
GLOBAL_UNCERTAINTY_ASSIGNED_CONTEXT((#1242))
GLOBAL_UNIT_ASSIGNED_CONTEXT((#1245,#1246,#1247))
REPRESENTATION_CONTEXT('','3D')
);
#1245=(
LENGTH_UNIT()
NAMED_UNIT(*)
SI_UNIT(.MILLI.,.METRE.)
);
#1246=(
NAMED_UNIT(*)
PLANE_ANGLE_UNIT()
SI_UNIT($,.RADIAN.)
);
#1247=(
NAMED_UNIT(*)
SI_UNIT($,.STERADIAN.)
SOLID_ANGLE_UNIT()
);
#1248=SHAPE_DEFINITION_REPRESENTATION(#1249,#1250);
#1249=PRODUCT_DEFINITION_SHAPE('',$,#1252);
#1250=SHAPE_REPRESENTATION('',(#760),#1243);
#1251=PRODUCT_DEFINITION_CONTEXT('part definition',#1256,'design');
#1252=PRODUCT_DEFINITION('cornix-tb','cornix-tb',#1253,#1251);
#1253=PRODUCT_DEFINITION_FORMATION('',$,#1258);
#1254=PRODUCT_RELATED_PRODUCT_CATEGORY('cornix-tb','cornix-tb',(#1258));
#1255=APPLICATION_PROTOCOL_DEFINITION('international standard',
'automotive_design',2009,#1256);
#1256=APPLICATION_CONTEXT(
'Core Data for Automotive Mechanical Design Process');
#1257=PRODUCT_CONTEXT('part definition',#1256,'mechanical');
#1258=PRODUCT('cornix-tb','cornix-tb','FreeCAD Model',(#1257));
#1259=PRESENTATION_STYLE_ASSIGNMENT((#1260));
#1260=SURFACE_STYLE_USAGE(.BOTH.,#1261);
#1261=SURFACE_SIDE_STYLE('',(#1262));
#1262=SURFACE_STYLE_FILL_AREA(#1263);
#1263=FILL_AREA_STYLE('\X2\92FC\X0\ - \X2\30B530C630F3\X0\',(#1264));
#1264=FILL_AREA_STYLE_COLOUR('\X2\92FC\X0\ - \X2\30B530C630F3\X0\',#1265);
#1265=COLOUR_RGB('\X2\92FC\X0\ - \X2\30B530C630F3\X0\',0.627450980392157,
0.627450980392157,0.627450980392157);
ENDSEC;
END-ISO-10303-21;
