ISO-10303-21;
HEADER;
/* Generated by software containing ST-Developer
 * from STEP Tools, Inc. (www.steptools.com) 
 */

FILE_DESCRIPTION(
/* description */ (''),
/* implementation_level */ '2;1');

FILE_NAME(
/* name */ 'cornix_trackball_case_holder_locker_v2.step',
/* time_stamp */ '2025-11-14T12:05:38+09:00',
/* author */ (''),
/* organization */ (''),
/* preprocessor_version */ 'ST-DEVELOPER v20.1',
/* originating_system */ 'Autodesk Translation Framework v14.17.0.0',
/* authorisation */ '');

FILE_SCHEMA (('AUTOMOTIVE_DESIGN { 1 0 10303 214 3 1 1 }'));
ENDSEC;

DATA;
#10=MECHANICAL_DESIGN_GEOMETRIC_PRESENTATION_REPRESENTATION('',(#13),#1084);
#11=SHAPE_REPRESENTATION_RELATIONSHIP('SRR','None',#1091,#12);
#12=ADVANCED_BREP_SHAPE_REPRESENTATION('',(#14),#1083);
#13=STYLED_ITEM('',(#1100),#14);
#14=MANIFOLD_SOLID_BREP('\X2\30DC30C730A3\X0\4',#633);
#15=SPHERICAL_SURFACE('',#702,0.5);
#16=FACE_BOUND('',#238,.T.);
#17=FACE_BOUND('',#242,.T.);
#18=ELLIPSE('',#672,0.709847901851188,0.5);
#19=ELLIPSE('',#689,0.707106781186547,0.5);
#20=PLANE('',#664);
#21=PLANE('',#665);
#22=PLANE('',#666);
#23=PLANE('',#667);
#24=PLANE('',#668);
#25=PLANE('',#669);
#26=PLANE('',#670);
#27=PLANE('',#671);
#28=PLANE('',#673);
#29=PLANE('',#677);
#30=PLANE('',#678);
#31=PLANE('',#679);
#32=PLANE('',#680);
#33=PLANE('',#681);
#34=PLANE('',#688);
#35=PLANE('',#696);
#36=PLANE('',#698);
#37=PLANE('',#701);
#38=PLANE('',#708);
#39=PLANE('',#710);
#40=LINE('',#916,#101);
#41=LINE('',#917,#102);
#42=LINE('',#920,#103);
#43=LINE('',#923,#104);
#44=LINE('',#934,#105);
#45=LINE('',#935,#106);
#46=LINE('',#938,#107);
#47=LINE('',#941,#108);
#48=LINE('',#943,#109);
#49=LINE('',#946,#110);
#50=LINE('',#948,#111);
#51=LINE('',#949,#112);
#52=LINE('',#952,#113);
#53=LINE('',#953,#114);
#54=LINE('',#956,#115);
#55=LINE('',#958,#116);
#56=LINE('',#959,#117);
#57=LINE('',#963,#118);
#58=LINE('',#964,#119);
#59=LINE('',#966,#120);
#60=LINE('',#967,#121);
#61=LINE('',#970,#122);
#62=LINE('',#972,#123);
#63=LINE('',#973,#124);
#64=LINE('',#975,#125);
#65=LINE('',#981,#126);
#66=LINE('',#983,#127);
#67=LINE('',#985,#128);
#68=LINE('',#986,#129);
#69=LINE('',#989,#130);
#70=LINE('',#991,#131);
#71=LINE('',#992,#132);
#72=LINE('',#997,#133);
#73=LINE('',#1001,#134);
#74=LINE('',#1003,#135);
#75=LINE('',#1004,#136);
#76=LINE('',#1007,#137);
#77=LINE('',#1008,#138);
#78=LINE('',#1011,#139);
#79=LINE('',#1013,#140);
#80=LINE('',#1014,#141);
#81=LINE('',#1017,#142);
#82=LINE('',#1018,#143);
#83=LINE('',#1021,#144);
#84=LINE('',#1023,#145);
#85=LINE('',#1026,#146);
#86=LINE('',#1039,#147);
#87=LINE('',#1040,#148);
#88=LINE('',#1045,#149);
#89=LINE('',#1046,#150);
#90=LINE('',#1051,#151);
#91=LINE('',#1055,#152);
#92=LINE('',#1058,#153);
#93=LINE('',#1060,#154);
#94=LINE('',#1061,#155);
#95=LINE('',#1062,#156);
#96=LINE('',#1066,#157);
#97=LINE('',#1068,#158);
#98=LINE('',#1075,#159);
#99=LINE('',#1077,#160);
#100=LINE('',#1079,#161);
#101=VECTOR('',#727,10.);
#102=VECTOR('',#728,10.);
#103=VECTOR('',#731,10.);
#104=VECTOR('',#734,10.);
#105=VECTOR('',#747,10.);
#106=VECTOR('',#748,10.);
#107=VECTOR('',#751,10.);
#108=VECTOR('',#754,10.);
#109=VECTOR('',#757,10.);
#110=VECTOR('',#760,10.);
#111=VECTOR('',#761,10.);
#112=VECTOR('',#762,10.);
#113=VECTOR('',#765,10.);
#114=VECTOR('',#766,10.);
#115=VECTOR('',#769,10.);
#116=VECTOR('',#770,10.);
#117=VECTOR('',#771,10.);
#118=VECTOR('',#774,10.);
#119=VECTOR('',#775,10.);
#120=VECTOR('',#776,10.);
#121=VECTOR('',#777,10.);
#122=VECTOR('',#780,10.);
#123=VECTOR('',#781,10.);
#124=VECTOR('',#782,10.);
#125=VECTOR('',#785,10.);
#126=VECTOR('',#790,10.);
#127=VECTOR('',#791,10.);
#128=VECTOR('',#792,10.);
#129=VECTOR('',#793,10.);
#130=VECTOR('',#796,10.);
#131=VECTOR('',#797,10.);
#132=VECTOR('',#798,10.);
#133=VECTOR('',#803,0.75);
#134=VECTOR('',#808,10.);
#135=VECTOR('',#809,10.);
#136=VECTOR('',#810,10.);
#137=VECTOR('',#813,10.);
#138=VECTOR('',#814,10.);
#139=VECTOR('',#817,10.);
#140=VECTOR('',#818,10.);
#141=VECTOR('',#819,10.);
#142=VECTOR('',#822,10.);
#143=VECTOR('',#823,10.);
#144=VECTOR('',#826,10.);
#145=VECTOR('',#827,10.);
#146=VECTOR('',#830,10.);
#147=VECTOR('',#845,10.);
#148=VECTOR('',#846,10.);
#149=VECTOR('',#851,10.);
#150=VECTOR('',#852,10.);
#151=VECTOR('',#861,10.);
#152=VECTOR('',#866,10.);
#153=VECTOR('',#869,10.);
#154=VECTOR('',#870,10.);
#155=VECTOR('',#871,10.);
#156=VECTOR('',#872,10.);
#157=VECTOR('',#877,10.);
#158=VECTOR('',#880,10.);
#159=VECTOR('',#893,10.);
#160=VECTOR('',#896,10.);
#161=VECTOR('',#899,10.);
#162=CYLINDRICAL_SURFACE('',#652,0.5);
#163=CYLINDRICAL_SURFACE('',#654,2.);
#164=CYLINDRICAL_SURFACE('',#660,0.5);
#165=CYLINDRICAL_SURFACE('',#662,0.5);
#166=CYLINDRICAL_SURFACE('',#674,0.75);
#167=CYLINDRICAL_SURFACE('',#690,2.);
#168=CYLINDRICAL_SURFACE('',#695,0.5);
#169=CYLINDRICAL_SURFACE('',#699,0.5);
#170=CYLINDRICAL_SURFACE('',#705,0.5);
#171=CYLINDRICAL_SURFACE('',#706,0.5);
#172=CYLINDRICAL_SURFACE('',#707,0.5);
#173=CYLINDRICAL_SURFACE('',#709,0.5);
#174=FACE_OUTER_BOUND('',#211,.T.);
#175=FACE_OUTER_BOUND('',#212,.T.);
#176=FACE_OUTER_BOUND('',#213,.T.);
#177=FACE_OUTER_BOUND('',#214,.T.);
#178=FACE_OUTER_BOUND('',#215,.T.);
#179=FACE_OUTER_BOUND('',#216,.T.);
#180=FACE_OUTER_BOUND('',#217,.T.);
#181=FACE_OUTER_BOUND('',#218,.T.);
#182=FACE_OUTER_BOUND('',#219,.T.);
#183=FACE_OUTER_BOUND('',#220,.T.);
#184=FACE_OUTER_BOUND('',#221,.T.);
#185=FACE_OUTER_BOUND('',#222,.T.);
#186=FACE_OUTER_BOUND('',#223,.T.);
#187=FACE_OUTER_BOUND('',#224,.T.);
#188=FACE_OUTER_BOUND('',#225,.T.);
#189=FACE_OUTER_BOUND('',#226,.T.);
#190=FACE_OUTER_BOUND('',#227,.T.);
#191=FACE_OUTER_BOUND('',#228,.T.);
#192=FACE_OUTER_BOUND('',#229,.T.);
#193=FACE_OUTER_BOUND('',#230,.T.);
#194=FACE_OUTER_BOUND('',#231,.T.);
#195=FACE_OUTER_BOUND('',#232,.T.);
#196=FACE_OUTER_BOUND('',#233,.T.);
#197=FACE_OUTER_BOUND('',#234,.T.);
#198=FACE_OUTER_BOUND('',#235,.T.);
#199=FACE_OUTER_BOUND('',#236,.T.);
#200=FACE_OUTER_BOUND('',#237,.T.);
#201=FACE_OUTER_BOUND('',#239,.T.);
#202=FACE_OUTER_BOUND('',#240,.T.);
#203=FACE_OUTER_BOUND('',#241,.T.);
#204=FACE_OUTER_BOUND('',#243,.T.);
#205=FACE_OUTER_BOUND('',#244,.T.);
#206=FACE_OUTER_BOUND('',#245,.T.);
#207=FACE_OUTER_BOUND('',#246,.T.);
#208=FACE_OUTER_BOUND('',#247,.T.);
#209=FACE_OUTER_BOUND('',#248,.T.);
#210=FACE_OUTER_BOUND('',#249,.T.);
#211=EDGE_LOOP('',(#416,#417,#418,#419));
#212=EDGE_LOOP('',(#420,#421,#422,#423));
#213=EDGE_LOOP('',(#424,#425,#426,#427));
#214=EDGE_LOOP('',(#428,#429,#430,#431));
#215=EDGE_LOOP('',(#432,#433,#434,#435));
#216=EDGE_LOOP('',(#436,#437,#438,#439));
#217=EDGE_LOOP('',(#440,#441,#442,#443,#444));
#218=EDGE_LOOP('',(#445,#446,#447,#448,#449,#450));
#219=EDGE_LOOP('',(#451,#452,#453,#454));
#220=EDGE_LOOP('',(#455,#456,#457,#458,#459));
#221=EDGE_LOOP('',(#460,#461,#462,#463));
#222=EDGE_LOOP('',(#464,#465,#466,#467));
#223=EDGE_LOOP('',(#468,#469,#470,#471,#472,#473));
#224=EDGE_LOOP('',(#474,#475,#476,#477,#478));
#225=EDGE_LOOP('',(#479,#480,#481,#482));
#226=EDGE_LOOP('',(#483,#484,#485,#486));
#227=EDGE_LOOP('',(#487,#488,#489,#490));
#228=EDGE_LOOP('',(#491,#492,#493,#494));
#229=EDGE_LOOP('',(#495,#496,#497,#498));
#230=EDGE_LOOP('',(#499,#500,#501,#502));
#231=EDGE_LOOP('',(#503,#504,#505,#506,#507,#508,#509,#510,#511,#512,#513));
#232=EDGE_LOOP('',(#514,#515,#516,#517));
#233=EDGE_LOOP('',(#518,#519,#520,#521,#522));
#234=EDGE_LOOP('',(#523,#524,#525,#526));
#235=EDGE_LOOP('',(#527,#528,#529,#530));
#236=EDGE_LOOP('',(#531,#532,#533,#534));
#237=EDGE_LOOP('',(#535,#536,#537,#538,#539,#540,#541));
#238=EDGE_LOOP('',(#542));
#239=EDGE_LOOP('',(#543,#544,#545,#546,#547));
#240=EDGE_LOOP('',(#548,#549,#550,#551));
#241=EDGE_LOOP('',(#552,#553,#554,#555,#556,#557));
#242=EDGE_LOOP('',(#558));
#243=EDGE_LOOP('',(#559,#560,#561));
#244=EDGE_LOOP('',(#562,#563,#564,#565));
#245=EDGE_LOOP('',(#566,#567,#568,#569));
#246=EDGE_LOOP('',(#570,#571,#572,#573));
#247=EDGE_LOOP('',(#574,#575,#576,#577));
#248=EDGE_LOOP('',(#578,#579,#580,#581));
#249=EDGE_LOOP('',(#582,#583,#584,#585,#586,#587,#588,#589,#590,#591));
#250=CIRCLE('',#648,0.499999999999998);
#251=CIRCLE('',#649,1.5);
#252=CIRCLE('',#650,0.5);
#253=CIRCLE('',#651,2.);
#254=CIRCLE('',#653,0.5);
#255=CIRCLE('',#655,2.);
#256=CIRCLE('',#657,0.5);
#257=CIRCLE('',#658,0.500000000000001);
#258=CIRCLE('',#659,1.5);
#259=CIRCLE('',#661,0.5);
#260=CIRCLE('',#663,0.5);
#261=CIRCLE('',#675,0.75);
#262=CIRCLE('',#676,0.75);
#263=CIRCLE('',#682,1.5);
#264=CIRCLE('',#684,0.499999999999997);
#265=CIRCLE('',#685,2.);
#266=CIRCLE('',#686,0.499999999999998);
#267=CIRCLE('',#687,1.5);
#268=CIRCLE('',#691,2.);
#269=CIRCLE('',#693,0.5);
#270=CIRCLE('',#694,0.5);
#271=CIRCLE('',#697,0.5);
#272=CIRCLE('',#700,0.5);
#273=CIRCLE('',#703,0.5);
#274=CIRCLE('',#704,0.5);
#275=VERTEX_POINT('',#904);
#276=VERTEX_POINT('',#905);
#277=VERTEX_POINT('',#907);
#278=VERTEX_POINT('',#909);
#279=VERTEX_POINT('',#913);
#280=VERTEX_POINT('',#914);
#281=VERTEX_POINT('',#919);
#282=VERTEX_POINT('',#921);
#283=VERTEX_POINT('',#925);
#284=VERTEX_POINT('',#927);
#285=VERTEX_POINT('',#931);
#286=VERTEX_POINT('',#932);
#287=VERTEX_POINT('',#937);
#288=VERTEX_POINT('',#939);
#289=VERTEX_POINT('',#945);
#290=VERTEX_POINT('',#947);
#291=VERTEX_POINT('',#951);
#292=VERTEX_POINT('',#955);
#293=VERTEX_POINT('',#957);
#294=VERTEX_POINT('',#961);
#295=VERTEX_POINT('',#962);
#296=VERTEX_POINT('',#965);
#297=VERTEX_POINT('',#969);
#298=VERTEX_POINT('',#971);
#299=VERTEX_POINT('',#977);
#300=VERTEX_POINT('',#978);
#301=VERTEX_POINT('',#980);
#302=VERTEX_POINT('',#982);
#303=VERTEX_POINT('',#984);
#304=VERTEX_POINT('',#988);
#305=VERTEX_POINT('',#990);
#306=VERTEX_POINT('',#994);
#307=VERTEX_POINT('',#996);
#308=VERTEX_POINT('',#1000);
#309=VERTEX_POINT('',#1002);
#310=VERTEX_POINT('',#1006);
#311=VERTEX_POINT('',#1010);
#312=VERTEX_POINT('',#1012);
#313=VERTEX_POINT('',#1016);
#314=VERTEX_POINT('',#1020);
#315=VERTEX_POINT('',#1022);
#316=VERTEX_POINT('',#1024);
#317=VERTEX_POINT('',#1028);
#318=VERTEX_POINT('',#1029);
#319=VERTEX_POINT('',#1031);
#320=VERTEX_POINT('',#1033);
#321=VERTEX_POINT('',#1037);
#322=VERTEX_POINT('',#1042);
#323=VERTEX_POINT('',#1043);
#324=VERTEX_POINT('',#1053);
#325=VERTEX_POINT('',#1057);
#326=VERTEX_POINT('',#1059);
#327=VERTEX_POINT('',#1064);
#328=EDGE_CURVE('',#275,#276,#250,.T.);
#329=EDGE_CURVE('',#276,#277,#251,.T.);
#330=EDGE_CURVE('',#278,#277,#252,.T.);
#331=EDGE_CURVE('',#278,#275,#253,.T.);
#332=EDGE_CURVE('',#279,#280,#254,.T.);
#333=EDGE_CURVE('',#280,#276,#40,.T.);
#334=EDGE_CURVE('',#275,#279,#41,.T.);
#335=EDGE_CURVE('',#278,#281,#42,.T.);
#336=EDGE_CURVE('',#282,#281,#255,.T.);
#337=EDGE_CURVE('',#282,#275,#43,.T.);
#338=EDGE_CURVE('',#283,#282,#256,.T.);
#339=EDGE_CURVE('',#284,#281,#257,.T.);
#340=EDGE_CURVE('',#284,#283,#258,.T.);
#341=EDGE_CURVE('',#285,#286,#259,.T.);
#342=EDGE_CURVE('',#286,#282,#44,.T.);
#343=EDGE_CURVE('',#283,#285,#45,.T.);
#344=EDGE_CURVE('',#285,#287,#46,.T.);
#345=EDGE_CURVE('',#287,#288,#260,.T.);
#346=EDGE_CURVE('',#288,#286,#47,.T.);
#347=EDGE_CURVE('',#279,#288,#48,.T.);
#348=EDGE_CURVE('',#287,#289,#49,.T.);
#349=EDGE_CURVE('',#289,#290,#50,.T.);
#350=EDGE_CURVE('',#290,#280,#51,.T.);
#351=EDGE_CURVE('',#291,#285,#52,.T.);
#352=EDGE_CURVE('',#291,#289,#53,.T.);
#353=EDGE_CURVE('',#292,#283,#54,.T.);
#354=EDGE_CURVE('',#293,#292,#55,.T.);
#355=EDGE_CURVE('',#291,#293,#56,.T.);
#356=EDGE_CURVE('',#294,#295,#57,.T.);
#357=EDGE_CURVE('',#295,#293,#58,.T.);
#358=EDGE_CURVE('',#293,#296,#59,.T.);
#359=EDGE_CURVE('',#296,#294,#60,.T.);
#360=EDGE_CURVE('',#294,#297,#61,.T.);
#361=EDGE_CURVE('',#297,#298,#62,.T.);
#362=EDGE_CURVE('',#298,#295,#63,.T.);
#363=EDGE_CURVE('',#298,#290,#64,.T.);
#364=EDGE_CURVE('',#299,#300,#18,.T.);
#365=EDGE_CURVE('',#301,#299,#65,.T.);
#366=EDGE_CURVE('',#302,#301,#66,.T.);
#367=EDGE_CURVE('',#303,#302,#67,.T.);
#368=EDGE_CURVE('',#303,#300,#68,.T.);
#369=EDGE_CURVE('',#300,#304,#69,.T.);
#370=EDGE_CURVE('',#305,#303,#70,.T.);
#371=EDGE_CURVE('',#304,#305,#71,.T.);
#372=EDGE_CURVE('',#306,#306,#261,.T.);
#373=EDGE_CURVE('',#306,#307,#72,.T.);
#374=EDGE_CURVE('',#307,#307,#262,.T.);
#375=EDGE_CURVE('',#308,#296,#73,.T.);
#376=EDGE_CURVE('',#309,#308,#74,.T.);
#377=EDGE_CURVE('',#309,#294,#75,.T.);
#378=EDGE_CURVE('',#310,#309,#76,.T.);
#379=EDGE_CURVE('',#310,#297,#77,.T.);
#380=EDGE_CURVE('',#309,#311,#78,.T.);
#381=EDGE_CURVE('',#312,#308,#79,.F.);
#382=EDGE_CURVE('',#312,#311,#80,.T.);
#383=EDGE_CURVE('',#311,#313,#81,.T.);
#384=EDGE_CURVE('',#313,#310,#82,.T.);
#385=EDGE_CURVE('',#314,#313,#83,.T.);
#386=EDGE_CURVE('',#315,#314,#84,.T.);
#387=EDGE_CURVE('',#316,#315,#263,.T.);
#388=EDGE_CURVE('',#277,#316,#85,.T.);
#389=EDGE_CURVE('',#317,#318,#264,.T.);
#390=EDGE_CURVE('',#318,#319,#265,.T.);
#391=EDGE_CURVE('',#319,#320,#266,.T.);
#392=EDGE_CURVE('',#320,#317,#267,.T.);
#393=EDGE_CURVE('',#314,#321,#19,.T.);
#394=EDGE_CURVE('',#302,#313,#86,.T.);
#395=EDGE_CURVE('',#301,#321,#87,.T.);
#396=EDGE_CURVE('',#322,#323,#268,.T.);
#397=EDGE_CURVE('',#322,#319,#88,.T.);
#398=EDGE_CURVE('',#318,#323,#89,.T.);
#399=EDGE_CURVE('',#323,#316,#269,.T.);
#400=EDGE_CURVE('',#322,#315,#270,.T.);
#401=EDGE_CURVE('',#321,#322,#90,.T.);
#402=EDGE_CURVE('',#305,#324,#271,.T.);
#403=EDGE_CURVE('',#312,#324,#91,.T.);
#404=EDGE_CURVE('',#324,#325,#92,.T.);
#405=EDGE_CURVE('',#326,#312,#93,.T.);
#406=EDGE_CURVE('',#320,#326,#94,.T.);
#407=EDGE_CURVE('',#325,#320,#95,.T.);
#408=EDGE_CURVE('',#325,#327,#272,.T.);
#409=EDGE_CURVE('',#319,#327,#96,.T.);
#410=EDGE_CURVE('',#327,#299,#97,.T.);
#411=EDGE_CURVE('',#325,#304,#273,.T.);
#412=EDGE_CURVE('',#304,#327,#274,.T.);
#413=EDGE_CURVE('',#323,#278,#98,.T.);
#414=EDGE_CURVE('',#281,#318,#99,.T.);
#415=EDGE_CURVE('',#317,#284,#100,.T.);
#416=ORIENTED_EDGE('',*,*,#328,.T.);
#417=ORIENTED_EDGE('',*,*,#329,.T.);
#418=ORIENTED_EDGE('',*,*,#330,.F.);
#419=ORIENTED_EDGE('',*,*,#331,.T.);
#420=ORIENTED_EDGE('',*,*,#332,.T.);
#421=ORIENTED_EDGE('',*,*,#333,.T.);
#422=ORIENTED_EDGE('',*,*,#328,.F.);
#423=ORIENTED_EDGE('',*,*,#334,.T.);
#424=ORIENTED_EDGE('',*,*,#331,.F.);
#425=ORIENTED_EDGE('',*,*,#335,.T.);
#426=ORIENTED_EDGE('',*,*,#336,.F.);
#427=ORIENTED_EDGE('',*,*,#337,.T.);
#428=ORIENTED_EDGE('',*,*,#338,.T.);
#429=ORIENTED_EDGE('',*,*,#336,.T.);
#430=ORIENTED_EDGE('',*,*,#339,.F.);
#431=ORIENTED_EDGE('',*,*,#340,.T.);
#432=ORIENTED_EDGE('',*,*,#341,.T.);
#433=ORIENTED_EDGE('',*,*,#342,.T.);
#434=ORIENTED_EDGE('',*,*,#338,.F.);
#435=ORIENTED_EDGE('',*,*,#343,.T.);
#436=ORIENTED_EDGE('',*,*,#341,.F.);
#437=ORIENTED_EDGE('',*,*,#344,.T.);
#438=ORIENTED_EDGE('',*,*,#345,.T.);
#439=ORIENTED_EDGE('',*,*,#346,.T.);
#440=ORIENTED_EDGE('',*,*,#334,.F.);
#441=ORIENTED_EDGE('',*,*,#337,.F.);
#442=ORIENTED_EDGE('',*,*,#342,.F.);
#443=ORIENTED_EDGE('',*,*,#346,.F.);
#444=ORIENTED_EDGE('',*,*,#347,.F.);
#445=ORIENTED_EDGE('',*,*,#332,.F.);
#446=ORIENTED_EDGE('',*,*,#347,.T.);
#447=ORIENTED_EDGE('',*,*,#345,.F.);
#448=ORIENTED_EDGE('',*,*,#348,.T.);
#449=ORIENTED_EDGE('',*,*,#349,.T.);
#450=ORIENTED_EDGE('',*,*,#350,.T.);
#451=ORIENTED_EDGE('',*,*,#344,.F.);
#452=ORIENTED_EDGE('',*,*,#351,.F.);
#453=ORIENTED_EDGE('',*,*,#352,.T.);
#454=ORIENTED_EDGE('',*,*,#348,.F.);
#455=ORIENTED_EDGE('',*,*,#343,.F.);
#456=ORIENTED_EDGE('',*,*,#353,.F.);
#457=ORIENTED_EDGE('',*,*,#354,.F.);
#458=ORIENTED_EDGE('',*,*,#355,.F.);
#459=ORIENTED_EDGE('',*,*,#351,.T.);
#460=ORIENTED_EDGE('',*,*,#356,.T.);
#461=ORIENTED_EDGE('',*,*,#357,.T.);
#462=ORIENTED_EDGE('',*,*,#358,.T.);
#463=ORIENTED_EDGE('',*,*,#359,.T.);
#464=ORIENTED_EDGE('',*,*,#356,.F.);
#465=ORIENTED_EDGE('',*,*,#360,.T.);
#466=ORIENTED_EDGE('',*,*,#361,.T.);
#467=ORIENTED_EDGE('',*,*,#362,.T.);
#468=ORIENTED_EDGE('',*,*,#357,.F.);
#469=ORIENTED_EDGE('',*,*,#362,.F.);
#470=ORIENTED_EDGE('',*,*,#363,.T.);
#471=ORIENTED_EDGE('',*,*,#349,.F.);
#472=ORIENTED_EDGE('',*,*,#352,.F.);
#473=ORIENTED_EDGE('',*,*,#355,.T.);
#474=ORIENTED_EDGE('',*,*,#364,.F.);
#475=ORIENTED_EDGE('',*,*,#365,.F.);
#476=ORIENTED_EDGE('',*,*,#366,.F.);
#477=ORIENTED_EDGE('',*,*,#367,.F.);
#478=ORIENTED_EDGE('',*,*,#368,.T.);
#479=ORIENTED_EDGE('',*,*,#369,.F.);
#480=ORIENTED_EDGE('',*,*,#368,.F.);
#481=ORIENTED_EDGE('',*,*,#370,.F.);
#482=ORIENTED_EDGE('',*,*,#371,.F.);
#483=ORIENTED_EDGE('',*,*,#372,.F.);
#484=ORIENTED_EDGE('',*,*,#373,.T.);
#485=ORIENTED_EDGE('',*,*,#374,.T.);
#486=ORIENTED_EDGE('',*,*,#373,.F.);
#487=ORIENTED_EDGE('',*,*,#375,.F.);
#488=ORIENTED_EDGE('',*,*,#376,.F.);
#489=ORIENTED_EDGE('',*,*,#377,.T.);
#490=ORIENTED_EDGE('',*,*,#359,.F.);
#491=ORIENTED_EDGE('',*,*,#377,.F.);
#492=ORIENTED_EDGE('',*,*,#378,.F.);
#493=ORIENTED_EDGE('',*,*,#379,.T.);
#494=ORIENTED_EDGE('',*,*,#360,.F.);
#495=ORIENTED_EDGE('',*,*,#380,.F.);
#496=ORIENTED_EDGE('',*,*,#376,.T.);
#497=ORIENTED_EDGE('',*,*,#381,.F.);
#498=ORIENTED_EDGE('',*,*,#382,.T.);
#499=ORIENTED_EDGE('',*,*,#380,.T.);
#500=ORIENTED_EDGE('',*,*,#383,.T.);
#501=ORIENTED_EDGE('',*,*,#384,.T.);
#502=ORIENTED_EDGE('',*,*,#378,.T.);
#503=ORIENTED_EDGE('',*,*,#379,.F.);
#504=ORIENTED_EDGE('',*,*,#384,.F.);
#505=ORIENTED_EDGE('',*,*,#385,.F.);
#506=ORIENTED_EDGE('',*,*,#386,.F.);
#507=ORIENTED_EDGE('',*,*,#387,.F.);
#508=ORIENTED_EDGE('',*,*,#388,.F.);
#509=ORIENTED_EDGE('',*,*,#329,.F.);
#510=ORIENTED_EDGE('',*,*,#333,.F.);
#511=ORIENTED_EDGE('',*,*,#350,.F.);
#512=ORIENTED_EDGE('',*,*,#363,.F.);
#513=ORIENTED_EDGE('',*,*,#361,.F.);
#514=ORIENTED_EDGE('',*,*,#389,.T.);
#515=ORIENTED_EDGE('',*,*,#390,.T.);
#516=ORIENTED_EDGE('',*,*,#391,.T.);
#517=ORIENTED_EDGE('',*,*,#392,.T.);
#518=ORIENTED_EDGE('',*,*,#393,.F.);
#519=ORIENTED_EDGE('',*,*,#385,.T.);
#520=ORIENTED_EDGE('',*,*,#394,.F.);
#521=ORIENTED_EDGE('',*,*,#366,.T.);
#522=ORIENTED_EDGE('',*,*,#395,.T.);
#523=ORIENTED_EDGE('',*,*,#396,.F.);
#524=ORIENTED_EDGE('',*,*,#397,.T.);
#525=ORIENTED_EDGE('',*,*,#390,.F.);
#526=ORIENTED_EDGE('',*,*,#398,.T.);
#527=ORIENTED_EDGE('',*,*,#399,.T.);
#528=ORIENTED_EDGE('',*,*,#387,.T.);
#529=ORIENTED_EDGE('',*,*,#400,.F.);
#530=ORIENTED_EDGE('',*,*,#396,.T.);
#531=ORIENTED_EDGE('',*,*,#393,.T.);
#532=ORIENTED_EDGE('',*,*,#401,.T.);
#533=ORIENTED_EDGE('',*,*,#400,.T.);
#534=ORIENTED_EDGE('',*,*,#386,.T.);
#535=ORIENTED_EDGE('',*,*,#402,.F.);
#536=ORIENTED_EDGE('',*,*,#370,.T.);
#537=ORIENTED_EDGE('',*,*,#367,.T.);
#538=ORIENTED_EDGE('',*,*,#394,.T.);
#539=ORIENTED_EDGE('',*,*,#383,.F.);
#540=ORIENTED_EDGE('',*,*,#382,.F.);
#541=ORIENTED_EDGE('',*,*,#403,.T.);
#542=ORIENTED_EDGE('',*,*,#374,.F.);
#543=ORIENTED_EDGE('',*,*,#404,.F.);
#544=ORIENTED_EDGE('',*,*,#403,.F.);
#545=ORIENTED_EDGE('',*,*,#405,.F.);
#546=ORIENTED_EDGE('',*,*,#406,.F.);
#547=ORIENTED_EDGE('',*,*,#407,.F.);
#548=ORIENTED_EDGE('',*,*,#408,.F.);
#549=ORIENTED_EDGE('',*,*,#407,.T.);
#550=ORIENTED_EDGE('',*,*,#391,.F.);
#551=ORIENTED_EDGE('',*,*,#409,.T.);
#552=ORIENTED_EDGE('',*,*,#410,.F.);
#553=ORIENTED_EDGE('',*,*,#409,.F.);
#554=ORIENTED_EDGE('',*,*,#397,.F.);
#555=ORIENTED_EDGE('',*,*,#401,.F.);
#556=ORIENTED_EDGE('',*,*,#395,.F.);
#557=ORIENTED_EDGE('',*,*,#365,.T.);
#558=ORIENTED_EDGE('',*,*,#372,.T.);
#559=ORIENTED_EDGE('',*,*,#411,.F.);
#560=ORIENTED_EDGE('',*,*,#408,.T.);
#561=ORIENTED_EDGE('',*,*,#412,.F.);
#562=ORIENTED_EDGE('',*,*,#402,.T.);
#563=ORIENTED_EDGE('',*,*,#404,.T.);
#564=ORIENTED_EDGE('',*,*,#411,.T.);
#565=ORIENTED_EDGE('',*,*,#371,.T.);
#566=ORIENTED_EDGE('',*,*,#364,.T.);
#567=ORIENTED_EDGE('',*,*,#369,.T.);
#568=ORIENTED_EDGE('',*,*,#412,.T.);
#569=ORIENTED_EDGE('',*,*,#410,.T.);
#570=ORIENTED_EDGE('',*,*,#388,.T.);
#571=ORIENTED_EDGE('',*,*,#399,.F.);
#572=ORIENTED_EDGE('',*,*,#413,.T.);
#573=ORIENTED_EDGE('',*,*,#330,.T.);
#574=ORIENTED_EDGE('',*,*,#413,.F.);
#575=ORIENTED_EDGE('',*,*,#398,.F.);
#576=ORIENTED_EDGE('',*,*,#414,.F.);
#577=ORIENTED_EDGE('',*,*,#335,.F.);
#578=ORIENTED_EDGE('',*,*,#414,.T.);
#579=ORIENTED_EDGE('',*,*,#389,.F.);
#580=ORIENTED_EDGE('',*,*,#415,.T.);
#581=ORIENTED_EDGE('',*,*,#339,.T.);
#582=ORIENTED_EDGE('',*,*,#415,.F.);
#583=ORIENTED_EDGE('',*,*,#392,.F.);
#584=ORIENTED_EDGE('',*,*,#406,.T.);
#585=ORIENTED_EDGE('',*,*,#405,.T.);
#586=ORIENTED_EDGE('',*,*,#381,.T.);
#587=ORIENTED_EDGE('',*,*,#375,.T.);
#588=ORIENTED_EDGE('',*,*,#358,.F.);
#589=ORIENTED_EDGE('',*,*,#354,.T.);
#590=ORIENTED_EDGE('',*,*,#353,.T.);
#591=ORIENTED_EDGE('',*,*,#340,.F.);
#592=TOROIDAL_SURFACE('',#647,1.5,0.5);
#593=TOROIDAL_SURFACE('',#656,1.5,0.5);
#594=TOROIDAL_SURFACE('',#683,1.5,0.5);
#595=TOROIDAL_SURFACE('',#692,1.5,0.5);
#596=ADVANCED_FACE('',(#174),#592,.T.);
#597=ADVANCED_FACE('',(#175),#162,.T.);
#598=ADVANCED_FACE('',(#176),#163,.T.);
#599=ADVANCED_FACE('',(#177),#593,.T.);
#600=ADVANCED_FACE('',(#178),#164,.T.);
#601=ADVANCED_FACE('',(#179),#165,.T.);
#602=ADVANCED_FACE('',(#180),#20,.T.);
#603=ADVANCED_FACE('',(#181),#21,.T.);
#604=ADVANCED_FACE('',(#182),#22,.T.);
#605=ADVANCED_FACE('',(#183),#23,.T.);
#606=ADVANCED_FACE('',(#184),#24,.T.);
#607=ADVANCED_FACE('',(#185),#25,.T.);
#608=ADVANCED_FACE('',(#186),#26,.F.);
#609=ADVANCED_FACE('',(#187),#27,.T.);
#610=ADVANCED_FACE('',(#188),#28,.T.);
#611=ADVANCED_FACE('',(#189),#166,.F.);
#612=ADVANCED_FACE('',(#190),#29,.T.);
#613=ADVANCED_FACE('',(#191),#30,.T.);
#614=ADVANCED_FACE('',(#192),#31,.T.);
#615=ADVANCED_FACE('',(#193),#32,.T.);
#616=ADVANCED_FACE('',(#194),#33,.T.);
#617=ADVANCED_FACE('',(#195),#594,.T.);
#618=ADVANCED_FACE('',(#196),#34,.T.);
#619=ADVANCED_FACE('',(#197),#167,.T.);
#620=ADVANCED_FACE('',(#198),#595,.T.);
#621=ADVANCED_FACE('',(#199),#168,.T.);
#622=ADVANCED_FACE('',(#200,#16),#35,.F.);
#623=ADVANCED_FACE('',(#201),#36,.T.);
#624=ADVANCED_FACE('',(#202),#169,.T.);
#625=ADVANCED_FACE('',(#203,#17),#37,.T.);
#626=ADVANCED_FACE('',(#204),#15,.T.);
#627=ADVANCED_FACE('',(#205),#170,.T.);
#628=ADVANCED_FACE('',(#206),#171,.T.);
#629=ADVANCED_FACE('',(#207),#172,.T.);
#630=ADVANCED_FACE('',(#208),#38,.T.);
#631=ADVANCED_FACE('',(#209),#173,.T.);
#632=ADVANCED_FACE('',(#210),#39,.T.);
#633=CLOSED_SHELL('',(#596,#597,#598,#599,#600,#601,#602,#603,#604,#605,
#606,#607,#608,#609,#610,#611,#612,#613,#614,#615,#616,#617,#618,#619,#620,
#621,#622,#623,#624,#625,#626,#627,#628,#629,#630,#631,#632));
#634=DERIVED_UNIT_ELEMENT(#636,1.);
#635=DERIVED_UNIT_ELEMENT(#1086,-3.);
#636=(
MASS_UNIT()
NAMED_UNIT(*)
SI_UNIT(.KILO.,.GRAM.)
);
#637=DERIVED_UNIT((#634,#635));
#638=MEASURE_REPRESENTATION_ITEM('density measure',
POSITIVE_RATIO_MEASURE(7850.),#637);
#639=PROPERTY_DEFINITION_REPRESENTATION(#644,#641);
#640=PROPERTY_DEFINITION_REPRESENTATION(#645,#642);
#641=REPRESENTATION('material name',(#643),#1083);
#642=REPRESENTATION('density',(#638),#1083);
#643=DESCRIPTIVE_REPRESENTATION_ITEM('\X2\92FC\X0\','\X2\92FC\X0\');
#644=PROPERTY_DEFINITION('material property','material name',#1093);
#645=PROPERTY_DEFINITION('material property','density of part',#1093);
#646=AXIS2_PLACEMENT_3D('',#902,#711,#712);
#647=AXIS2_PLACEMENT_3D('',#903,#713,#714);
#648=AXIS2_PLACEMENT_3D('',#906,#715,#716);
#649=AXIS2_PLACEMENT_3D('',#908,#717,#718);
#650=AXIS2_PLACEMENT_3D('',#910,#719,#720);
#651=AXIS2_PLACEMENT_3D('',#911,#721,#722);
#652=AXIS2_PLACEMENT_3D('',#912,#723,#724);
#653=AXIS2_PLACEMENT_3D('',#915,#725,#726);
#654=AXIS2_PLACEMENT_3D('',#918,#729,#730);
#655=AXIS2_PLACEMENT_3D('',#922,#732,#733);
#656=AXIS2_PLACEMENT_3D('',#924,#735,#736);
#657=AXIS2_PLACEMENT_3D('',#926,#737,#738);
#658=AXIS2_PLACEMENT_3D('',#928,#739,#740);
#659=AXIS2_PLACEMENT_3D('',#929,#741,#742);
#660=AXIS2_PLACEMENT_3D('',#930,#743,#744);
#661=AXIS2_PLACEMENT_3D('',#933,#745,#746);
#662=AXIS2_PLACEMENT_3D('',#936,#749,#750);
#663=AXIS2_PLACEMENT_3D('',#940,#752,#753);
#664=AXIS2_PLACEMENT_3D('',#942,#755,#756);
#665=AXIS2_PLACEMENT_3D('',#944,#758,#759);
#666=AXIS2_PLACEMENT_3D('',#950,#763,#764);
#667=AXIS2_PLACEMENT_3D('',#954,#767,#768);
#668=AXIS2_PLACEMENT_3D('',#960,#772,#773);
#669=AXIS2_PLACEMENT_3D('',#968,#778,#779);
#670=AXIS2_PLACEMENT_3D('',#974,#783,#784);
#671=AXIS2_PLACEMENT_3D('',#976,#786,#787);
#672=AXIS2_PLACEMENT_3D('',#979,#788,#789);
#673=AXIS2_PLACEMENT_3D('',#987,#794,#795);
#674=AXIS2_PLACEMENT_3D('',#993,#799,#800);
#675=AXIS2_PLACEMENT_3D('',#995,#801,#802);
#676=AXIS2_PLACEMENT_3D('',#998,#804,#805);
#677=AXIS2_PLACEMENT_3D('',#999,#806,#807);
#678=AXIS2_PLACEMENT_3D('',#1005,#811,#812);
#679=AXIS2_PLACEMENT_3D('',#1009,#815,#816);
#680=AXIS2_PLACEMENT_3D('',#1015,#820,#821);
#681=AXIS2_PLACEMENT_3D('',#1019,#824,#825);
#682=AXIS2_PLACEMENT_3D('',#1025,#828,#829);
#683=AXIS2_PLACEMENT_3D('',#1027,#831,#832);
#684=AXIS2_PLACEMENT_3D('',#1030,#833,#834);
#685=AXIS2_PLACEMENT_3D('',#1032,#835,#836);
#686=AXIS2_PLACEMENT_3D('',#1034,#837,#838);
#687=AXIS2_PLACEMENT_3D('',#1035,#839,#840);
#688=AXIS2_PLACEMENT_3D('',#1036,#841,#842);
#689=AXIS2_PLACEMENT_3D('',#1038,#843,#844);
#690=AXIS2_PLACEMENT_3D('',#1041,#847,#848);
#691=AXIS2_PLACEMENT_3D('',#1044,#849,#850);
#692=AXIS2_PLACEMENT_3D('',#1047,#853,#854);
#693=AXIS2_PLACEMENT_3D('',#1048,#855,#856);
#694=AXIS2_PLACEMENT_3D('',#1049,#857,#858);
#695=AXIS2_PLACEMENT_3D('',#1050,#859,#860);
#696=AXIS2_PLACEMENT_3D('',#1052,#862,#863);
#697=AXIS2_PLACEMENT_3D('',#1054,#864,#865);
#698=AXIS2_PLACEMENT_3D('',#1056,#867,#868);
#699=AXIS2_PLACEMENT_3D('',#1063,#873,#874);
#700=AXIS2_PLACEMENT_3D('',#1065,#875,#876);
#701=AXIS2_PLACEMENT_3D('',#1067,#878,#879);
#702=AXIS2_PLACEMENT_3D('',#1069,#881,#882);
#703=AXIS2_PLACEMENT_3D('',#1070,#883,#884);
#704=AXIS2_PLACEMENT_3D('',#1071,#885,#886);
#705=AXIS2_PLACEMENT_3D('',#1072,#887,#888);
#706=AXIS2_PLACEMENT_3D('',#1073,#889,#890);
#707=AXIS2_PLACEMENT_3D('',#1074,#891,#892);
#708=AXIS2_PLACEMENT_3D('',#1076,#894,#895);
#709=AXIS2_PLACEMENT_3D('',#1078,#897,#898);
#710=AXIS2_PLACEMENT_3D('',#1080,#900,#901);
#711=DIRECTION('axis',(0.,0.,1.));
#712=DIRECTION('refdir',(1.,0.,0.));
#713=DIRECTION('center_axis',(-1.,0.,0.));
#714=DIRECTION('ref_axis',(0.,0.,1.));
#715=DIRECTION('center_axis',(0.,-1.,0.));
#716=DIRECTION('ref_axis',(0.,0.,-1.));
#717=DIRECTION('center_axis',(-1.,0.,0.));
#718=DIRECTION('ref_axis',(0.,-0.707106781186548,-0.707106781186548));
#719=DIRECTION('center_axis',(0.,0.,1.));
#720=DIRECTION('ref_axis',(0.,-1.,0.));
#721=DIRECTION('center_axis',(1.,0.,0.));
#722=DIRECTION('ref_axis',(0.,-0.707106781186548,-0.707106781186548));
#723=DIRECTION('center_axis',(0.,1.,0.));
#724=DIRECTION('ref_axis',(0.707106781186546,0.,-0.707106781186549));
#725=DIRECTION('center_axis',(0.,-1.,0.));
#726=DIRECTION('ref_axis',(0.707106781186546,0.,-0.707106781186549));
#727=DIRECTION('',(0.,-1.,0.));
#728=DIRECTION('',(0.,1.,0.));
#729=DIRECTION('center_axis',(-1.,0.,0.));
#730=DIRECTION('ref_axis',(0.,-0.707106781186548,-0.707106781186548));
#731=DIRECTION('',(-1.,0.,0.));
#732=DIRECTION('center_axis',(-0.999999999999997,7.45057973650107E-8,0.));
#733=DIRECTION('ref_axis',(-5.26835522082771E-8,-0.707106749670012,-0.70710681270308));
#734=DIRECTION('',(1.,0.,0.));
#735=DIRECTION('center_axis',(0.999999999999997,-7.45057973650107E-8,0.));
#736=DIRECTION('ref_axis',(0.,0.,-1.));
#737=DIRECTION('center_axis',(-7.45057970874486E-8,-0.999999999999922,3.8743019903361E-7));
#738=DIRECTION('ref_axis',(-0.999999999999997,7.45057970874541E-8,0.));
#739=DIRECTION('center_axis',(0.,0.,1.));
#740=DIRECTION('ref_axis',(-0.999999999999997,7.4505797087454E-8,0.));
#741=DIRECTION('center_axis',(0.999999999999997,-7.45057973650107E-8,0.));
#742=DIRECTION('ref_axis',(-5.26835522063453E-8,-0.707106749670011,-0.70710681270308));
#743=DIRECTION('center_axis',(-7.4505812353021E-8,0.999999999999997,0.));
#744=DIRECTION('ref_axis',(-0.707106781186543,-5.26835669189873E-8,-0.70710678118655));
#745=DIRECTION('center_axis',(7.45058104101304E-8,-0.999999999999997,0.));
#746=DIRECTION('ref_axis',(-0.999999999999997,-7.45058104101304E-8,0.));
#747=DIRECTION('',(7.4505812353021E-8,-0.999999999999997,0.));
#748=DIRECTION('',(-7.4505812353021E-8,0.999999999999997,0.));
#749=DIRECTION('center_axis',(0.,1.,0.));
#750=DIRECTION('ref_axis',(-0.707106781186549,0.,-0.707106781186546));
#751=DIRECTION('',(0.,1.,0.));
#752=DIRECTION('center_axis',(0.,-1.,0.));
#753=DIRECTION('ref_axis',(-0.707106781186549,0.,-0.707106781186546));
#754=DIRECTION('',(0.,-1.,0.));
#755=DIRECTION('center_axis',(0.,0.,-1.));
#756=DIRECTION('ref_axis',(-1.,0.,0.));
#757=DIRECTION('',(-1.,0.,0.));
#758=DIRECTION('center_axis',(0.,1.,0.));
#759=DIRECTION('ref_axis',(0.,0.,1.));
#760=DIRECTION('',(0.,0.,1.));
#761=DIRECTION('',(1.,0.,0.));
#762=DIRECTION('',(0.,0.,-1.));
#763=DIRECTION('center_axis',(-1.,0.,0.));
#764=DIRECTION('ref_axis',(0.,0.,1.));
#765=DIRECTION('',(0.,0.,-1.));
#766=DIRECTION('',(0.,1.,0.));
#767=DIRECTION('center_axis',(-0.999999999999997,-7.4505812353021E-8,0.));
#768=DIRECTION('ref_axis',(-7.4505812353021E-8,0.999999999999997,0.));
#769=DIRECTION('',(0.,0.,-1.));
#770=DIRECTION('',(7.4505812353021E-8,-0.999999999999997,0.));
#771=DIRECTION('',(7.4505812353021E-8,-0.999999999999997,0.));
#772=DIRECTION('center_axis',(0.,0.707106781186548,0.707106781186548));
#773=DIRECTION('ref_axis',(1.,0.,0.));
#774=DIRECTION('',(0.,0.707106781186547,-0.707106781186547));
#775=DIRECTION('',(-1.,0.,0.));
#776=DIRECTION('',(-5.26835545545099E-8,-0.707106781186547,0.707106781186547));
#777=DIRECTION('',(1.,0.,0.));
#778=DIRECTION('center_axis',(4.0641603136173E-8,0.707106781186547,0.707106781186547));
#779=DIRECTION('ref_axis',(0.999999999999998,0.,-5.74759063517607E-8));
#780=DIRECTION('',(0.999999999999998,-5.74759063517607E-8,0.));
#781=DIRECTION('',(0.,0.707106781186548,-0.707106781186547));
#782=DIRECTION('',(-0.999999999999998,5.74759063517607E-8,0.));
#783=DIRECTION('center_axis',(0.,0.,-1.));
#784=DIRECTION('ref_axis',(1.,0.,0.));
#785=DIRECTION('',(0.,1.,0.));
#786=DIRECTION('center_axis',(0.704376245525368,0.709826813201351,0.));
#787=DIRECTION('ref_axis',(-0.709826813201351,0.704376245525368,0.));
#788=DIRECTION('center_axis',(-0.704376245525368,-0.709826813201351,0.));
#789=DIRECTION('ref_axis',(-0.709826813201351,0.704376245525368,-1.46627761083991E-16));
#790=DIRECTION('',(-0.709826813201351,0.704376245525368,0.));
#791=DIRECTION('',(0.,0.,1.));
#792=DIRECTION('',(0.709826813201351,-0.704376245525368,0.));
#793=DIRECTION('',(0.,0.,1.));
#794=DIRECTION('center_axis',(0.,1.,0.));
#795=DIRECTION('ref_axis',(-1.,0.,0.));
#796=DIRECTION('',(-1.,0.,0.));
#797=DIRECTION('',(1.,0.,0.));
#798=DIRECTION('',(0.,0.,-1.));
#799=DIRECTION('center_axis',(0.,0.,1.));
#800=DIRECTION('ref_axis',(-1.,0.,0.));
#801=DIRECTION('center_axis',(0.,0.,-1.));
#802=DIRECTION('ref_axis',(-1.,0.,0.));
#803=DIRECTION('',(0.,0.,-1.));
#804=DIRECTION('center_axis',(0.,0.,-1.));
#805=DIRECTION('ref_axis',(-1.,0.,0.));
#806=DIRECTION('center_axis',(0.,1.,0.));
#807=DIRECTION('ref_axis',(1.,0.,0.));
#808=DIRECTION('',(0.,0.,-1.));
#809=DIRECTION('',(-1.,0.,0.));
#810=DIRECTION('',(0.,0.,-1.));
#811=DIRECTION('center_axis',(5.74759063517607E-8,0.999999999999998,0.));
#812=DIRECTION('ref_axis',(0.999999999999998,-5.74759063517607E-8,0.));
#813=DIRECTION('',(-0.999999999999998,5.74759063517607E-8,0.));
#814=DIRECTION('',(0.,0.,-1.));
#815=DIRECTION('center_axis',(0.,0.707106781186547,-0.707106781186548));
#816=DIRECTION('ref_axis',(-1.,0.,0.));
#817=DIRECTION('',(4.06416030688833E-8,0.707106781186547,0.707106781186547));
#818=DIRECTION('',(5.26835545545099E-8,0.707106781186547,0.707106781186546));
#819=DIRECTION('',(1.,0.,0.));
#820=DIRECTION('center_axis',(4.06416031361729E-8,0.707106781186545,-0.707106781186548));
#821=DIRECTION('ref_axis',(-0.999999999999998,0.,-5.74759063517605E-8));
#822=DIRECTION('',(0.999999999999998,-5.74759063517607E-8,0.));
#823=DIRECTION('',(0.,-0.707106781186549,-0.707106781186546));
#824=DIRECTION('center_axis',(1.,0.,0.));
#825=DIRECTION('ref_axis',(0.,-1.,0.));
#826=DIRECTION('',(0.,0.,-1.));
#827=DIRECTION('',(0.,1.,0.));
#828=DIRECTION('center_axis',(-1.,0.,0.));
#829=DIRECTION('ref_axis',(0.,-0.707106781186547,0.707106781186548));
#830=DIRECTION('',(0.,0.,1.));
#831=DIRECTION('center_axis',(0.999999999999997,-7.45057973650107E-8,0.));
#832=DIRECTION('ref_axis',(-5.26835508551925E-8,-0.707106735527457,0.707106826845633));
#833=DIRECTION('center_axis',(2.06795128486354E-23,2.77555756156287E-16,
1.));
#834=DIRECTION('ref_axis',(-0.999999999999997,7.45057970874545E-8,0.));
#835=DIRECTION('center_axis',(-0.999999999999997,7.45057973650107E-8,0.));
#836=DIRECTION('ref_axis',(-5.2683552208277E-8,-0.707106749670011,0.707106812703081));
#837=DIRECTION('center_axis',(-4.61935996121065E-7,-0.999999999999893,0.));
#838=DIRECTION('ref_axis',(0.,0.,1.));
#839=DIRECTION('center_axis',(0.999999999999997,-7.45057973650107E-8,0.));
#840=DIRECTION('ref_axis',(-5.26835522063453E-8,-0.707106749670011,0.707106812703081));
#841=DIRECTION('center_axis',(0.707106781186548,0.707106781186548,0.));
#842=DIRECTION('ref_axis',(0.707106781186548,-0.707106781186548,0.));
#843=DIRECTION('center_axis',(-0.707106781186548,-0.707106781186548,0.));
#844=DIRECTION('ref_axis',(0.707106781186547,-0.707106781186547,0.));
#845=DIRECTION('',(0.707106781186548,-0.707106781186548,0.));
#846=DIRECTION('',(0.707106781186548,-0.707106781186548,0.));
#847=DIRECTION('center_axis',(1.,0.,0.));
#848=DIRECTION('ref_axis',(0.,-0.707106781186547,0.707106781186548));
#849=DIRECTION('center_axis',(1.,0.,0.));
#850=DIRECTION('ref_axis',(0.,-0.707106781186547,0.707106781186548));
#851=DIRECTION('',(-1.,0.,0.));
#852=DIRECTION('',(1.,0.,0.));
#853=DIRECTION('center_axis',(-1.,0.,0.));
#854=DIRECTION('ref_axis',(0.,0.,1.));
#855=DIRECTION('center_axis',(0.,0.,1.));
#856=DIRECTION('ref_axis',(0.,-1.,0.));
#857=DIRECTION('center_axis',(0.,1.,0.));
#858=DIRECTION('ref_axis',(0.,0.,1.));
#859=DIRECTION('center_axis',(0.,-1.,0.));
#860=DIRECTION('ref_axis',(0.707106781186548,0.,0.707106781186547));
#861=DIRECTION('',(0.,-1.,0.));
#862=DIRECTION('center_axis',(0.,0.,1.));
#863=DIRECTION('ref_axis',(-1.,0.,0.));
#864=DIRECTION('center_axis',(0.,0.,1.));
#865=DIRECTION('ref_axis',(-0.707106781186548,0.707106781186548,0.));
#866=DIRECTION('',(0.,1.,0.));
#867=DIRECTION('center_axis',(-1.,0.,0.));
#868=DIRECTION('ref_axis',(0.,-1.,0.));
#869=DIRECTION('',(0.,0.,1.));
#870=DIRECTION('',(0.,1.,0.));
#871=DIRECTION('',(0.,0.,-1.));
#872=DIRECTION('',(0.,-1.,0.));
#873=DIRECTION('center_axis',(0.,-1.,0.));
#874=DIRECTION('ref_axis',(-0.707106781186548,0.,0.707106781186547));
#875=DIRECTION('center_axis',(0.,1.,0.));
#876=DIRECTION('ref_axis',(-0.707106781186548,0.,0.707106781186547));
#877=DIRECTION('',(0.,1.,0.));
#878=DIRECTION('center_axis',(0.,0.,1.));
#879=DIRECTION('ref_axis',(-1.,0.,0.));
#880=DIRECTION('',(1.,0.,0.));
#881=DIRECTION('center_axis',(-0.816496580927726,-0.408248290463863,-0.408248290463863));
#882=DIRECTION('ref_axis',(-0.577350269189626,0.577350269189626,0.577350269189625));
#883=DIRECTION('center_axis',(0.,0.,-1.));
#884=DIRECTION('ref_axis',(-1.,0.,0.));
#885=DIRECTION('center_axis',(1.,0.,0.));
#886=DIRECTION('ref_axis',(0.,1.,0.));
#887=DIRECTION('center_axis',(0.,0.,1.));
#888=DIRECTION('ref_axis',(-0.707106781186548,0.707106781186548,0.));
#889=DIRECTION('center_axis',(-1.,0.,0.));
#890=DIRECTION('ref_axis',(0.,0.707106781186548,0.707106781186547));
#891=DIRECTION('center_axis',(0.,0.,-1.));
#892=DIRECTION('ref_axis',(0.707106781186546,-0.707106781186549,0.));
#893=DIRECTION('',(0.,0.,-1.));
#894=DIRECTION('center_axis',(0.,-1.,0.));
#895=DIRECTION('ref_axis',(-1.,0.,0.));
#896=DIRECTION('',(0.,0.,1.));
#897=DIRECTION('center_axis',(0.,0.,-1.));
#898=DIRECTION('ref_axis',(-0.707106807528324,-0.70710675484477,0.));
#899=DIRECTION('',(0.,0.,-1.));
#900=DIRECTION('center_axis',(-0.999999999999997,7.45057973650107E-8,0.));
#901=DIRECTION('ref_axis',(7.45057973650107E-8,0.999999999999997,0.));
#902=CARTESIAN_POINT('',(0.,0.,0.));
#903=CARTESIAN_POINT('Origin',(-3.0000000372529,-13.500000230968,-12.));
#904=CARTESIAN_POINT('',(-3.0000000372529,-13.500000230968,-14.));
#905=CARTESIAN_POINT('',(-2.5000000372529,-13.500000230968,-13.5));
#906=CARTESIAN_POINT('Origin',(-3.0000000372529,-13.500000230968,-13.5));
#907=CARTESIAN_POINT('',(-2.5000000372529,-15.000000230968,-12.));
#908=CARTESIAN_POINT('Origin',(-2.5000000372529,-13.500000230968,-12.));
#909=CARTESIAN_POINT('',(-3.0000000372529,-15.500000230968,-12.));
#910=CARTESIAN_POINT('Origin',(-3.0000000372529,-15.000000230968,-12.));
#911=CARTESIAN_POINT('Origin',(-3.0000000372529,-13.500000230968,-12.));
#912=CARTESIAN_POINT('Origin',(-3.0000000372529,-13.0000001937151,-13.5));
#913=CARTESIAN_POINT('',(-3.0000000372529,-10.5000001713634,-14.));
#914=CARTESIAN_POINT('',(-2.5000000372529,-10.5000001713634,-13.5));
#915=CARTESIAN_POINT('Origin',(-3.0000000372529,-10.5000001713634,-13.5));
#916=CARTESIAN_POINT('',(-2.5000000372529,-13.0000001937151,-13.5));
#917=CARTESIAN_POINT('',(-3.0000000372529,-13.0000001937151,-14.));
#918=CARTESIAN_POINT('Origin',(-4.37500006519258,-13.500000230968,-12.));
#919=CARTESIAN_POINT('',(-9.50000011175871,-15.500000230968,-12.));
#920=CARTESIAN_POINT('',(-4.37500006519258,-15.500000230968,-12.));
#921=CARTESIAN_POINT('',(-9.50000000000002,-13.500000230968,-14.));
#922=CARTESIAN_POINT('Origin',(-9.50000000000002,-13.500000230968,-12.));
#923=CARTESIAN_POINT('',(-4.37500006519258,-13.500000230968,-14.));
#924=CARTESIAN_POINT('Origin',(-9.50000000000002,-13.500000230968,-12.));
#925=CARTESIAN_POINT('',(-10.,-13.5,-13.5));
#926=CARTESIAN_POINT('Origin',(-9.5,-13.5000000372529,-13.5));
#927=CARTESIAN_POINT('',(-10.0000001117587,-15.0000001937151,-12.));
#928=CARTESIAN_POINT('Origin',(-9.50000011175871,-15.000000230968,-12.));
#929=CARTESIAN_POINT('Origin',(-10.,-13.5000001937151,-12.));
#930=CARTESIAN_POINT('Origin',(-9.49999999999998,-13.5000002030283,-13.5));
#931=CARTESIAN_POINT('',(-10.0000001490116,-11.5000001713634,-13.5));
#932=CARTESIAN_POINT('',(-9.50000014901161,-11.5000001341104,-14.));
#933=CARTESIAN_POINT('Origin',(-9.50000014901161,-11.5000001341104,-13.5));
#934=CARTESIAN_POINT('',(-9.49999999999998,-13.5000002030283,-14.));
#935=CARTESIAN_POINT('',(-9.99999999999998,-13.5000002402812,-13.5));
#936=CARTESIAN_POINT('Origin',(-9.50000014901161,-12.5000001862645,-13.5));
#937=CARTESIAN_POINT('',(-10.0000001490116,-10.5000001713634,-13.5));
#938=CARTESIAN_POINT('',(-10.0000001490116,-12.5000001862645,-13.5));
#939=CARTESIAN_POINT('',(-9.50000014901161,-10.5000001713634,-14.));
#940=CARTESIAN_POINT('Origin',(-9.50000014901161,-10.5000001713634,-13.5));
#941=CARTESIAN_POINT('',(-9.50000014901161,-12.5000001862645,-14.));
#942=CARTESIAN_POINT('Origin',(-6.25000009313226,-13.5000002011657,-14.));
#943=CARTESIAN_POINT('',(-2.5000000372529,-10.5000001713634,-14.));
#944=CARTESIAN_POINT('Origin',(-10.0000001490116,-10.5000001713634,-12.));
#945=CARTESIAN_POINT('',(-10.0000001490116,-10.5000001713634,-12.));
#946=CARTESIAN_POINT('',(-10.0000001490116,-10.5000001713634,-12.));
#947=CARTESIAN_POINT('',(-2.5000000372529,-10.5000001713634,-12.));
#948=CARTESIAN_POINT('',(-2.5000000372529,-10.5000001713634,-12.));
#949=CARTESIAN_POINT('',(-2.5000000372529,-10.5000001713634,-12.));
#950=CARTESIAN_POINT('Origin',(-10.0000001490116,-11.5000001713634,-14.));
#951=CARTESIAN_POINT('',(-10.0000001490116,-11.5000001713634,-12.));
#952=CARTESIAN_POINT('',(-10.0000001490116,-11.5000001713634,-12.));
#953=CARTESIAN_POINT('',(-10.0000001490116,-11.5000001713634,-12.));
#954=CARTESIAN_POINT('Origin',(-10.,-13.5,-12.));
#955=CARTESIAN_POINT('',(-10.,-13.5,-12.));
#956=CARTESIAN_POINT('',(-10.,-13.5,-12.));
#957=CARTESIAN_POINT('',(-10.0000000745058,-12.5,-12.));
#958=CARTESIAN_POINT('',(-10.0000001490116,-11.5000001713634,-12.));
#959=CARTESIAN_POINT('',(-10.0000001490116,-11.5000001713634,-12.));
#960=CARTESIAN_POINT('Origin',(-8.12500004656613,-13.,-11.5));
#961=CARTESIAN_POINT('',(-6.00000008940697,-13.5,-11.));
#962=CARTESIAN_POINT('',(-6.00000008940697,-12.5,-12.));
#963=CARTESIAN_POINT('',(-6.00000008940697,-13.5,-11.));
#964=CARTESIAN_POINT('',(-8.12500004656613,-12.5,-12.));
#965=CARTESIAN_POINT('',(-10.,-13.5,-11.));
#966=CARTESIAN_POINT('',(-10.0000002235174,-16.5000000228174,-7.9999999771826));
#967=CARTESIAN_POINT('',(-8.12500004656613,-13.5,-11.));
#968=CARTESIAN_POINT('Origin',(-6.12500006253165,-12.9999999928155,-11.5));
#969=CARTESIAN_POINT('',(-2.5000000372529,-13.5000002011657,-11.));
#970=CARTESIAN_POINT('',(-6.12500009126961,-13.4999999928155,-11.));
#971=CARTESIAN_POINT('',(-2.5000000372529,-12.5000002011657,-12.));
#972=CARTESIAN_POINT('',(-2.5000000372529,-15.7500001453528,-8.75000005581283));
#973=CARTESIAN_POINT('',(-6.1250000337937,-12.4999999928155,-12.));
#974=CARTESIAN_POINT('Origin',(-6.25000009313226,-13.5000002011657,-12.));
#975=CARTESIAN_POINT('',(-2.5000000372529,-11.5000001713634,-12.));
#976=CARTESIAN_POINT('Origin',(-6.00000008940697,-9.00000013411045,0.));
#977=CARTESIAN_POINT('',(-8.51934550459984,-6.50000008940697,3.));
#978=CARTESIAN_POINT('',(-9.02321457862854,-6.00000008940697,2.5));
#979=CARTESIAN_POINT('Origin',(-8.51934550459985,-6.50000008940697,2.5));
#980=CARTESIAN_POINT('',(-6.00000008940697,-9.00000013411045,3.));
#981=CARTESIAN_POINT('',(-9.02321457862854,-6.00000008940697,3.));
#982=CARTESIAN_POINT('',(-6.00000008940697,-9.00000013411045,0.));
#983=CARTESIAN_POINT('',(-6.00000008940697,-9.00000013411045,0.));
#984=CARTESIAN_POINT('',(-9.02321457862854,-6.00000008940697,0.));
#985=CARTESIAN_POINT('',(-9.02321457862854,-6.00000008940697,0.));
#986=CARTESIAN_POINT('',(-9.02321457862854,-6.00000008940697,0.));
#987=CARTESIAN_POINT('Origin',(-9.02321457862854,-6.00000008940697,0.));
#988=CARTESIAN_POINT('',(-9.5,-6.00000008940697,2.5));
#989=CARTESIAN_POINT('',(-8.51160734891891,-6.00000008940697,2.5));
#990=CARTESIAN_POINT('',(-9.5,-6.00000008940697,0.));
#991=CARTESIAN_POINT('',(-10.0000001490116,-6.00000008940697,0.));
#992=CARTESIAN_POINT('',(-9.5,-6.00000008940697,0.));
#993=CARTESIAN_POINT('Origin',(-8.50000012665987,-8.50000012665987,0.));
#994=CARTESIAN_POINT('',(-7.75000012665987,-8.50000012665987,3.));
#995=CARTESIAN_POINT('Origin',(-8.50000012665987,-8.50000012665987,3.));
#996=CARTESIAN_POINT('',(-7.75000012665987,-8.50000012665987,0.));
#997=CARTESIAN_POINT('',(-7.75000012665987,-8.50000012665987,0.));
#998=CARTESIAN_POINT('Origin',(-8.50000012665987,-8.50000012665987,0.));
#999=CARTESIAN_POINT('Origin',(-10.,-13.5,3.));
#1000=CARTESIAN_POINT('',(-10.,-13.5,-1.));
#1001=CARTESIAN_POINT('',(-10.,-13.5,3.));
#1002=CARTESIAN_POINT('',(-6.00000008940697,-13.5,-1.));
#1003=CARTESIAN_POINT('',(-9.00000005960464,-13.5,-1.));
#1004=CARTESIAN_POINT('',(-6.00000008940697,-13.5,0.));
#1005=CARTESIAN_POINT('Origin',(-6.00000008940697,-13.5,3.));
#1006=CARTESIAN_POINT('',(-2.5000000372529,-13.5000002011657,-1.));
#1007=CARTESIAN_POINT('',(-7.00000026236687,-13.4999999425241,-1.));
#1008=CARTESIAN_POINT('',(-2.5000000372529,-13.5000002011657,0.));
#1009=CARTESIAN_POINT('Origin',(-9.00000005960464,-13.,-0.5));
#1010=CARTESIAN_POINT('',(-6.00000003193106,-12.5,0.));
#1011=CARTESIAN_POINT('',(-6.00000008940697,-13.5,-1.));
#1012=CARTESIAN_POINT('',(-10.,-12.5,0.));
#1013=CARTESIAN_POINT('',(-9.99999994412066,-12.7500000391156,-0.250000039115557));
#1014=CARTESIAN_POINT('',(-9.00000005960464,-12.5,0.));
#1015=CARTESIAN_POINT('Origin',(-7.00000023362891,-12.9999999425241,-0.5));
#1016=CARTESIAN_POINT('',(-2.5000000372529,-12.5000001862645,0.));
#1017=CARTESIAN_POINT('',(-7.00000020489096,-12.4999999425241,0.));
#1018=CARTESIAN_POINT('',(-2.5000000372529,-12.00000013278,0.500000068385684));
#1019=CARTESIAN_POINT('Origin',(-2.5000000372529,-12.5000001862645,3.));
#1020=CARTESIAN_POINT('',(-2.5000000372529,-12.5000001862645,2.5));
#1021=CARTESIAN_POINT('',(-2.5000000372529,-12.5000001862645,3.));
#1022=CARTESIAN_POINT('',(-2.5000000372529,-13.500000230968,2.5));
#1023=CARTESIAN_POINT('',(-2.5000000372529,-10.250000115484,2.5));
#1024=CARTESIAN_POINT('',(-2.5000000372529,-15.000000230968,1.));
#1025=CARTESIAN_POINT('Origin',(-2.5000000372529,-13.500000230968,1.));
#1026=CARTESIAN_POINT('',(-2.5000000372529,-15.000000230968,0.));
#1027=CARTESIAN_POINT('Origin',(-9.50000000000002,-13.500000230968,1.));
#1028=CARTESIAN_POINT('',(-10.0000001117587,-15.0000001937151,1.));
#1029=CARTESIAN_POINT('',(-9.50000014901161,-15.500000230968,1.));
#1030=CARTESIAN_POINT('Origin',(-9.50000011175871,-15.000000230968,1.));
#1031=CARTESIAN_POINT('',(-9.50000000000002,-13.500000230968,3.));
#1032=CARTESIAN_POINT('Origin',(-9.50000000000002,-13.500000230968,1.));
#1033=CARTESIAN_POINT('',(-10.,-13.5,2.49999999999999));
#1034=CARTESIAN_POINT('Origin',(-9.50000000000002,-13.500000230968,2.5));
#1035=CARTESIAN_POINT('Origin',(-10.,-13.5000001937151,1.));
#1036=CARTESIAN_POINT('Origin',(-6.00000008940697,-9.00000013411045,3.));
#1037=CARTESIAN_POINT('',(-3.0000000372529,-12.0000001862645,3.));
#1038=CARTESIAN_POINT('Origin',(-3.0000000372529,-12.0000001862645,2.5));
#1039=CARTESIAN_POINT('',(-6.00000008940697,-9.00000013411045,0.));
#1040=CARTESIAN_POINT('',(-6.00000008940697,-9.00000013411045,3.));
#1041=CARTESIAN_POINT('Origin',(-5.2500000782311,-13.500000230968,1.));
#1042=CARTESIAN_POINT('',(-3.0000000372529,-13.500000230968,3.));
#1043=CARTESIAN_POINT('',(-3.0000000372529,-15.500000230968,1.));
#1044=CARTESIAN_POINT('Origin',(-3.0000000372529,-13.500000230968,1.));
#1045=CARTESIAN_POINT('',(-5.2500000782311,-13.500000230968,3.));
#1046=CARTESIAN_POINT('',(-5.2500000782311,-15.500000230968,1.));
#1047=CARTESIAN_POINT('Origin',(-3.0000000372529,-13.500000230968,1.));
#1048=CARTESIAN_POINT('Origin',(-3.0000000372529,-15.000000230968,1.));
#1049=CARTESIAN_POINT('Origin',(-3.0000000372529,-13.500000230968,2.5));
#1050=CARTESIAN_POINT('Origin',(-3.0000000372529,-10.250000115484,2.5));
#1051=CARTESIAN_POINT('',(-3.0000000372529,-10.250000115484,3.));
#1052=CARTESIAN_POINT('Origin',(-8.00000011920929,-8.00000004470348,0.));
#1053=CARTESIAN_POINT('',(-10.,-6.50000008940697,0.));
#1054=CARTESIAN_POINT('Origin',(-9.5,-6.50000008940697,0.));
#1055=CARTESIAN_POINT('',(-10.,-10.,0.));
#1056=CARTESIAN_POINT('Origin',(-10.,-6.00000008940697,0.));
#1057=CARTESIAN_POINT('',(-10.,-6.50000008940697,2.5));
#1058=CARTESIAN_POINT('',(-10.,-6.50000008940697,0.));
#1059=CARTESIAN_POINT('',(-10.,-13.5,0.));
#1060=CARTESIAN_POINT('',(-10.,-10.,0.));
#1061=CARTESIAN_POINT('',(-10.,-13.5,0.));
#1062=CARTESIAN_POINT('',(-10.,-7.00000006705523,2.5));
#1063=CARTESIAN_POINT('Origin',(-9.5,-7.00000006705523,2.5));
#1064=CARTESIAN_POINT('',(-9.5,-6.50000008940697,3.));
#1065=CARTESIAN_POINT('Origin',(-9.5,-6.50000008940697,2.5));
#1066=CARTESIAN_POINT('',(-9.5,-7.00000006705523,3.));
#1067=CARTESIAN_POINT('Origin',(-8.00000011920929,-8.00000004470348,3.));
#1068=CARTESIAN_POINT('',(-8.51160734891891,-6.50000008940697,3.));
#1069=CARTESIAN_POINT('Origin',(-9.5,-6.50000008940697,2.5));
#1070=CARTESIAN_POINT('Origin',(-9.5,-6.50000008940697,2.5));
#1071=CARTESIAN_POINT('Origin',(-9.5,-6.50000008940697,2.5));
#1072=CARTESIAN_POINT('Origin',(-9.5,-6.50000008940697,0.));
#1073=CARTESIAN_POINT('Origin',(-8.51160734891891,-6.50000008940697,2.5));
#1074=CARTESIAN_POINT('Origin',(-3.0000000372529,-15.000000230968,3.));
#1075=CARTESIAN_POINT('',(-3.0000000372529,-15.500000230968,0.));
#1076=CARTESIAN_POINT('Origin',(-2.5000000372529,-15.500000230968,3.));
#1077=CARTESIAN_POINT('',(-9.50000011175871,-15.500000230968,0.));
#1078=CARTESIAN_POINT('Origin',(-9.50000011175871,-15.000000230968,3.));
#1079=CARTESIAN_POINT('',(-10.0000001117587,-15.0000001937151,0.));
#1080=CARTESIAN_POINT('Origin',(-10.0000001490116,-15.500000230968,3.));
#1081=UNCERTAINTY_MEASURE_WITH_UNIT(LENGTH_MEASURE(0.01),#1085,
'DISTANCE_ACCURACY_VALUE',
'Maximum model space distance between geometric entities at asserted c
onnectivities');
#1082=UNCERTAINTY_MEASURE_WITH_UNIT(LENGTH_MEASURE(0.01),#1085,
'DISTANCE_ACCURACY_VALUE',
'Maximum model space distance between geometric entities at asserted c
onnectivities');
#1083=(
GEOMETRIC_REPRESENTATION_CONTEXT(3)
GLOBAL_UNCERTAINTY_ASSIGNED_CONTEXT((#1081))
GLOBAL_UNIT_ASSIGNED_CONTEXT((#1085,#1087,#1088))
REPRESENTATION_CONTEXT('','3D')
);
#1084=(
GEOMETRIC_REPRESENTATION_CONTEXT(3)
GLOBAL_UNCERTAINTY_ASSIGNED_CONTEXT((#1082))
GLOBAL_UNIT_ASSIGNED_CONTEXT((#1085,#1087,#1088))
REPRESENTATION_CONTEXT('','3D')
);
#1085=(
LENGTH_UNIT()
NAMED_UNIT(*)
SI_UNIT(.MILLI.,.METRE.)
);
#1086=(
LENGTH_UNIT()
NAMED_UNIT(*)
SI_UNIT($,.METRE.)
);
#1087=(
NAMED_UNIT(*)
PLANE_ANGLE_UNIT()
SI_UNIT($,.RADIAN.)
);
#1088=(
NAMED_UNIT(*)
SI_UNIT($,.STERADIAN.)
SOLID_ANGLE_UNIT()
);
#1089=SHAPE_DEFINITION_REPRESENTATION(#1090,#1091);
#1090=PRODUCT_DEFINITION_SHAPE('',$,#1093);
#1091=SHAPE_REPRESENTATION('',(#646),#1083);
#1092=PRODUCT_DEFINITION_CONTEXT('part definition',#1097,'design');
#1093=PRODUCT_DEFINITION('2025-10-27-17-05-46-484',
'cornix_trackball_case_holder',#1094,#1092);
#1094=PRODUCT_DEFINITION_FORMATION('',$,#1099);
#1095=PRODUCT_RELATED_PRODUCT_CATEGORY('cornix_trackball_case_holder',
'cornix_trackball_case_holder',(#1099));
#1096=APPLICATION_PROTOCOL_DEFINITION('international standard',
'automotive_design',2009,#1097);
#1097=APPLICATION_CONTEXT(
'Core Data for Automotive Mechanical Design Process');
#1098=PRODUCT_CONTEXT('part definition',#1097,'mechanical');
#1099=PRODUCT('2025-10-27-17-05-46-484','cornix_trackball_case_holder',
$,(#1098));
#1100=PRESENTATION_STYLE_ASSIGNMENT((#1101));
#1101=SURFACE_STYLE_USAGE(.BOTH.,#1102);
#1102=SURFACE_SIDE_STYLE('',(#1103));
#1103=SURFACE_STYLE_FILL_AREA(#1104);
#1104=FILL_AREA_STYLE('\X2\92FC\X0\ - \X2\30B530C630F3\X0\',(#1105));
#1105=FILL_AREA_STYLE_COLOUR('\X2\92FC\X0\ - \X2\30B530C630F3\X0\',#1106);
#1106=COLOUR_RGB('\X2\92FC\X0\ - \X2\30B530C630F3\X0\',0.627450980392157,
0.627450980392157,0.627450980392157);
ENDSEC;
END-ISO-10303-21;
